<mxfile host="app.diagrams.net" modified="2023-06-29T14:11:02.222Z" agent="Mozilla/5.0 (Windows NT 10.0; Win64; x64) AppleWebKit/537.36 (KHTML, like Gecko) Chrome/114.0.0.0 Safari/537.36" etag="TfEcvSx8UF8B8LdhUJ5b" version="21.5.1" type="github">
  <diagram name="Pagina-1" id="WcSLOMXtGoO5Kwd3MJ1G">
    <mxGraphModel dx="4226" dy="4540" grid="1" gridSize="10" guides="1" tooltips="1" connect="1" arrows="1" fold="1" page="1" pageScale="1" pageWidth="1169" pageHeight="827" math="0" shadow="0">
      <root>
        <object label="" Uses="" id="0">
          <mxCell />
        </object>
        <mxCell id="1" parent="0" />
        <mxCell id="0j8p1se4WsX_w9YfrRnY-1" value="" style="shape=folder;fontStyle=1;spacingTop=10;tabWidth=60;tabHeight=30;tabPosition=left;html=1;whiteSpace=wrap;shadow=0;fillColor=none;" parent="1" vertex="1">
          <mxGeometry x="-2490" y="-3470" width="2710" height="1710" as="geometry" />
        </mxCell>
        <mxCell id="LTxgpxZo_bc8f6A4X1VT-33" value="Enums" style="shape=folder;fontStyle=1;tabWidth=110;tabHeight=30;tabPosition=left;html=1;boundedLbl=1;labelInHeader=1;container=1;collapsible=0;whiteSpace=wrap;fillColor=none;" vertex="1" parent="1">
          <mxGeometry x="6" y="-2117" width="194" height="267" as="geometry" />
        </mxCell>
        <mxCell id="LTxgpxZo_bc8f6A4X1VT-34" value="" style="html=1;strokeColor=none;resizeWidth=1;resizeHeight=1;fillColor=none;part=1;connectable=0;allowArrows=0;deletable=0;whiteSpace=wrap;" vertex="1" parent="LTxgpxZo_bc8f6A4X1VT-33">
          <mxGeometry width="193.99999999999997" height="186.9" relative="1" as="geometry">
            <mxPoint y="30" as="offset" />
          </mxGeometry>
        </mxCell>
        <mxCell id="1AL47Ae-udw0xNspE_Op-19" value="" style="shape=folder;fontStyle=1;spacingTop=10;tabWidth=120;tabHeight=30;tabPosition=left;html=1;whiteSpace=wrap;fillColor=none;" parent="1" vertex="1">
          <mxGeometry x="1070" y="-770" width="310" height="450" as="geometry" />
        </mxCell>
        <mxCell id="1AL47Ae-udw0xNspE_Op-1" value="" style="shape=folder;fontStyle=1;spacingTop=10;tabWidth=80;tabHeight=30;tabPosition=left;html=1;whiteSpace=wrap;shadow=0;fillColor=none;" parent="1" vertex="1">
          <mxGeometry x="235" y="-2440" width="2440" height="2190" as="geometry" />
        </mxCell>
        <mxCell id="7zn35PvWmJtqcguIeIPs-152" value="Messages" style="shape=folder;fontStyle=1;tabWidth=110;tabHeight=30;tabPosition=left;html=1;boundedLbl=1;labelInHeader=1;container=1;collapsible=0;whiteSpace=wrap;fillColor=none;" parent="1" vertex="1">
          <mxGeometry x="260" y="-2380" width="2370" height="1470" as="geometry" />
        </mxCell>
        <mxCell id="7zn35PvWmJtqcguIeIPs-153" value="" style="html=1;strokeColor=none;resizeWidth=1;resizeHeight=1;fillColor=none;part=1;connectable=0;allowArrows=0;deletable=0;whiteSpace=wrap;" parent="7zn35PvWmJtqcguIeIPs-152" vertex="1">
          <mxGeometry width="2370" height="1029" relative="1" as="geometry">
            <mxPoint y="30" as="offset" />
          </mxGeometry>
        </mxCell>
        <mxCell id="EzJUuA46leq047YBjK1z-1" value="" style="shape=folder;fontStyle=1;spacingTop=10;tabWidth=40;tabHeight=30;tabPosition=left;html=1;whiteSpace=wrap;fillColor=none;" parent="1" vertex="1">
          <mxGeometry x="-340" y="-210" width="2920" height="1620" as="geometry" />
        </mxCell>
        <mxCell id="9WpMfCR_n4XsZXEiZ-4h-2" value="" style="shape=folder;fontStyle=1;spacingTop=10;tabWidth=130;tabHeight=30;tabPosition=left;html=1;whiteSpace=wrap;shadow=0;fillStyle=hatch;fillColor=default;" parent="1" vertex="1">
          <mxGeometry x="1110" y="550" width="1460" height="730" as="geometry" />
        </mxCell>
        <mxCell id="LTxgpxZo_bc8f6A4X1VT-15" style="edgeStyle=orthogonalEdgeStyle;rounded=0;orthogonalLoop=1;jettySize=auto;html=1;exitX=0.25;exitY=0;exitDx=0;exitDy=0;endArrow=diamondThin;endFill=1;" edge="1" parent="1" source="Mxky3zlpcd0uLPRcEJlR-1">
          <mxGeometry relative="1" as="geometry">
            <mxPoint x="-180" y="-420" as="targetPoint" />
            <Array as="points">
              <mxPoint x="358" y="-200" />
              <mxPoint x="-180" y="-200" />
              <mxPoint x="-180" y="-419" />
            </Array>
          </mxGeometry>
        </mxCell>
        <mxCell id="LTxgpxZo_bc8f6A4X1VT-22" style="edgeStyle=orthogonalEdgeStyle;rounded=0;orthogonalLoop=1;jettySize=auto;html=1;exitX=0.5;exitY=0;exitDx=0;exitDy=0;entryX=0;entryY=0.583;entryDx=0;entryDy=0;entryPerimeter=0;endArrow=diamondThin;endFill=1;" edge="1" parent="1" target="1AL47Ae-udw0xNspE_Op-11">
          <mxGeometry relative="1" as="geometry">
            <mxPoint x="439.02" y="-120" as="sourcePoint" />
            <mxPoint x="725.98" y="-846.3199999999999" as="targetPoint" />
            <Array as="points">
              <mxPoint x="439" y="-240" />
              <mxPoint x="184" y="-240" />
              <mxPoint x="184" y="-840" />
            </Array>
          </mxGeometry>
        </mxCell>
        <mxCell id="Mxky3zlpcd0uLPRcEJlR-1" value="Game" style="swimlane;fontStyle=1;align=center;verticalAlign=top;childLayout=stackLayout;horizontal=1;startSize=26;horizontalStack=0;resizeParent=1;resizeParentMax=0;resizeLast=0;collapsible=1;marginBottom=0;whiteSpace=wrap;html=1;" parent="1" vertex="1">
          <mxGeometry x="260" y="-120" width="390" height="500" as="geometry">
            <mxRectangle x="330" y="50" width="80" height="30" as="alternateBounds" />
          </mxGeometry>
        </mxCell>
        <mxCell id="Mxky3zlpcd0uLPRcEJlR-2" value="- players: ArrayList&amp;lt;Player&amp;gt;&lt;br&gt;- firstPlayer: Player&lt;br&gt;- commonGoals: ArrayList&amp;lt;CommonGoal&amp;gt;&lt;br&gt;- board: Board&lt;br&gt;- gameState: GameStates&lt;br&gt;- numberOfPlayers: int&lt;br&gt;- chat: Chat&lt;br&gt;- currentPlayer: Player" style="text;strokeColor=none;fillColor=none;align=left;verticalAlign=top;spacingLeft=4;spacingRight=4;overflow=hidden;rotatable=0;points=[[0,0.5],[1,0.5]];portConstraint=eastwest;whiteSpace=wrap;html=1;" parent="Mxky3zlpcd0uLPRcEJlR-1" vertex="1">
          <mxGeometry y="26" width="390" height="124" as="geometry" />
        </mxCell>
        <mxCell id="Mxky3zlpcd0uLPRcEJlR-3" value="" style="line;strokeWidth=1;fillColor=none;align=left;verticalAlign=middle;spacingTop=-1;spacingLeft=3;spacingRight=3;rotatable=0;labelPosition=right;points=[];portConstraint=eastwest;strokeColor=inherit;" parent="Mxky3zlpcd0uLPRcEJlR-1" vertex="1">
          <mxGeometry y="150" width="390" height="30" as="geometry" />
        </mxCell>
        <mxCell id="Mxky3zlpcd0uLPRcEJlR-4" value="+ inizializeGame(Player,int): void&lt;br&gt;+ getFirstPlayer(): Player&lt;br style=&quot;border-color: var(--border-color);&quot;&gt;+ getCurrentPlayer(): Player&lt;br&gt;+ getPlayers(): ArrayList&amp;lt;Players&amp;gt;&lt;br&gt;+ getBoard(): Board&lt;br&gt;+ getCommonGoals(): ArrayList&amp;lt;CommonGoal&amp;gt;&lt;br&gt;+ getChat(): Chat&lt;br&gt;+ getNumberOfPlayers(): int&lt;br&gt;+ getGameState(): GameStates&lt;br&gt;+ getNextPlayer(): Player&lt;br&gt;+ setFirstPlayer(Player): void&lt;br&gt;+ setCurrentPlayer(Player): void&lt;br&gt;+ setPlayers(ArrayList&amp;lt;Player&amp;gt;): void&lt;br style=&quot;border-color: var(--border-color);&quot;&gt;+ setBoard(Board): void&lt;br&gt;+ setChat(Chat): void&lt;br style=&quot;border-color: var(--border-color);&quot;&gt;+ setCommonGoals(ArrayList&amp;lt;CommonGoal&amp;gt; ): void&lt;br&gt;+ setGameState(GameStates): void&lt;br&gt;+ addPlayer(Player): void&lt;br style=&quot;border-color: var(--border-color);&quot;&gt;-&amp;nbsp; fillCommonGoalsStrategyArray(): ArrayList&amp;lt;Class&amp;lt;?&amp;gt;&amp;gt;&lt;br&gt;+ randomCommonGoals(): ArrayList&amp;lt;CommonGoal&amp;gt;&lt;br&gt;+ commonGoalByIndex(int[]): ArrayList&amp;lt;CommonGoal&amp;gt;" style="text;strokeColor=none;fillColor=none;align=left;verticalAlign=top;spacingLeft=4;spacingRight=4;overflow=hidden;rotatable=0;points=[[0,0.5],[1,0.5]];portConstraint=eastwest;whiteSpace=wrap;html=1;" parent="Mxky3zlpcd0uLPRcEJlR-1" vertex="1">
          <mxGeometry y="180" width="390" height="320" as="geometry" />
        </mxCell>
        <mxCell id="Mxky3zlpcd0uLPRcEJlR-6" value="Board" style="swimlane;fontStyle=1;align=center;verticalAlign=top;childLayout=stackLayout;horizontal=1;startSize=26;horizontalStack=0;resizeParent=1;resizeParentMax=0;resizeLast=0;collapsible=1;marginBottom=0;whiteSpace=wrap;html=1;" parent="1" vertex="1">
          <mxGeometry x="740" y="50" width="310" height="450" as="geometry" />
        </mxCell>
        <mxCell id="Mxky3zlpcd0uLPRcEJlR-7" value="- board: Tile[][]&lt;br&gt;- endGame: boolean&lt;br&gt;- temporaryPoints: ArrayList&amp;lt;Point&amp;gt;&lt;br&gt;- bag: Bag&lt;br&gt;- selectablePoints: ArrayList&amp;lt;Point&amp;gt;" style="text;strokeColor=none;fillColor=none;align=left;verticalAlign=top;spacingLeft=4;spacingRight=4;overflow=hidden;rotatable=0;points=[[0,0.5],[1,0.5]];portConstraint=eastwest;whiteSpace=wrap;html=1;" parent="Mxky3zlpcd0uLPRcEJlR-6" vertex="1">
          <mxGeometry y="26" width="310" height="84" as="geometry" />
        </mxCell>
        <mxCell id="Mxky3zlpcd0uLPRcEJlR-8" value="" style="line;strokeWidth=1;fillColor=none;align=left;verticalAlign=middle;spacingTop=-1;spacingLeft=3;spacingRight=3;rotatable=0;labelPosition=right;points=[];portConstraint=eastwest;strokeColor=inherit;" parent="Mxky3zlpcd0uLPRcEJlR-6" vertex="1">
          <mxGeometry y="110" width="310" height="8" as="geometry" />
        </mxCell>
        <mxCell id="Mxky3zlpcd0uLPRcEJlR-9" value="- getAdjacentPoints(Point): ArrayList&amp;lt;Point&amp;gt;&lt;br&gt;- updateSelectablePoints(): void&lt;br&gt;- getFreeEdgesPoints(): ArrayList&amp;lt;Point&amp;gt;&lt;br&gt;- getAdjacentSelectablePoints(): ArrayList&amp;lt;Point&amp;gt;&lt;br&gt;- getSelectablePointsInStraightLine(): ArrayList&amp;lt;Point&amp;gt;&lt;br&gt;+ getBoard(): Tile[][]&lt;br&gt;+ getBag(): Bag&lt;br&gt;+ isEndGame: boolean&lt;br&gt;+ getTemporaryPoints(): ArrayList&amp;lt;Point&amp;gt;&lt;br&gt;+ getSelectablePoints(): ArrayList&amp;lt;Point&amp;gt;&lt;br&gt;+ setBoard(Tile[][]): void&lt;br&gt;+ setEndGame(boolean): void&lt;br&gt;+ setTemporaryPoints(ArrayList&amp;lt;Point&amp;gt;): void&lt;br&gt;+ updateBoard(Tile, int, int): void&lt;br style=&quot;border-color: var(--border-color);&quot;&gt;+ getTileFromBoard(Point): Tile&lt;br&gt;+ addTemporaryPoints(Point): void&lt;br&gt;+ cleanTemporaryPoints(): void&lt;br&gt;+ areAdjacentPoints(Point,Point): boolean&lt;br&gt;+ printBoard(): void&lt;br&gt;+ isBoardEmpty(): boolean&lt;br&gt;+ removeTemporaryPoints(Point): void" style="text;strokeColor=none;fillColor=none;align=left;verticalAlign=top;spacingLeft=4;spacingRight=4;overflow=hidden;rotatable=0;points=[[0,0.5],[1,0.5]];portConstraint=eastwest;whiteSpace=wrap;html=1;" parent="Mxky3zlpcd0uLPRcEJlR-6" vertex="1">
          <mxGeometry y="118" width="310" height="332" as="geometry" />
        </mxCell>
        <mxCell id="Mxky3zlpcd0uLPRcEJlR-15" value="" style="endArrow=diamondThin;endFill=1;html=1;edgeStyle=orthogonalEdgeStyle;align=left;verticalAlign=top;rounded=0;exitX=0;exitY=0.5;exitDx=0;exitDy=0;entryX=1;entryY=0.243;entryDx=0;entryDy=0;entryPerimeter=0;" parent="1" source="Mxky3zlpcd0uLPRcEJlR-7" target="Mxky3zlpcd0uLPRcEJlR-4" edge="1">
          <mxGeometry x="-0.0588" y="-5" relative="1" as="geometry">
            <mxPoint x="460" y="110" as="sourcePoint" />
            <mxPoint x="600" y="70" as="targetPoint" />
            <mxPoint as="offset" />
          </mxGeometry>
        </mxCell>
        <mxCell id="Mxky3zlpcd0uLPRcEJlR-16" value="1" style="edgeLabel;resizable=0;html=1;align=left;verticalAlign=bottom;" parent="Mxky3zlpcd0uLPRcEJlR-15" connectable="0" vertex="1">
          <mxGeometry relative="1" as="geometry">
            <mxPoint as="offset" />
          </mxGeometry>
        </mxCell>
        <mxCell id="Mxky3zlpcd0uLPRcEJlR-18" value="Shelf" style="swimlane;fontStyle=1;align=center;verticalAlign=top;childLayout=stackLayout;horizontal=1;startSize=26;horizontalStack=0;resizeParent=1;resizeParentMax=0;resizeLast=0;collapsible=1;marginBottom=0;whiteSpace=wrap;html=1;" parent="1" vertex="1">
          <mxGeometry x="-100" y="280" width="290" height="340" as="geometry" />
        </mxCell>
        <mxCell id="Mxky3zlpcd0uLPRcEJlR-19" value="- shelf: Tile[][]&lt;br&gt;- selectionPossible: boolean&lt;br&gt;- selectableColumns: ArrayList&amp;lt;Integer&amp;gt;&lt;br&gt;- selectedColumn: Integer" style="text;strokeColor=none;fillColor=none;align=left;verticalAlign=top;spacingLeft=4;spacingRight=4;overflow=hidden;rotatable=0;points=[[0,0.5],[1,0.5]];portConstraint=eastwest;whiteSpace=wrap;html=1;" parent="Mxky3zlpcd0uLPRcEJlR-18" vertex="1">
          <mxGeometry y="26" width="290" height="74" as="geometry" />
        </mxCell>
        <mxCell id="Mxky3zlpcd0uLPRcEJlR-20" value="" style="line;strokeWidth=1;fillColor=none;align=left;verticalAlign=middle;spacingTop=-1;spacingLeft=3;spacingRight=3;rotatable=0;labelPosition=right;points=[];portConstraint=eastwest;strokeColor=inherit;" parent="Mxky3zlpcd0uLPRcEJlR-18" vertex="1">
          <mxGeometry y="100" width="290" height="8" as="geometry" />
        </mxCell>
        <mxCell id="Mxky3zlpcd0uLPRcEJlR-21" value="+ getShelf(): Tile[][]&lt;br&gt;+ getTileShelf(int,int): Tile&lt;br&gt;+ isselectionPossible(): boolean&lt;br&gt;+ getSelectedcolumn(): Integer&lt;br&gt;+ getSelectableColumns(): ArrayList&amp;lt;Integer&amp;gt;&lt;br&gt;+ setShelf (Tile[][]): void&lt;br&gt;+ setSelectionPossible(boolean): void&lt;br&gt;+ setSelectableColumns(ArrayList&amp;lt;Integer&amp;gt;): void&lt;br&gt;+ setSelectedColumn(Integer): void&lt;br&gt;+ maxFreeColumnSpace(): int&lt;br&gt;+ instertTiles(Tile,int,int): void&lt;br&gt;+ updateSelectableColumns(Player): void&lt;br&gt;+ cleanSelectedColumn(): void&lt;br&gt;+ cleanSelectableColumns(): void&lt;br&gt;+ printShelf(): void" style="text;strokeColor=none;fillColor=none;align=left;verticalAlign=top;spacingLeft=4;spacingRight=4;overflow=hidden;rotatable=0;points=[[0,0.5],[1,0.5]];portConstraint=eastwest;whiteSpace=wrap;html=1;" parent="Mxky3zlpcd0uLPRcEJlR-18" vertex="1">
          <mxGeometry y="108" width="290" height="232" as="geometry" />
        </mxCell>
        <mxCell id="Mxky3zlpcd0uLPRcEJlR-22" value="" style="endArrow=diamondThin;endFill=1;html=1;edgeStyle=orthogonalEdgeStyle;align=left;verticalAlign=top;rounded=0;exitX=1;exitY=0.25;exitDx=0;exitDy=0;" parent="1" source="Mxky3zlpcd0uLPRcEJlR-18" edge="1">
          <mxGeometry x="-1" relative="1" as="geometry">
            <mxPoint x="390" y="280" as="sourcePoint" />
            <mxPoint x="300" y="540" as="targetPoint" />
            <Array as="points">
              <mxPoint x="210" y="365" />
              <mxPoint x="210" y="540" />
              <mxPoint x="299" y="540" />
            </Array>
          </mxGeometry>
        </mxCell>
        <mxCell id="Mxky3zlpcd0uLPRcEJlR-23" value="1" style="edgeLabel;resizable=0;html=1;align=left;verticalAlign=bottom;" parent="Mxky3zlpcd0uLPRcEJlR-22" connectable="0" vertex="1">
          <mxGeometry x="-1" relative="1" as="geometry" />
        </mxCell>
        <mxCell id="Mxky3zlpcd0uLPRcEJlR-24" value="PersonalGoal" style="swimlane;fontStyle=1;align=center;verticalAlign=top;childLayout=stackLayout;horizontal=1;startSize=26;horizontalStack=0;resizeParent=1;resizeParentMax=0;resizeLast=0;collapsible=1;marginBottom=0;whiteSpace=wrap;html=1;" parent="1" vertex="1">
          <mxGeometry x="-320" y="650" width="280" height="140" as="geometry" />
        </mxCell>
        <mxCell id="Mxky3zlpcd0uLPRcEJlR-25" value="- personalGoal: TilesEnum[][]&lt;br&gt;- usedCodes: List&amp;lt;Integer&amp;gt;" style="text;strokeColor=none;fillColor=none;align=left;verticalAlign=top;spacingLeft=4;spacingRight=4;overflow=hidden;rotatable=0;points=[[0,0.5],[1,0.5]];portConstraint=eastwest;whiteSpace=wrap;html=1;" parent="Mxky3zlpcd0uLPRcEJlR-24" vertex="1">
          <mxGeometry y="26" width="280" height="34" as="geometry" />
        </mxCell>
        <mxCell id="Mxky3zlpcd0uLPRcEJlR-26" value="" style="line;strokeWidth=1;fillColor=none;align=left;verticalAlign=middle;spacingTop=-1;spacingLeft=3;spacingRight=3;rotatable=0;labelPosition=right;points=[];portConstraint=eastwest;strokeColor=inherit;" parent="Mxky3zlpcd0uLPRcEJlR-24" vertex="1">
          <mxGeometry y="60" width="280" height="8" as="geometry" />
        </mxCell>
        <mxCell id="Mxky3zlpcd0uLPRcEJlR-27" value="+ getPersonalGoal(): TilesEnum[][]&lt;br&gt;+ getUsedCodes(): List&amp;lt;Integer&amp;gt;&lt;br&gt;+ setUsedCodes(List&amp;lt;Integer&amp;gt;): void&lt;br&gt;+ cleanUsedCodes(): void" style="text;strokeColor=none;fillColor=none;align=left;verticalAlign=top;spacingLeft=4;spacingRight=4;overflow=hidden;rotatable=0;points=[[0,0.5],[1,0.5]];portConstraint=eastwest;whiteSpace=wrap;html=1;" parent="Mxky3zlpcd0uLPRcEJlR-24" vertex="1">
          <mxGeometry y="68" width="280" height="72" as="geometry" />
        </mxCell>
        <mxCell id="Mxky3zlpcd0uLPRcEJlR-29" value="" style="endArrow=diamondThin;endFill=1;html=1;edgeStyle=orthogonalEdgeStyle;align=left;verticalAlign=top;rounded=0;exitX=1;exitY=0.25;exitDx=0;exitDy=0;" parent="1" source="Mxky3zlpcd0uLPRcEJlR-24" edge="1">
          <mxGeometry x="-1" relative="1" as="geometry">
            <mxPoint x="-40" y="650" as="sourcePoint" />
            <mxPoint x="300" y="580" as="targetPoint" />
            <mxPoint as="offset" />
            <Array as="points">
              <mxPoint x="-40" y="700" />
              <mxPoint x="250" y="700" />
              <mxPoint x="250" y="580" />
            </Array>
          </mxGeometry>
        </mxCell>
        <mxCell id="Mxky3zlpcd0uLPRcEJlR-30" value="1" style="edgeLabel;resizable=0;html=1;align=left;verticalAlign=bottom;" parent="Mxky3zlpcd0uLPRcEJlR-29" connectable="0" vertex="1">
          <mxGeometry x="-1" relative="1" as="geometry">
            <mxPoint y="15" as="offset" />
          </mxGeometry>
        </mxCell>
        <mxCell id="_N1UwID_5jC3FNQXrJoQ-50" style="edgeStyle=orthogonalEdgeStyle;rounded=0;orthogonalLoop=1;jettySize=auto;html=1;exitX=0;exitY=0;exitDx=0;exitDy=0;entryX=0.75;entryY=0;entryDx=0;entryDy=0;endArrow=diamondThin;endFill=1;" parent="1" source="Mxky3zlpcd0uLPRcEJlR-31" target="Mxky3zlpcd0uLPRcEJlR-1" edge="1">
          <mxGeometry relative="1" as="geometry">
            <Array as="points">
              <mxPoint x="1660" y="590" />
              <mxPoint x="1660" y="-150" />
              <mxPoint x="552" y="-150" />
            </Array>
          </mxGeometry>
        </mxCell>
        <mxCell id="Mxky3zlpcd0uLPRcEJlR-31" value="CommonGoal" style="swimlane;fontStyle=1;align=center;verticalAlign=top;childLayout=stackLayout;horizontal=1;startSize=40;horizontalStack=0;resizeParent=1;resizeParentMax=0;resizeLast=0;collapsible=1;marginBottom=0;whiteSpace=wrap;html=1;fillColor=default;" parent="1" vertex="1">
          <mxGeometry x="1650" y="590" width="250" height="140" as="geometry" />
        </mxCell>
        <mxCell id="Mxky3zlpcd0uLPRcEJlR-32" value="- redeemedNumber: int" style="text;strokeColor=none;fillColor=default;align=left;verticalAlign=top;spacingLeft=4;spacingRight=4;overflow=hidden;rotatable=0;points=[[0,0.5],[1,0.5]];portConstraint=eastwest;whiteSpace=wrap;html=1;" parent="Mxky3zlpcd0uLPRcEJlR-31" vertex="1">
          <mxGeometry y="40" width="250" height="40" as="geometry" />
        </mxCell>
        <mxCell id="Mxky3zlpcd0uLPRcEJlR-33" value="" style="line;strokeWidth=1;fillColor=default;align=left;verticalAlign=middle;spacingTop=-1;spacingLeft=3;spacingRight=3;rotatable=0;labelPosition=right;points=[];portConstraint=eastwest;strokeColor=inherit;" parent="Mxky3zlpcd0uLPRcEJlR-31" vertex="1">
          <mxGeometry y="80" width="250" height="8" as="geometry" />
        </mxCell>
        <mxCell id="Mxky3zlpcd0uLPRcEJlR-34" value="+ checkRequirements(): Boolean&lt;br&gt;+ getRedeemedNumber(): int&amp;nbsp;&lt;br&gt;+ increaseRedeemedNumber(): void" style="text;strokeColor=none;fillColor=default;align=left;verticalAlign=top;spacingLeft=4;spacingRight=4;overflow=hidden;rotatable=0;points=[[0,0.5],[1,0.5]];portConstraint=eastwest;whiteSpace=wrap;html=1;" parent="Mxky3zlpcd0uLPRcEJlR-31" vertex="1">
          <mxGeometry y="88" width="250" height="52" as="geometry" />
        </mxCell>
        <mxCell id="Mxky3zlpcd0uLPRcEJlR-38" value="Player" style="swimlane;fontStyle=1;align=center;verticalAlign=top;childLayout=stackLayout;horizontal=1;startSize=26;horizontalStack=0;resizeParent=1;resizeParentMax=0;resizeLast=0;collapsible=1;marginBottom=0;whiteSpace=wrap;html=1;" parent="1" vertex="1">
          <mxGeometry x="300" y="490" width="350" height="410" as="geometry" />
        </mxCell>
        <mxCell id="Z1P8TGeqZuuGpUr6qu0I-7" style="edgeStyle=orthogonalEdgeStyle;rounded=0;orthogonalLoop=1;jettySize=auto;html=1;exitX=0;exitY=0.5;exitDx=0;exitDy=0;entryX=0;entryY=0.5;entryDx=0;entryDy=0;" parent="Mxky3zlpcd0uLPRcEJlR-38" source="Mxky3zlpcd0uLPRcEJlR-41" target="Mxky3zlpcd0uLPRcEJlR-41" edge="1">
          <mxGeometry relative="1" as="geometry" />
        </mxCell>
        <mxCell id="Mxky3zlpcd0uLPRcEJlR-39" value="&lt;u&gt;- position: int&lt;br&gt;&lt;/u&gt;&lt;u style=&quot;border-color: var(--border-color);&quot;&gt;- nickname: String&lt;/u&gt;&lt;br&gt;- points: int&lt;br&gt;- temporaryTiles: ArrayList&amp;lt;Tile&amp;gt;&amp;nbsp;&amp;nbsp;&lt;br&gt;- commonGoalRedeemed: ArrayList&amp;lt;Boolean&amp;gt;&lt;br&gt;- personalGoal: PersonalGoal&lt;br&gt;- shelf: Shelf" style="text;strokeColor=none;fillColor=none;align=left;verticalAlign=top;spacingLeft=4;spacingRight=4;overflow=hidden;rotatable=0;points=[[0,0.5],[1,0.5]];portConstraint=eastwest;whiteSpace=wrap;html=1;" parent="Mxky3zlpcd0uLPRcEJlR-38" vertex="1">
          <mxGeometry y="26" width="350" height="114" as="geometry" />
        </mxCell>
        <mxCell id="Mxky3zlpcd0uLPRcEJlR-40" value="" style="line;strokeWidth=1;fillColor=none;align=left;verticalAlign=middle;spacingTop=-1;spacingLeft=3;spacingRight=3;rotatable=0;labelPosition=right;points=[];portConstraint=eastwest;strokeColor=inherit;" parent="Mxky3zlpcd0uLPRcEJlR-38" vertex="1">
          <mxGeometry y="140" width="350" height="8" as="geometry" />
        </mxCell>
        <mxCell id="Mxky3zlpcd0uLPRcEJlR-41" value="+ getPosition(): int&lt;br&gt;+ getNickname(): String&lt;br&gt;+ getPoints(): int&lt;br&gt;+ getShelf(): Shelf&lt;br&gt;+ getPersonalGoal(): PersonalGoal&lt;br&gt;+ getTemporaryTiles(): arraylist&amp;lt;Tile&amp;gt;&lt;br&gt;+ isCommonGoalRedeemed(int): boolean&lt;br&gt;+ setShelf(Shelf): void&lt;br style=&quot;border-color: var(--border-color);&quot;&gt;+ setPoints(int): void&lt;br style=&quot;border-color: var(--border-color);&quot;&gt;+ setPersonalGoal(PersonalGoal): void&lt;br&gt;+ setCommonGoalRedeemed(Boolean, int): void&lt;br&gt;+ setTemporaryTiles(arrayList&amp;lt;Tile&amp;gt;): void&lt;br&gt;+ addTemporaryTile(Tile): void&lt;br style=&quot;border-color: var(--border-color);&quot;&gt;+ selectTemporaryTile(int): Tile&lt;br&gt;+ tryPersonalGoal(): PersonalGoal&lt;br&gt;+ removeTemporaryTile(Tile): void&lt;br&gt;+ clearTemporaryTiles(): void" style="text;strokeColor=none;fillColor=none;align=left;verticalAlign=top;spacingLeft=4;spacingRight=4;overflow=hidden;rotatable=0;points=[[0,0.5],[1,0.5]];portConstraint=eastwest;whiteSpace=wrap;html=1;" parent="Mxky3zlpcd0uLPRcEJlR-38" vertex="1">
          <mxGeometry y="148" width="350" height="262" as="geometry" />
        </mxCell>
        <mxCell id="Mxky3zlpcd0uLPRcEJlR-42" value="" style="endArrow=diamondThin;endFill=1;html=1;edgeStyle=orthogonalEdgeStyle;align=left;verticalAlign=top;rounded=0;exitX=0.5;exitY=0;exitDx=0;exitDy=0;entryX=0.549;entryY=1.006;entryDx=0;entryDy=0;entryPerimeter=0;" parent="1" source="Mxky3zlpcd0uLPRcEJlR-38" target="Mxky3zlpcd0uLPRcEJlR-4" edge="1">
          <mxGeometry x="-0.913" y="-5" relative="1" as="geometry">
            <mxPoint x="420" y="240" as="sourcePoint" />
            <mxPoint x="464" y="350" as="targetPoint" />
            <mxPoint as="offset" />
            <Array as="points">
              <mxPoint x="475" y="400" />
              <mxPoint x="474" y="400" />
            </Array>
          </mxGeometry>
        </mxCell>
        <mxCell id="Mxky3zlpcd0uLPRcEJlR-43" value="2...4" style="edgeLabel;resizable=0;html=1;align=left;verticalAlign=bottom;" parent="Mxky3zlpcd0uLPRcEJlR-42" connectable="0" vertex="1">
          <mxGeometry x="-1" relative="1" as="geometry" />
        </mxCell>
        <mxCell id="Z1P8TGeqZuuGpUr6qu0I-5" value="&lt;p style=&quot;margin:0px;margin-top:4px;text-align:center;&quot;&gt;&lt;i&gt;&amp;lt;&amp;lt;Enumeration&amp;gt;&amp;gt;&lt;/i&gt;&lt;/p&gt;&lt;p style=&quot;margin:0px;margin-top:4px;text-align:center;&quot;&gt;&lt;i&gt;&lt;b&gt;TilesEnum&lt;/b&gt;&lt;/i&gt;&lt;br&gt;&lt;/p&gt;&lt;p style=&quot;margin:0px;margin-left:4px;&quot;&gt;&amp;nbsp;CATS&lt;/p&gt;&lt;p style=&quot;margin:0px;margin-left:4px;&quot;&gt;&amp;nbsp;BOOKS&lt;/p&gt;&lt;p style=&quot;margin:0px;margin-left:4px;&quot;&gt;&amp;nbsp;GAMES&lt;/p&gt;&lt;p style=&quot;margin:0px;margin-left:4px;&quot;&gt;&amp;nbsp;FRAMES&lt;/p&gt;&lt;p style=&quot;margin:0px;margin-left:4px;&quot;&gt;&amp;nbsp;TROPHIES&lt;/p&gt;&lt;p style=&quot;margin:0px;margin-left:4px;&quot;&gt;&amp;nbsp;PLANTS&lt;/p&gt;&lt;p style=&quot;margin:0px;margin-left:4px;&quot;&gt;&amp;nbsp;EMPTY&lt;/p&gt;&lt;p style=&quot;margin:0px;margin-left:4px;&quot;&gt;&amp;nbsp;UNUSED&lt;/p&gt;" style="verticalAlign=top;align=left;overflow=fill;fontSize=12;fontFamily=Helvetica;html=1;whiteSpace=wrap;" parent="1" vertex="1">
          <mxGeometry x="-320" y="450" width="170" height="160" as="geometry" />
        </mxCell>
        <mxCell id="EzJUuA46leq047YBjK1z-2" value="Model" style="text;html=1;strokeColor=none;fillColor=none;align=center;verticalAlign=middle;whiteSpace=wrap;rounded=0;" parent="1" vertex="1">
          <mxGeometry x="-310" y="-200" width="30" height="10" as="geometry" />
        </mxCell>
        <mxCell id="AMuZGpQVMHgPtwnpilzj-1" value="Bag" style="swimlane;fontStyle=1;align=center;verticalAlign=top;childLayout=stackLayout;horizontal=1;startSize=26;horizontalStack=0;resizeParent=1;resizeParentMax=0;resizeLast=0;collapsible=1;marginBottom=0;whiteSpace=wrap;html=1;" parent="1" vertex="1">
          <mxGeometry x="710" y="530" width="160" height="130" as="geometry" />
        </mxCell>
        <mxCell id="AMuZGpQVMHgPtwnpilzj-2" value="- bag: ArrayList&amp;lt;Tile&amp;gt;" style="text;strokeColor=none;fillColor=none;align=left;verticalAlign=top;spacingLeft=4;spacingRight=4;overflow=hidden;rotatable=0;points=[[0,0.5],[1,0.5]];portConstraint=eastwest;whiteSpace=wrap;html=1;" parent="AMuZGpQVMHgPtwnpilzj-1" vertex="1">
          <mxGeometry y="26" width="160" height="26" as="geometry" />
        </mxCell>
        <mxCell id="AMuZGpQVMHgPtwnpilzj-3" value="" style="line;strokeWidth=1;fillColor=none;align=left;verticalAlign=middle;spacingTop=-1;spacingLeft=3;spacingRight=3;rotatable=0;labelPosition=right;points=[];portConstraint=eastwest;strokeColor=inherit;" parent="AMuZGpQVMHgPtwnpilzj-1" vertex="1">
          <mxGeometry y="52" width="160" height="8" as="geometry" />
        </mxCell>
        <mxCell id="AMuZGpQVMHgPtwnpilzj-4" value="+ getBagSize(): int&lt;br&gt;+ getBag(): ArrayList&amp;lt;Tile&amp;gt;&lt;br style=&quot;border-color: var(--border-color);&quot;&gt;+ pop(): Tiles&lt;br&gt;+ clone(): Object" style="text;strokeColor=none;fillColor=none;align=left;verticalAlign=top;spacingLeft=4;spacingRight=4;overflow=hidden;rotatable=0;points=[[0,0.5],[1,0.5]];portConstraint=eastwest;whiteSpace=wrap;html=1;" parent="AMuZGpQVMHgPtwnpilzj-1" vertex="1">
          <mxGeometry y="60" width="160" height="70" as="geometry" />
        </mxCell>
        <mxCell id="AMuZGpQVMHgPtwnpilzj-5" value="" style="endArrow=diamondThin;endFill=1;html=1;edgeStyle=orthogonalEdgeStyle;align=left;verticalAlign=top;rounded=0;exitX=0;exitY=0.5;exitDx=0;exitDy=0;" parent="1" source="AMuZGpQVMHgPtwnpilzj-2" edge="1">
          <mxGeometry x="-1" relative="1" as="geometry">
            <mxPoint x="500" y="310" as="sourcePoint" />
            <mxPoint x="740" y="140" as="targetPoint" />
            <Array as="points">
              <mxPoint x="700" y="569" />
              <mxPoint x="700" y="140" />
            </Array>
          </mxGeometry>
        </mxCell>
        <mxCell id="AMuZGpQVMHgPtwnpilzj-6" value="1" style="edgeLabel;resizable=0;html=1;align=left;verticalAlign=bottom;" parent="AMuZGpQVMHgPtwnpilzj-5" connectable="0" vertex="1">
          <mxGeometry x="-1" relative="1" as="geometry">
            <mxPoint x="-10" as="offset" />
          </mxGeometry>
        </mxCell>
        <mxCell id="mHvKu2w7ndSmzs79eD4w-6" value="Chat" style="swimlane;fontStyle=1;align=center;verticalAlign=top;childLayout=stackLayout;horizontal=1;startSize=26;horizontalStack=0;resizeParent=1;resizeParentMax=0;resizeLast=0;collapsible=1;marginBottom=0;whiteSpace=wrap;html=1;" parent="1" vertex="1">
          <mxGeometry x="-320" y="-140" width="210" height="130" as="geometry" />
        </mxCell>
        <mxCell id="mHvKu2w7ndSmzs79eD4w-7" value="- chat: ArrayList&amp;lt;Message&amp;gt;" style="text;strokeColor=none;fillColor=none;align=left;verticalAlign=top;spacingLeft=4;spacingRight=4;overflow=hidden;rotatable=0;points=[[0,0.5],[1,0.5]];portConstraint=eastwest;whiteSpace=wrap;html=1;" parent="mHvKu2w7ndSmzs79eD4w-6" vertex="1">
          <mxGeometry y="26" width="210" height="26" as="geometry" />
        </mxCell>
        <mxCell id="mHvKu2w7ndSmzs79eD4w-8" value="" style="line;strokeWidth=1;fillColor=none;align=left;verticalAlign=middle;spacingTop=-1;spacingLeft=3;spacingRight=3;rotatable=0;labelPosition=right;points=[];portConstraint=eastwest;strokeColor=inherit;" parent="mHvKu2w7ndSmzs79eD4w-6" vertex="1">
          <mxGeometry y="52" width="210" height="8" as="geometry" />
        </mxCell>
        <mxCell id="mHvKu2w7ndSmzs79eD4w-9" value="+ addChatLog(Message): void&lt;br&gt;+getChat(): ArrayList&amp;lt;Message&amp;gt;" style="text;strokeColor=none;fillColor=none;align=left;verticalAlign=top;spacingLeft=4;spacingRight=4;overflow=hidden;rotatable=0;points=[[0,0.5],[1,0.5]];portConstraint=eastwest;whiteSpace=wrap;html=1;" parent="mHvKu2w7ndSmzs79eD4w-6" vertex="1">
          <mxGeometry y="60" width="210" height="70" as="geometry" />
        </mxCell>
        <mxCell id="mHvKu2w7ndSmzs79eD4w-10" value="" style="endArrow=diamondThin;endFill=1;html=1;edgeStyle=orthogonalEdgeStyle;align=left;verticalAlign=top;rounded=0;exitX=1;exitY=0.5;exitDx=0;exitDy=0;" parent="1" edge="1">
          <mxGeometry x="-1" relative="1" as="geometry">
            <mxPoint x="-110" y="-100.5" as="sourcePoint" />
            <mxPoint x="260" y="-49.5" as="targetPoint" />
            <mxPoint as="offset" />
            <Array as="points">
              <mxPoint x="75" y="-100.5" />
              <mxPoint x="75" y="-99.5" />
              <mxPoint x="240" y="-99.5" />
              <mxPoint x="240" y="-49.5" />
            </Array>
          </mxGeometry>
        </mxCell>
        <mxCell id="mHvKu2w7ndSmzs79eD4w-11" value="1" style="edgeLabel;resizable=0;html=1;align=left;verticalAlign=bottom;" parent="mHvKu2w7ndSmzs79eD4w-10" connectable="0" vertex="1">
          <mxGeometry x="-1" relative="1" as="geometry" />
        </mxCell>
        <mxCell id="3VdPLMrZcKA6GoJQrmLX-1" value="" style="shape=folder;fontStyle=1;spacingTop=10;tabWidth=60;tabHeight=30;tabPosition=left;html=1;whiteSpace=wrap;fillColor=none;" parent="1" vertex="1">
          <mxGeometry x="-514" y="-1740" width="530" height="1340" as="geometry" />
        </mxCell>
        <mxCell id="3VdPLMrZcKA6GoJQrmLX-2" value="Controller" style="text;html=1;strokeColor=none;fillColor=none;align=center;verticalAlign=middle;whiteSpace=wrap;rounded=0;" parent="1" vertex="1">
          <mxGeometry x="-514" y="-1740" width="60" height="30" as="geometry" />
        </mxCell>
        <mxCell id="LTxgpxZo_bc8f6A4X1VT-23" style="edgeStyle=orthogonalEdgeStyle;rounded=0;orthogonalLoop=1;jettySize=auto;html=1;exitX=1;exitY=0.75;exitDx=0;exitDy=0;entryX=0.006;entryY=0.105;entryDx=0;entryDy=0;entryPerimeter=0;endArrow=diamondThin;endFill=1;" edge="1" parent="1" source="3VdPLMrZcKA6GoJQrmLX-12" target="1AL47Ae-udw0xNspE_Op-10">
          <mxGeometry relative="1" as="geometry">
            <Array as="points">
              <mxPoint x="6" y="-865" />
            </Array>
          </mxGeometry>
        </mxCell>
        <mxCell id="3VdPLMrZcKA6GoJQrmLX-12" value="&lt;p style=&quot;margin:0px;margin-top:4px;text-align:center;&quot;&gt;&lt;b&gt;Engine&lt;/b&gt;&lt;/p&gt;&lt;hr size=&quot;1&quot;&gt;&lt;p style=&quot;margin:0px;margin-left:4px;&quot;&gt;&lt;span style=&quot;background-color: initial;&quot;&gt;- clientObserverHashMap: HashMap&amp;lt;Client, Observer&amp;lt;Game, ResponseMessage&amp;gt;&amp;gt;&lt;/span&gt;&lt;br&gt;&lt;/p&gt;&lt;p style=&quot;margin:0px;margin-left:4px;&quot;&gt;- client_ID: OneToOneHashmap&amp;lt;Client, String&amp;gt;&lt;/p&gt;&lt;p style=&quot;margin:0px;margin-left:4px;&quot;&gt;- ID_Nicks: OneToOneHashmap&amp;lt;String, String&amp;gt;&lt;br&gt;&lt;/p&gt;&lt;p style=&quot;margin:0px;margin-left:4px;&quot;&gt;- counter: int&lt;/p&gt;&lt;p style=&quot;margin:0px;margin-left:4px;&quot;&gt;- freeNamesUsedInLastGame: ArrayList&amp;lt;String&amp;gt;&lt;/p&gt;&lt;p style=&quot;margin:0px;margin-left:4px;&quot;&gt;- loadFromFile: boolean&lt;/p&gt;&lt;p style=&quot;margin:0px;margin-left:4px;&quot;&gt;- playerReconnect: boolean&lt;/p&gt;&lt;p style=&quot;margin:0px;margin-left:4px;&quot;&gt;- firstClient: String&lt;/p&gt;&lt;p style=&quot;margin:0px;margin-left:4px;&quot;&gt;- IDToKill: ArrayList&amp;lt;String&amp;gt;&lt;/p&gt;&lt;p style=&quot;margin:0px;margin-left:4px;&quot;&gt;- optionChoosed: boolean&lt;/p&gt;&lt;hr size=&quot;1&quot;&gt;&lt;p style=&quot;margin:0px;margin-left:4px;&quot;&gt;+ getOptionChoosed(): boolean&lt;/p&gt;&lt;p style=&quot;margin:0px;margin-left:4px;&quot;&gt;+ setOptionChoosed(boolean): void&lt;/p&gt;&lt;p style=&quot;margin:0px;margin-left:4px;&quot;&gt;+ getFreeNamesUsedInLastGame(): ArrayList&amp;lt;String&amp;gt;&lt;/p&gt;&lt;p style=&quot;margin:0px;margin-left:4px;&quot;&gt;+ getLoadFromFile(): boolean&lt;/p&gt;&lt;p style=&quot;margin:0px;margin-left:4px;&quot;&gt;+ getFirstClient(): String&lt;/p&gt;&lt;p style=&quot;margin:0px;margin-left:4px;&quot;&gt;+ getPlayerReconnection(): boolean&lt;/p&gt;&lt;p style=&quot;margin:0px;margin-left:4px;&quot;&gt;+ getClients_ID(): OneToOneHashmap&amp;lt;Client, String&amp;gt;&lt;/p&gt;&lt;p style=&quot;margin:0px;margin-left:4px;&quot;&gt;+ getID_Nicks(): OneToOneHashmap&amp;lt;String, String&amp;gt;&lt;/p&gt;&lt;p style=&quot;margin:0px;margin-left:4px;&quot;&gt;+ getClientObserverHashMap(): HashMap&amp;lt;Client, Observer&amp;lt;Game, ResponseMessage&amp;gt;&amp;gt;&lt;/p&gt;&lt;p style=&quot;margin:0px;margin-left:4px;&quot;&gt;+ getGame(): Game&lt;/p&gt;&lt;p style=&quot;margin:0px;margin-left:4px;&quot;&gt;+ getPlayerFromNickname(Sring): Player&lt;/p&gt;&lt;p style=&quot;margin:0px;margin-left:4px;&quot;&gt;+ saveFileFound(): boolean&lt;/p&gt;&lt;p style=&quot;margin:0px;margin-left:4px;&quot;&gt;+ retrieveGame(): Game&lt;/p&gt;&lt;p style=&quot;margin:0px;margin-left:4px;&quot;&gt;+ setGame(Game): void&lt;/p&gt;&lt;p style=&quot;margin:0px;margin-left:4px;&quot;&gt;+ getSaveGameStatus(): SaveGameStatus&lt;/p&gt;&lt;p style=&quot;margin:0px;margin-left:4px;&quot;&gt;+ setSaveGameStatus(SaveGameStatus): void&lt;/p&gt;&lt;p style=&quot;margin:0px;margin-left:4px;&quot;&gt;+ playerJoin(String): void&lt;br&gt;&lt;/p&gt;&lt;p style=&quot;margin:0px;margin-left:4px;&quot;&gt;+ smallJoin(String): void&lt;/p&gt;&lt;p style=&quot;margin:0px;margin-left:4px;&quot;&gt;- killingSpree(ArrayList&amp;lt;String&amp;gt;): void&lt;/p&gt;&lt;p style=&quot;margin:0px;margin-left:4px;&quot;&gt;+ startGame(): void&lt;/p&gt;&lt;p style=&quot;margin:0px;margin-left:4px;&quot;&gt;+ selectTiles(String, Point): void&lt;/p&gt;&lt;p style=&quot;margin:0px;margin-left:4px;&quot;&gt;+ deselectTiles(Point): void&lt;/p&gt;&lt;p style=&quot;margin:0px;margin-left:4px;&quot;&gt;- selectionPossible(): boolean&lt;/p&gt;&lt;p style=&quot;margin:0px;margin-left:4px;&quot;&gt;+ confirmSelectedTiles(String): void&lt;/p&gt;&lt;p style=&quot;margin:0px;margin-left:4px;&quot;&gt;+ selectColumn(String, Integer): void&lt;/p&gt;&lt;p style=&quot;margin:0px;margin-left:4px;&quot;&gt;- deselectColumn(): void&lt;/p&gt;&lt;p style=&quot;margin:0px;margin-left:4px;&quot;&gt;- sendShelfAndTiles(String): void&lt;/p&gt;&lt;p style=&quot;margin:0px;margin-left:4px;&quot;&gt;+ placeTiles(String, Integer): void&lt;/p&gt;&lt;p style=&quot;margin:0px;margin-left:4px;&quot;&gt;+ chekcCommonGoals(): void&lt;br&gt;&lt;/p&gt;&lt;p style=&quot;margin:0px;margin-left:4px;&quot;&gt;+ sendResults(): void&lt;/p&gt;&lt;p style=&quot;margin:0px;margin-left:4px;&quot;&gt;+ checkPersonalGoal(): void&lt;br&gt;&lt;/p&gt;&lt;p style=&quot;margin:0px;margin-left:4px;&quot;&gt;- tileToTilesEnum(Shelf): TilesEnum[][]&lt;br&gt;&lt;/p&gt;&lt;p style=&quot;margin:0px;margin-left:4px;&quot;&gt;+ checkEndGameGoal(): void&lt;br&gt;&lt;/p&gt;&lt;p style=&quot;margin:0px;margin-left:4px;&quot;&gt;- costomShelfIterator(ArrayList&amp;lt;Point&amp;gt;, Shelf, boolean[][], TilesEnum, int, int): int&lt;br&gt;&lt;/p&gt;&lt;p style=&quot;margin:0px;margin-left:4px;&quot;&gt;+ endTurn(String, String): void&lt;br&gt;&lt;/p&gt;&lt;p style=&quot;margin:0px;margin-left:4px;&quot;&gt;+ waitFor10Seconds(): void&lt;/p&gt;&lt;p style=&quot;margin:0px;margin-left:4px;&quot;&gt;- dcEndTurn(String, String): void&lt;/p&gt;&lt;p style=&quot;margin:0px;margin-left:4px;&quot;&gt;+ endTurnForced(): void&lt;/p&gt;&lt;p style=&quot;margin:0px;margin-left:4px;&quot;&gt;+ checkEndGame(String, String): void&lt;/p&gt;&lt;p style=&quot;margin:0px;margin-left:4px;&quot;&gt;- fullShelf(Shelf): boolean&lt;/p&gt;&lt;p style=&quot;margin:0px;margin-left:4px;&quot;&gt;+ endGame(): void&lt;/p&gt;&lt;p style=&quot;margin:0px;margin-left:4px;&quot;&gt;+ sendChat(String, String): void&lt;/p&gt;&lt;p style=&quot;margin:0px;margin-left:4px;&quot;&gt;+ sayInChat(String, String, String, String): void&lt;/p&gt;&lt;p style=&quot;margin:0px;margin-left:4px;&quot;&gt;+ removeObserver(String, int): void&lt;/p&gt;&lt;p style=&quot;margin:0px;margin-left:4px;&quot;&gt;+ everlastingKill(): void&lt;/p&gt;&lt;p style=&quot;margin:0px;margin-left:4px;&quot;&gt;- invalidNickname(String)&lt;/p&gt;&lt;p style=&quot;margin:0px;margin-left:4px;&quot;&gt;- getInactivePlayers(): ArrayList&amp;lt;Player&amp;gt;&lt;/p&gt;&lt;p style=&quot;margin:0px;margin-left:4px;&quot;&gt;- getActivePlayers(): ArrayList&amp;lt;Player&amp;gt;&lt;/p&gt;&lt;p style=&quot;margin:0px;margin-left:4px;&quot;&gt;+ fillBoard(): void&lt;/p&gt;&lt;p style=&quot;margin:0px;margin-left:4px;&quot;&gt;- isBoardValid(): boolean&lt;/p&gt;&lt;p style=&quot;margin:0px;margin-left:4px;&quot;&gt;-isEmptyOrUnusedBoard(int, int): boolean&lt;/p&gt;&lt;p style=&quot;margin:0px;margin-left:4px;&quot;&gt;- setGameFromSave(Game): void&lt;/p&gt;&lt;p style=&quot;margin:0px;margin-left:4px;&quot;&gt;+ initializeFromSave(String): void&lt;/p&gt;&lt;p style=&quot;margin:0px;margin-left:4px;&quot;&gt;- askLoadGame(String): void&lt;/p&gt;&lt;p style=&quot;margin:0px;margin-left:4px;&quot;&gt;- loadFromFile(String, String): void&lt;/p&gt;&lt;p style=&quot;margin:0px;margin-left:4px;&quot;&gt;- initializePlayer(SerializableInput): void&lt;/p&gt;&lt;p style=&quot;margin:0px;margin-left:4px;&quot;&gt;+ setIsActiveFromClient(Client, Boolean): void&lt;/p&gt;&lt;p style=&quot;margin:0px;margin-left:4px;&quot;&gt;+getNickFromClient(Client): String&lt;/p&gt;&lt;p style=&quot;margin:0px;margin-left:4px;&quot;&gt;+ takeNick(SerializableInput): void&lt;/p&gt;&lt;p style=&quot;margin:0px;margin-left:4px;&quot;&gt;- askNumOfPlayers(String): void&lt;/p&gt;&lt;p style=&quot;margin:0px;margin-left:4px;&quot;&gt;+ Connect(String): void&lt;/p&gt;&lt;p style=&quot;margin:0px;margin-left:4px;&quot;&gt;- startGameFromFile(): void&lt;/p&gt;&lt;p style=&quot;margin:0px;margin-left:4px;&quot;&gt;+ setNumberOfPlayers(int, String): void&lt;/p&gt;&lt;p style=&quot;margin:0px;margin-left:4px;&quot;&gt;+ boardTransfer(String): void&lt;/p&gt;&lt;p style=&quot;margin:0px;margin-left:4px;&quot;&gt;+ shelfTransfer(String, String): void&lt;/p&gt;&lt;p style=&quot;margin:0px;margin-left:4px;&quot;&gt;+ shelfTransferAll(String ID): void&lt;/p&gt;&lt;p style=&quot;margin:0px;margin-left:4px;&quot;&gt;+ personalGoalTransfer(String, String): void&lt;/p&gt;&lt;p style=&quot;margin:0px;margin-left:4px;&quot;&gt;+ temporaryTilesTransfer(String): void&lt;/p&gt;&lt;p style=&quot;margin:0px;margin-left:4px;&quot;&gt;+ commonGoalTransfer(String): void&lt;/p&gt;&lt;p style=&quot;margin:0px;margin-left:4px;&quot;&gt;+ currentPlayerTransfer(String): void&lt;/p&gt;&lt;p style=&quot;margin:0px;margin-left:4px;&quot;&gt;+ reconnectionCheck(String): void&lt;/p&gt;&lt;p style=&quot;margin:0px;margin-left:4px;&quot;&gt;+ notActive(SerializableInput): void&lt;/p&gt;&lt;p style=&quot;margin:0px;margin-left:4px;&quot;&gt;- randomColors(): HashMap&amp;lt;String, String&amp;gt;&lt;/p&gt;&lt;p style=&quot;margin:0px;margin-left:4px;&quot;&gt;&lt;br&gt;&lt;/p&gt;&lt;p style=&quot;margin:0px;margin-left:4px;&quot;&gt;&lt;br&gt;&lt;/p&gt;" style="verticalAlign=top;align=left;overflow=fill;fontSize=12;fontFamily=Helvetica;html=1;whiteSpace=wrap;fillColor=none;" parent="1" vertex="1">
          <mxGeometry x="-504" y="-1690" width="510" height="1270" as="geometry" />
        </mxCell>
        <mxCell id="9U84HWBfrnvw68wfZRjt-1" value="Uses" style="endArrow=open;endSize=12;dashed=1;html=1;rounded=0;exitX=0.045;exitY=0.023;exitDx=0;exitDy=0;exitPerimeter=0;entryX=0.264;entryY=0.997;entryDx=0;entryDy=0;entryPerimeter=0;" parent="1" source="EzJUuA46leq047YBjK1z-1" target="3VdPLMrZcKA6GoJQrmLX-1" edge="1">
          <mxGeometry x="0.2308" width="160" relative="1" as="geometry">
            <mxPoint x="-280" y="-70" as="sourcePoint" />
            <mxPoint x="315" y="-340" as="targetPoint" />
            <Array as="points" />
            <mxPoint as="offset" />
          </mxGeometry>
        </mxCell>
        <mxCell id="LTxgpxZo_bc8f6A4X1VT-14" style="edgeStyle=orthogonalEdgeStyle;rounded=0;orthogonalLoop=1;jettySize=auto;html=1;exitX=0.25;exitY=0;exitDx=0;exitDy=0;entryX=0.904;entryY=1.001;entryDx=0;entryDy=0;entryPerimeter=0;endArrow=diamondThin;endFill=1;" edge="1" parent="1" source="7OJYqAJJIA7WfqFcGEee-1" target="3VdPLMrZcKA6GoJQrmLX-12">
          <mxGeometry relative="1" as="geometry">
            <Array as="points">
              <mxPoint x="810" y="-220" />
              <mxPoint x="-43" y="-220" />
            </Array>
          </mxGeometry>
        </mxCell>
        <mxCell id="7OJYqAJJIA7WfqFcGEee-1" value="SaveGameStatus" style="swimlane;fontStyle=1;align=center;verticalAlign=top;childLayout=stackLayout;horizontal=1;startSize=26;horizontalStack=0;resizeParent=1;resizeParentMax=0;resizeLast=0;collapsible=1;marginBottom=0;whiteSpace=wrap;html=1;" parent="1" vertex="1">
          <mxGeometry x="720" y="-130" width="360" height="120" as="geometry" />
        </mxCell>
        <mxCell id="7OJYqAJJIA7WfqFcGEee-2" value="- game: Game&lt;br&gt;- filepath: String" style="text;strokeColor=none;fillColor=none;align=left;verticalAlign=top;spacingLeft=4;spacingRight=4;overflow=hidden;rotatable=0;points=[[0,0.5],[1,0.5]];portConstraint=eastwest;whiteSpace=wrap;html=1;" parent="7OJYqAJJIA7WfqFcGEee-1" vertex="1">
          <mxGeometry y="26" width="360" height="34" as="geometry" />
        </mxCell>
        <mxCell id="7OJYqAJJIA7WfqFcGEee-3" value="" style="line;strokeWidth=1;fillColor=none;align=left;verticalAlign=middle;spacingTop=-1;spacingLeft=3;spacingRight=3;rotatable=0;labelPosition=right;points=[];portConstraint=eastwest;strokeColor=inherit;" parent="7OJYqAJJIA7WfqFcGEee-1" vertex="1">
          <mxGeometry y="60" width="360" height="8" as="geometry" />
        </mxCell>
        <mxCell id="7OJYqAJJIA7WfqFcGEee-4" value="+ gameToJson(): String&lt;br&gt;+ saveGame(): void&lt;br&gt;+ retrieveGame(): Game" style="text;strokeColor=none;fillColor=none;align=left;verticalAlign=top;spacingLeft=4;spacingRight=4;overflow=hidden;rotatable=0;points=[[0,0.5],[1,0.5]];portConstraint=eastwest;whiteSpace=wrap;html=1;" parent="7OJYqAJJIA7WfqFcGEee-1" vertex="1">
          <mxGeometry y="68" width="360" height="52" as="geometry" />
        </mxCell>
        <mxCell id="zbtttQC591RZSIthjDI6-1" value="2" style="text;html=1;strokeColor=none;fillColor=none;align=center;verticalAlign=middle;whiteSpace=wrap;rounded=0;" parent="1" vertex="1">
          <mxGeometry x="1590" y="640" width="60" height="30" as="geometry" />
        </mxCell>
        <mxCell id="zbtttQC591RZSIthjDI6-6" value="Tile" style="swimlane;fontStyle=1;align=center;verticalAlign=top;childLayout=stackLayout;horizontal=1;startSize=26;horizontalStack=0;resizeParent=1;resizeParentMax=0;resizeLast=0;collapsible=1;marginBottom=0;whiteSpace=wrap;html=1;" parent="1" vertex="1">
          <mxGeometry x="-320" y="304" width="160" height="110" as="geometry" />
        </mxCell>
        <mxCell id="zbtttQC591RZSIthjDI6-7" value="&lt;u&gt;- tile: TilesEnum&lt;br&gt;- imageNumber: int&lt;/u&gt;" style="text;strokeColor=none;fillColor=none;align=left;verticalAlign=top;spacingLeft=4;spacingRight=4;overflow=hidden;rotatable=0;points=[[0,0.5],[1,0.5]];portConstraint=eastwest;whiteSpace=wrap;html=1;" parent="zbtttQC591RZSIthjDI6-6" vertex="1">
          <mxGeometry y="26" width="160" height="34" as="geometry" />
        </mxCell>
        <mxCell id="zbtttQC591RZSIthjDI6-8" value="" style="line;strokeWidth=1;fillColor=none;align=left;verticalAlign=middle;spacingTop=-1;spacingLeft=3;spacingRight=3;rotatable=0;labelPosition=right;points=[];portConstraint=eastwest;strokeColor=inherit;" parent="zbtttQC591RZSIthjDI6-6" vertex="1">
          <mxGeometry y="60" width="160" height="8" as="geometry" />
        </mxCell>
        <mxCell id="zbtttQC591RZSIthjDI6-9" value="+ getTile(): TilesEnum&lt;br&gt;+ getImageNumber(): int" style="text;strokeColor=none;fillColor=none;align=left;verticalAlign=top;spacingLeft=4;spacingRight=4;overflow=hidden;rotatable=0;points=[[0,0.5],[1,0.5]];portConstraint=eastwest;whiteSpace=wrap;html=1;" parent="zbtttQC591RZSIthjDI6-6" vertex="1">
          <mxGeometry y="68" width="160" height="42" as="geometry" />
        </mxCell>
        <mxCell id="9WpMfCR_n4XsZXEiZ-4h-3" value="&lt;font style=&quot;font-size: 12px;&quot;&gt;CommonGoals&lt;/font&gt;" style="text;strokeColor=none;fillColor=none;html=1;fontSize=24;fontStyle=1;verticalAlign=middle;align=center;" parent="1" vertex="1">
          <mxGeometry x="1120" y="540" width="100" height="40" as="geometry" />
        </mxCell>
        <mxCell id="o77QHmqQmNkal7PHkD5_-2" value="1" style="text;html=1;strokeColor=none;fillColor=none;align=center;verticalAlign=middle;whiteSpace=wrap;rounded=0;" parent="1" vertex="1">
          <mxGeometry x="1754" y="740" width="20" height="10" as="geometry" />
        </mxCell>
        <mxCell id="_N1UwID_5jC3FNQXrJoQ-82" style="edgeStyle=orthogonalEdgeStyle;rounded=0;orthogonalLoop=1;jettySize=auto;html=1;exitX=1;exitY=0.5;exitDx=0;exitDy=0;entryX=0;entryY=0.5;entryDx=0;entryDy=0;endArrow=diamondThin;endFill=1;" parent="1" source="Mxky3zlpcd0uLPRcEJlR-2" target="7OJYqAJJIA7WfqFcGEee-1" edge="1">
          <mxGeometry relative="1" as="geometry" />
        </mxCell>
        <mxCell id="XnbRa7-TdVYX6gBNCO99-1" value="&lt;p style=&quot;margin:0px;margin-top:4px;text-align:center;&quot;&gt;&lt;b&gt;Message&lt;/b&gt;&lt;/p&gt;&lt;hr size=&quot;1&quot;&gt;&lt;p style=&quot;margin:0px;margin-left:4px;&quot;&gt;- sender: Player&lt;br&gt;- content: String&lt;/p&gt;&lt;p style=&quot;margin:0px;margin-left:4px;&quot;&gt;- recipients: ArrayList&amp;lt;Player&amp;gt;&lt;/p&gt;&lt;hr size=&quot;1&quot;&gt;&lt;p style=&quot;margin:0px;margin-left:4px;&quot;&gt;+&amp;nbsp;setRecipients (ArrayList&amp;lt;Player&amp;gt;&lt;span style=&quot;background-color: initial;&quot;&gt;): void&lt;/span&gt;&lt;/p&gt;&lt;p style=&quot;margin:0px;margin-left:4px;&quot;&gt;+&amp;nbsp;getContent&lt;span style=&quot;background-color: initial;&quot;&gt;(): String&lt;/span&gt;&lt;/p&gt;&lt;p style=&quot;margin:0px;margin-left:4px;&quot;&gt;&lt;span style=&quot;background-color: initial;&quot;&gt;+&amp;nbsp;&lt;/span&gt;getRecipients(): ArrayList&amp;lt;Player&amp;gt;&lt;/p&gt;&lt;p style=&quot;margin:0px;margin-left:4px;&quot;&gt;+&amp;nbsp;getSender(): Player&lt;/p&gt;" style="verticalAlign=top;align=left;overflow=fill;fontSize=12;fontFamily=Helvetica;html=1;whiteSpace=wrap;" parent="1" vertex="1">
          <mxGeometry x="-220" y="80" width="250" height="150" as="geometry" />
        </mxCell>
        <mxCell id="XnbRa7-TdVYX6gBNCO99-4" value="" style="endArrow=diamondThin;endFill=1;html=1;edgeStyle=orthogonalEdgeStyle;align=left;verticalAlign=top;rounded=0;entryX=1.002;entryY=0.285;entryDx=0;entryDy=0;entryPerimeter=0;" parent="1" target="XnbRa7-TdVYX6gBNCO99-1" edge="1">
          <mxGeometry x="-1" relative="1" as="geometry">
            <mxPoint x="300" y="530" as="sourcePoint" />
            <mxPoint x="-0.020000000000003126" y="140" as="targetPoint" />
            <Array as="points">
              <mxPoint x="230" y="530" />
              <mxPoint x="230" y="123" />
            </Array>
          </mxGeometry>
        </mxCell>
        <mxCell id="XnbRa7-TdVYX6gBNCO99-6" value="" style="endArrow=diamondThin;endFill=1;html=1;edgeStyle=orthogonalEdgeStyle;align=left;verticalAlign=top;rounded=0;exitX=0.5;exitY=0;exitDx=0;exitDy=0;" parent="1" source="XnbRa7-TdVYX6gBNCO99-1" edge="1">
          <mxGeometry x="-1" relative="1" as="geometry">
            <mxPoint x="330" y="60" as="sourcePoint" />
            <mxPoint x="-110" y="-90" as="targetPoint" />
            <Array as="points">
              <mxPoint x="-90" y="80" />
              <mxPoint x="-90" y="-90" />
            </Array>
          </mxGeometry>
        </mxCell>
        <mxCell id="XnbRa7-TdVYX6gBNCO99-7" value="0...n" style="edgeLabel;resizable=0;html=1;align=left;verticalAlign=bottom;" parent="XnbRa7-TdVYX6gBNCO99-6" connectable="0" vertex="1">
          <mxGeometry x="-1" relative="1" as="geometry">
            <mxPoint x="15" y="-4" as="offset" />
          </mxGeometry>
        </mxCell>
        <mxCell id="Bs_YzykeCiTkUcpEXx2v-7" style="edgeStyle=orthogonalEdgeStyle;rounded=0;orthogonalLoop=1;jettySize=auto;html=1;exitX=0.5;exitY=0;exitDx=0;exitDy=0;entryX=0.48;entryY=1;entryDx=0;entryDy=0;entryPerimeter=0;endArrow=diamondThin;endFill=1;" parent="1" source="Bs_YzykeCiTkUcpEXx2v-1" target="Mxky3zlpcd0uLPRcEJlR-34" edge="1">
          <mxGeometry relative="1" as="geometry" />
        </mxCell>
        <mxCell id="Bs_YzykeCiTkUcpEXx2v-1" value="&amp;lt;&amp;lt;Abstract Class&amp;gt;&amp;gt;&lt;br&gt;CommonGoalStrategy" style="swimlane;fontStyle=1;align=center;verticalAlign=top;childLayout=stackLayout;horizontal=1;startSize=40;horizontalStack=0;resizeParent=1;resizeParentMax=0;resizeLast=0;collapsible=1;marginBottom=0;whiteSpace=wrap;html=1;" parent="1" vertex="1">
          <mxGeometry x="1640" y="770" width="260" height="130" as="geometry" />
        </mxCell>
        <mxCell id="Bs_YzykeCiTkUcpEXx2v-2" value="# numObjects: int&lt;br&gt;# strategyCode: int" style="text;strokeColor=none;fillColor=default;align=left;verticalAlign=top;spacingLeft=4;spacingRight=4;overflow=hidden;rotatable=0;points=[[0,0.5],[1,0.5]];portConstraint=eastwest;whiteSpace=wrap;html=1;" parent="Bs_YzykeCiTkUcpEXx2v-1" vertex="1">
          <mxGeometry y="40" width="260" height="40" as="geometry" />
        </mxCell>
        <mxCell id="Bs_YzykeCiTkUcpEXx2v-3" value="" style="line;strokeWidth=1;fillColor=default;align=left;verticalAlign=middle;spacingTop=-1;spacingLeft=3;spacingRight=3;rotatable=0;labelPosition=right;points=[];portConstraint=eastwest;strokeColor=inherit;" parent="Bs_YzykeCiTkUcpEXx2v-1" vertex="1">
          <mxGeometry y="80" width="260" height="8" as="geometry" />
        </mxCell>
        <mxCell id="Bs_YzykeCiTkUcpEXx2v-4" value="+ check(Shelf shelf): boolean&lt;br&gt;# differentTiles(ArrayList&amp;lt;TilesEnum&amp;gt; tiles): int" style="text;strokeColor=none;fillColor=default;align=left;verticalAlign=top;spacingLeft=4;spacingRight=4;overflow=hidden;rotatable=0;points=[[0,0.5],[1,0.5]];portConstraint=eastwest;whiteSpace=wrap;html=1;" parent="Bs_YzykeCiTkUcpEXx2v-1" vertex="1">
          <mxGeometry y="88" width="260" height="42" as="geometry" />
        </mxCell>
        <mxCell id="Bs_YzykeCiTkUcpEXx2v-16" style="edgeStyle=orthogonalEdgeStyle;rounded=0;orthogonalLoop=1;jettySize=auto;html=1;exitX=0.5;exitY=0;exitDx=0;exitDy=0;entryX=0.901;entryY=0.988;entryDx=0;entryDy=0;entryPerimeter=0;endArrow=block;endFill=0;" parent="1" source="Bs_YzykeCiTkUcpEXx2v-8" target="Bs_YzykeCiTkUcpEXx2v-4" edge="1">
          <mxGeometry relative="1" as="geometry" />
        </mxCell>
        <mxCell id="Bs_YzykeCiTkUcpEXx2v-8" value="&lt;p style=&quot;margin:0px;margin-top:4px;text-align:center;&quot;&gt;&lt;b&gt;Triangle&lt;/b&gt;&lt;/p&gt;&lt;hr size=&quot;1&quot;&gt;&lt;p style=&quot;margin:0px;margin-left:4px;&quot;&gt;&lt;br&gt;&lt;/p&gt;&lt;hr size=&quot;1&quot;&gt;&lt;p style=&quot;margin:0px;margin-left:4px;&quot;&gt;+ check(Shelf shelf): boolean&lt;br&gt;&lt;/p&gt;&lt;p style=&quot;margin:0px;margin-left:4px;&quot;&gt;- columnsHeights(Shelf shelf): int[]&lt;/p&gt;&lt;p style=&quot;margin:0px;margin-left:4px;&quot;&gt;- ascending(int height[]):&amp;nbsp; boolean&lt;/p&gt;&lt;p style=&quot;margin:0px;margin-left:4px;&quot;&gt;- descending(int height[]):&amp;nbsp; boolean&lt;br&gt;&lt;/p&gt;" style="verticalAlign=top;align=left;overflow=fill;fontSize=12;fontFamily=Helvetica;html=1;whiteSpace=wrap;" parent="1" vertex="1">
          <mxGeometry x="2215" y="950" width="295" height="120" as="geometry" />
        </mxCell>
        <mxCell id="Bs_YzykeCiTkUcpEXx2v-19" style="edgeStyle=orthogonalEdgeStyle;rounded=0;orthogonalLoop=1;jettySize=auto;html=1;exitX=0.5;exitY=0;exitDx=0;exitDy=0;entryX=0.425;entryY=0.988;entryDx=0;entryDy=0;entryPerimeter=0;endArrow=block;endFill=0;" parent="1" source="Bs_YzykeCiTkUcpEXx2v-9" target="Bs_YzykeCiTkUcpEXx2v-4" edge="1">
          <mxGeometry relative="1" as="geometry">
            <Array as="points">
              <mxPoint x="1575" y="1100" />
              <mxPoint x="1751" y="1100" />
            </Array>
          </mxGeometry>
        </mxCell>
        <mxCell id="Bs_YzykeCiTkUcpEXx2v-9" value="&lt;p style=&quot;margin:0px;margin-top:4px;text-align:center;&quot;&gt;&lt;b&gt;EdgesEightEquals&lt;/b&gt;&lt;/p&gt;&lt;hr size=&quot;1&quot;&gt;&lt;p style=&quot;margin:0px;margin-left:4px;&quot;&gt;- edge: boolean&lt;/p&gt;&lt;hr size=&quot;1&quot;&gt;&lt;p style=&quot;margin:0px;margin-left:4px;&quot;&gt;+ check(Shelf shelf): boolean&lt;br&gt;&lt;/p&gt;&lt;p style=&quot;margin:0px;margin-left:4px;&quot;&gt;- equalsCounter(Shelf shelf): boolean&lt;/p&gt;" style="verticalAlign=top;align=left;overflow=fill;fontSize=12;fontFamily=Helvetica;html=1;whiteSpace=wrap;" parent="1" vertex="1">
          <mxGeometry x="1470" y="1124" width="210" height="90" as="geometry" />
        </mxCell>
        <mxCell id="Bs_YzykeCiTkUcpEXx2v-18" style="edgeStyle=orthogonalEdgeStyle;rounded=0;orthogonalLoop=1;jettySize=auto;html=1;exitX=0.5;exitY=0;exitDx=0;exitDy=0;entryX=0.301;entryY=0.988;entryDx=0;entryDy=0;entryPerimeter=0;endArrow=block;endFill=0;" parent="1" source="Bs_YzykeCiTkUcpEXx2v-10" target="Bs_YzykeCiTkUcpEXx2v-4" edge="1">
          <mxGeometry relative="1" as="geometry">
            <Array as="points">
              <mxPoint x="1375" y="1090" />
              <mxPoint x="1718" y="1090" />
            </Array>
          </mxGeometry>
        </mxCell>
        <mxCell id="Bs_YzykeCiTkUcpEXx2v-10" value="&lt;p style=&quot;margin:0px;margin-top:4px;text-align:center;&quot;&gt;&lt;b&gt;Diagonal&lt;/b&gt;&lt;/p&gt;&lt;hr size=&quot;1&quot;&gt;&lt;p style=&quot;margin:0px;margin-left:4px;&quot;&gt;&lt;br&gt;&lt;/p&gt;&lt;hr size=&quot;1&quot;&gt;&lt;p style=&quot;margin:0px;margin-left:4px;&quot;&gt;+ check(Shelf shelf): boolean&lt;br&gt;&lt;/p&gt;" style="verticalAlign=top;align=left;overflow=fill;fontSize=12;fontFamily=Helvetica;html=1;whiteSpace=wrap;" parent="1" vertex="1">
          <mxGeometry x="1290" y="1124" width="170" height="90" as="geometry" />
        </mxCell>
        <mxCell id="Bs_YzykeCiTkUcpEXx2v-17" style="edgeStyle=orthogonalEdgeStyle;rounded=0;orthogonalLoop=1;jettySize=auto;html=1;exitX=0.5;exitY=0;exitDx=0;exitDy=0;entryX=0.191;entryY=1.01;entryDx=0;entryDy=0;entryPerimeter=0;endArrow=block;endFill=0;" parent="1" source="Bs_YzykeCiTkUcpEXx2v-11" target="Bs_YzykeCiTkUcpEXx2v-4" edge="1">
          <mxGeometry relative="1" as="geometry">
            <Array as="points">
              <mxPoint x="1200" y="1080" />
              <mxPoint x="1690" y="1080" />
            </Array>
          </mxGeometry>
        </mxCell>
        <mxCell id="Bs_YzykeCiTkUcpEXx2v-11" value="&lt;p style=&quot;margin:0px;margin-top:4px;text-align:center;&quot;&gt;&lt;b&gt;Cross&lt;/b&gt;&lt;/p&gt;&lt;hr size=&quot;1&quot;&gt;&lt;p style=&quot;margin:0px;margin-left:4px;&quot;&gt;&lt;br&gt;&lt;/p&gt;&lt;hr size=&quot;1&quot;&gt;&lt;p style=&quot;margin:0px;margin-left:4px;&quot;&gt;+ check(Shelf shelf): boolean&lt;br&gt;&lt;/p&gt;" style="verticalAlign=top;align=left;overflow=fill;fontSize=12;fontFamily=Helvetica;html=1;whiteSpace=wrap;" parent="1" vertex="1">
          <mxGeometry x="1120" y="1124" width="160" height="90" as="geometry" />
        </mxCell>
        <mxCell id="Bs_YzykeCiTkUcpEXx2v-20" style="edgeStyle=orthogonalEdgeStyle;rounded=0;orthogonalLoop=1;jettySize=auto;html=1;exitX=0.5;exitY=0;exitDx=0;exitDy=0;entryX=0.538;entryY=1;entryDx=0;entryDy=0;entryPerimeter=0;endArrow=block;endFill=0;" parent="1" source="Bs_YzykeCiTkUcpEXx2v-12" target="Bs_YzykeCiTkUcpEXx2v-4" edge="1">
          <mxGeometry relative="1" as="geometry">
            <Array as="points">
              <mxPoint x="1865" y="1090" />
              <mxPoint x="1780" y="1090" />
            </Array>
          </mxGeometry>
        </mxCell>
        <mxCell id="Bs_YzykeCiTkUcpEXx2v-12" value="&lt;p style=&quot;margin:0px;margin-top:4px;text-align:center;&quot;&gt;&lt;b&gt;RowColumn&lt;/b&gt;&lt;/p&gt;&lt;hr size=&quot;1&quot;&gt;&lt;p style=&quot;margin:0px;margin-left:4px;&quot;&gt;- diffTiles: int&lt;/p&gt;&lt;p style=&quot;margin:0px;margin-left:4px;&quot;&gt;- rowColumn: boolean&lt;/p&gt;&lt;hr size=&quot;1&quot;&gt;&lt;p style=&quot;margin:0px;margin-left:4px;&quot;&gt;+ check(Shelf shelf): boolean&lt;br&gt;&lt;/p&gt;&lt;p style=&quot;margin:0px;margin-left:4px;&quot;&gt;- shelfVerifier(int code, ArrayList&amp;lt;Integer&amp;gt; numDiffTiles): boolean&lt;/p&gt;&lt;p style=&quot;margin:0px;margin-left:4px;&quot;&gt;- rowColumnCounter(Shelf shelf): ArrayList&amp;lt;Integer&amp;gt;&lt;/p&gt;" style="verticalAlign=top;align=left;overflow=fill;fontSize=12;fontFamily=Helvetica;html=1;whiteSpace=wrap;" parent="1" vertex="1">
          <mxGeometry x="1690" y="1124" width="350" height="122" as="geometry" />
        </mxCell>
        <mxCell id="Bs_YzykeCiTkUcpEXx2v-21" style="edgeStyle=orthogonalEdgeStyle;rounded=0;orthogonalLoop=1;jettySize=auto;html=1;exitX=0.5;exitY=0;exitDx=0;exitDy=0;entryX=0.711;entryY=1.01;entryDx=0;entryDy=0;entryPerimeter=0;endArrow=block;endFill=0;" parent="1" source="Bs_YzykeCiTkUcpEXx2v-13" target="Bs_YzykeCiTkUcpEXx2v-4" edge="1">
          <mxGeometry relative="1" as="geometry">
            <Array as="points">
              <mxPoint x="2295" y="1080" />
              <mxPoint x="1825" y="1080" />
            </Array>
          </mxGeometry>
        </mxCell>
        <mxCell id="Bs_YzykeCiTkUcpEXx2v-13" value="&lt;p style=&quot;margin:0px;margin-top:4px;text-align:center;&quot;&gt;&lt;b&gt;Groups&lt;/b&gt;&lt;/p&gt;&lt;hr size=&quot;1&quot;&gt;&lt;p style=&quot;margin:0px;margin-left:4px;&quot;&gt;- groupDim: int&lt;/p&gt;&lt;p style=&quot;margin:0px;margin-left:4px;&quot;&gt;- coordinates: ArrayList&amp;lt;Point&amp;gt;&lt;/p&gt;&lt;hr size=&quot;1&quot;&gt;&lt;p style=&quot;margin:0px;margin-left:4px;&quot;&gt;+ check(Shelf shelf): boolean&lt;br&gt;&lt;/p&gt;&lt;p style=&quot;margin:0px;margin-left:4px;&quot;&gt;- customShelfIterator(Shelf shelf, boolean matrix[][], TilesEnum type, int row, int column): int&lt;/p&gt;" style="verticalAlign=top;align=left;overflow=fill;fontSize=12;fontFamily=Helvetica;html=1;whiteSpace=wrap;" parent="1" vertex="1">
          <mxGeometry x="2050" y="1124" width="490" height="110" as="geometry" />
        </mxCell>
        <mxCell id="Bs_YzykeCiTkUcpEXx2v-15" style="edgeStyle=orthogonalEdgeStyle;rounded=0;orthogonalLoop=1;jettySize=auto;html=1;exitX=0.5;exitY=0;exitDx=0;exitDy=0;entryX=0.081;entryY=1.01;entryDx=0;entryDy=0;entryPerimeter=0;endArrow=block;endFill=0;" parent="1" source="Bs_YzykeCiTkUcpEXx2v-14" target="Bs_YzykeCiTkUcpEXx2v-4" edge="1">
          <mxGeometry relative="1" as="geometry" />
        </mxCell>
        <mxCell id="Bs_YzykeCiTkUcpEXx2v-14" value="&lt;p style=&quot;margin:0px;margin-top:4px;text-align:center;&quot;&gt;&lt;b&gt;Square&lt;/b&gt;&lt;/p&gt;&lt;hr size=&quot;1&quot;&gt;&lt;p style=&quot;margin:0px;margin-left:4px;&quot;&gt;&lt;br&gt;&lt;/p&gt;&lt;hr size=&quot;1&quot;&gt;&lt;p style=&quot;margin:0px;margin-left:4px;&quot;&gt;+ check(Shelf shelf): boolean&lt;br&gt;&lt;/p&gt;&lt;p style=&quot;margin:0px;margin-left:4px;&quot;&gt;- insertCoords(ArrayList&amp;lt;Point&amp;gt; coordinates, int x, int y): void&lt;/p&gt;&lt;p style=&quot;margin:0px;margin-left:4px;&quot;&gt;- notContainsCoords(ArrayList&amp;lt;Point&amp;gt; coordinates, int x, int y): boolean&lt;/p&gt;&lt;p style=&quot;margin:0px;margin-left:4px;&quot;&gt;- isValidSquare(Shelf shelf, TilesEnum tileType, int x, int y): boolean&lt;/p&gt;" style="verticalAlign=top;align=left;overflow=fill;fontSize=12;fontFamily=Helvetica;html=1;whiteSpace=wrap;fillColor=default;" parent="1" vertex="1">
          <mxGeometry x="1180" y="950" width="390" height="120" as="geometry" />
        </mxCell>
        <mxCell id="1AL47Ae-udw0xNspE_Op-2" value="Distributed" style="text;html=1;strokeColor=none;fillColor=none;align=center;verticalAlign=middle;whiteSpace=wrap;rounded=0;" parent="1" vertex="1">
          <mxGeometry x="300" y="-2440" width="60" height="30" as="geometry" />
        </mxCell>
        <mxCell id="7zn35PvWmJtqcguIeIPs-268" style="edgeStyle=orthogonalEdgeStyle;rounded=0;orthogonalLoop=1;jettySize=auto;html=1;exitX=0;exitY=0.5;exitDx=0;exitDy=0;entryX=1;entryY=0.867;entryDx=0;entryDy=0;entryPerimeter=0;endArrow=block;endFill=0;" parent="1" source="1AL47Ae-udw0xNspE_Op-3" target="7zn35PvWmJtqcguIeIPs-267" edge="1">
          <mxGeometry relative="1" as="geometry">
            <Array as="points">
              <mxPoint x="280" y="-450" />
              <mxPoint x="170" y="-450" />
              <mxPoint x="170" y="-281" />
            </Array>
          </mxGeometry>
        </mxCell>
        <mxCell id="LTxgpxZo_bc8f6A4X1VT-41" style="edgeStyle=orthogonalEdgeStyle;rounded=0;orthogonalLoop=1;jettySize=auto;html=1;exitX=0;exitY=0.25;exitDx=0;exitDy=0;endArrow=diamondThin;endFill=1;" edge="1" parent="1" source="1AL47Ae-udw0xNspE_Op-3">
          <mxGeometry relative="1" as="geometry">
            <mxPoint x="-30" y="-1825" as="targetPoint" />
            <Array as="points">
              <mxPoint x="150" y="-515" />
              <mxPoint x="150" y="-1825" />
            </Array>
          </mxGeometry>
        </mxCell>
        <mxCell id="1AL47Ae-udw0xNspE_Op-3" value="&lt;p style=&quot;margin:0px;margin-top:4px;text-align:center;&quot;&gt;&lt;i&gt;&amp;lt;&amp;lt;Interface&amp;gt;&amp;gt;&lt;/i&gt;&lt;br&gt;&lt;b&gt;Client&lt;/b&gt;&lt;/p&gt;&lt;hr size=&quot;1&quot;&gt;&lt;p style=&quot;margin:0px;margin-left:4px;&quot;&gt;~&amp;nbsp;update(ResponseMessage): void&lt;/p&gt;&lt;p style=&quot;margin:0px;margin-left:4px;&quot;&gt;~ kill(): void&lt;/p&gt;&lt;p style=&quot;margin:0px;margin-left:4px;&quot;&gt;~ ping(): void&lt;/p&gt;&lt;p style=&quot;margin:0px;margin-left:4px;&quot;&gt;&lt;br&gt;&lt;/p&gt;" style="verticalAlign=top;align=left;overflow=fill;fontSize=12;fontFamily=Helvetica;html=1;whiteSpace=wrap;fillColor=none;" parent="1" vertex="1">
          <mxGeometry x="280" y="-540" width="380" height="100" as="geometry" />
        </mxCell>
        <mxCell id="7zn35PvWmJtqcguIeIPs-269" style="edgeStyle=orthogonalEdgeStyle;rounded=0;orthogonalLoop=1;jettySize=auto;html=1;exitX=0;exitY=0.75;exitDx=0;exitDy=0;entryX=1;entryY=0.5;entryDx=0;entryDy=0;endArrow=block;endFill=0;" parent="1" source="1AL47Ae-udw0xNspE_Op-5" target="7zn35PvWmJtqcguIeIPs-267" edge="1">
          <mxGeometry relative="1" as="geometry">
            <Array as="points">
              <mxPoint x="270" y="-652" />
              <mxPoint x="110" y="-652" />
              <mxPoint x="110" y="-340" />
            </Array>
          </mxGeometry>
        </mxCell>
        <mxCell id="1AL47Ae-udw0xNspE_Op-5" value="&lt;p style=&quot;margin:0px;margin-top:4px;text-align:center;&quot;&gt;&lt;i&gt;&amp;lt;&amp;lt;Interface&amp;gt;&amp;gt;&lt;/i&gt;&lt;br&gt;&lt;b&gt;Server&lt;/b&gt;&lt;/p&gt;&lt;hr size=&quot;1&quot;&gt;~&lt;span style=&quot;background-color: initial;&quot;&gt;&amp;nbsp;update(Client, InputMessage): void&lt;/span&gt;&lt;br&gt;~&lt;span style=&quot;background-color: initial;&quot;&gt;&amp;nbsp;register(Client): void&lt;br&gt;&lt;/span&gt;~ startPingThread(): void" style="verticalAlign=top;align=left;overflow=fill;fontSize=12;fontFamily=Helvetica;html=1;whiteSpace=wrap;fillColor=none;" parent="1" vertex="1">
          <mxGeometry x="270" y="-720" width="420" height="110" as="geometry" />
        </mxCell>
        <mxCell id="1AL47Ae-udw0xNspE_Op-6" value="ClientImplementation" style="swimlane;fontStyle=1;align=center;verticalAlign=top;childLayout=stackLayout;horizontal=1;startSize=26;horizontalStack=0;resizeParent=1;resizeParentMax=0;resizeLast=0;collapsible=1;marginBottom=0;whiteSpace=wrap;html=1;" parent="1" vertex="1">
          <mxGeometry x="700" y="-510" width="310" height="210" as="geometry" />
        </mxCell>
        <mxCell id="1AL47Ae-udw0xNspE_Op-7" value="- gui: GraphicalUI&lt;br&gt;- tui: TextualUI&lt;br&gt;- tuiObserver: Observer&amp;lt;TextualUI, InputMessage&amp;gt;&lt;br&gt;- guiObserver: Observer&amp;lt;GuiManager, InputMessage&amp;gt;" style="text;strokeColor=none;fillColor=none;align=left;verticalAlign=top;spacingLeft=4;spacingRight=4;overflow=hidden;rotatable=0;points=[[0,0.5],[1,0.5]];portConstraint=eastwest;whiteSpace=wrap;html=1;" parent="1AL47Ae-udw0xNspE_Op-6" vertex="1">
          <mxGeometry y="26" width="310" height="64" as="geometry" />
        </mxCell>
        <mxCell id="1AL47Ae-udw0xNspE_Op-8" value="" style="line;strokeWidth=1;fillColor=none;align=left;verticalAlign=middle;spacingTop=-1;spacingLeft=3;spacingRight=3;rotatable=0;labelPosition=right;points=[];portConstraint=eastwest;strokeColor=inherit;" parent="1AL47Ae-udw0xNspE_Op-6" vertex="1">
          <mxGeometry y="90" width="310" height="20" as="geometry" />
        </mxCell>
        <mxCell id="1AL47Ae-udw0xNspE_Op-9" value="+ setTui(Server): void&lt;br&gt;+ setGui(Server): void&lt;br&gt;- initialize(Server): void&lt;br&gt;+ kill(): void&lt;br&gt;+ update(ResponseMessage): void&lt;br&gt;+ ping(): void" style="text;strokeColor=none;fillColor=none;align=left;verticalAlign=top;spacingLeft=4;spacingRight=4;overflow=hidden;rotatable=0;points=[[0,0.5],[1,0.5]];portConstraint=eastwest;whiteSpace=wrap;html=1;" parent="1AL47Ae-udw0xNspE_Op-6" vertex="1">
          <mxGeometry y="110" width="310" height="100" as="geometry" />
        </mxCell>
        <mxCell id="1AL47Ae-udw0xNspE_Op-10" value="ServerImplementation" style="swimlane;fontStyle=1;align=center;verticalAlign=top;childLayout=stackLayout;horizontal=1;startSize=26;horizontalStack=0;resizeParent=1;resizeParentMax=0;resizeLast=0;collapsible=1;marginBottom=0;whiteSpace=wrap;html=1;" parent="1" vertex="1">
          <mxGeometry x="740" y="-880" width="280" height="140" as="geometry" />
        </mxCell>
        <mxCell id="1AL47Ae-udw0xNspE_Op-11" value="- queueThread: Thread&lt;br&gt;" style="text;strokeColor=none;fillColor=none;align=left;verticalAlign=top;spacingLeft=4;spacingRight=4;overflow=hidden;rotatable=0;points=[[0,0.5],[1,0.5]];portConstraint=eastwest;whiteSpace=wrap;html=1;" parent="1AL47Ae-udw0xNspE_Op-10" vertex="1">
          <mxGeometry y="26" width="280" height="24" as="geometry" />
        </mxCell>
        <mxCell id="1AL47Ae-udw0xNspE_Op-12" value="" style="line;strokeWidth=1;fillColor=none;align=left;verticalAlign=middle;spacingTop=-1;spacingLeft=3;spacingRight=3;rotatable=0;labelPosition=right;points=[];portConstraint=eastwest;strokeColor=inherit;" parent="1AL47Ae-udw0xNspE_Op-10" vertex="1">
          <mxGeometry y="50" width="280" height="8" as="geometry" />
        </mxCell>
        <mxCell id="1AL47Ae-udw0xNspE_Op-13" value="+ update(Client, InputMessage): void&lt;br&gt;+ register(Client): void&lt;br&gt;+ startPingThread(): void&lt;br&gt;+ checkClientConnections(): void&lt;br&gt;- unregisterClients(List&amp;lt;Client&amp;gt;): void" style="text;strokeColor=none;fillColor=none;align=left;verticalAlign=top;spacingLeft=4;spacingRight=4;overflow=hidden;rotatable=0;points=[[0,0.5],[1,0.5]];portConstraint=eastwest;whiteSpace=wrap;html=1;" parent="1AL47Ae-udw0xNspE_Op-10" vertex="1">
          <mxGeometry y="58" width="280" height="82" as="geometry" />
        </mxCell>
        <mxCell id="1AL47Ae-udw0xNspE_Op-20" value="SocketMiddleware" style="text;html=1;strokeColor=none;fillColor=none;align=center;verticalAlign=middle;whiteSpace=wrap;rounded=0;" parent="1" vertex="1">
          <mxGeometry x="1070" y="-770" width="120" height="30" as="geometry" />
        </mxCell>
        <mxCell id="1AL47Ae-udw0xNspE_Op-21" value="ServerStub" style="swimlane;fontStyle=1;align=center;verticalAlign=top;childLayout=stackLayout;horizontal=1;startSize=26;horizontalStack=0;resizeParent=1;resizeParentMax=0;resizeLast=0;collapsible=1;marginBottom=0;whiteSpace=wrap;html=1;" parent="1" vertex="1">
          <mxGeometry x="1090" y="-730" width="270" height="200" as="geometry" />
        </mxCell>
        <mxCell id="1AL47Ae-udw0xNspE_Op-22" value="- socket: Socket&lt;br&gt;- ip: String&lt;br&gt;- ois: ObjectInputStream&lt;br&gt;- oos: ObjectOutputStream&lt;br&gt;- port: int" style="text;strokeColor=none;fillColor=none;align=left;verticalAlign=top;spacingLeft=4;spacingRight=4;overflow=hidden;rotatable=0;points=[[0,0.5],[1,0.5]];portConstraint=eastwest;whiteSpace=wrap;html=1;" parent="1AL47Ae-udw0xNspE_Op-21" vertex="1">
          <mxGeometry y="26" width="270" height="84" as="geometry" />
        </mxCell>
        <mxCell id="1AL47Ae-udw0xNspE_Op-23" value="" style="line;strokeWidth=1;fillColor=none;align=left;verticalAlign=middle;spacingTop=-1;spacingLeft=3;spacingRight=3;rotatable=0;labelPosition=right;points=[];portConstraint=eastwest;strokeColor=inherit;" parent="1AL47Ae-udw0xNspE_Op-21" vertex="1">
          <mxGeometry y="110" width="270" height="8" as="geometry" />
        </mxCell>
        <mxCell id="1AL47Ae-udw0xNspE_Op-24" value="+ register(Client): void&lt;br&gt;+ receive(Client): void&lt;br&gt;+ close(): void&lt;br&gt;+ update(Client, InputMessage): void&lt;br&gt;+ startPingThread(): void" style="text;strokeColor=none;fillColor=none;align=left;verticalAlign=top;spacingLeft=4;spacingRight=4;overflow=hidden;rotatable=0;points=[[0,0.5],[1,0.5]];portConstraint=eastwest;whiteSpace=wrap;html=1;" parent="1AL47Ae-udw0xNspE_Op-21" vertex="1">
          <mxGeometry y="118" width="270" height="82" as="geometry" />
        </mxCell>
        <mxCell id="1AL47Ae-udw0xNspE_Op-25" value="ClientSkeleton" style="swimlane;fontStyle=1;align=center;verticalAlign=top;childLayout=stackLayout;horizontal=1;startSize=26;horizontalStack=0;resizeParent=1;resizeParentMax=0;resizeLast=0;collapsible=1;marginBottom=0;whiteSpace=wrap;html=1;" parent="1" vertex="1">
          <mxGeometry x="1120" y="-492" width="200" height="158" as="geometry" />
        </mxCell>
        <mxCell id="1AL47Ae-udw0xNspE_Op-26" value="- oos: ObjectOutputStream&lt;br&gt;- ois: ObjectImputStream" style="text;strokeColor=none;fillColor=none;align=left;verticalAlign=top;spacingLeft=4;spacingRight=4;overflow=hidden;rotatable=0;points=[[0,0.5],[1,0.5]];portConstraint=eastwest;whiteSpace=wrap;html=1;" parent="1AL47Ae-udw0xNspE_Op-25" vertex="1">
          <mxGeometry y="26" width="200" height="44" as="geometry" />
        </mxCell>
        <mxCell id="1AL47Ae-udw0xNspE_Op-27" value="" style="line;strokeWidth=1;fillColor=none;align=left;verticalAlign=middle;spacingTop=-1;spacingLeft=3;spacingRight=3;rotatable=0;labelPosition=right;points=[];portConstraint=eastwest;strokeColor=inherit;" parent="1AL47Ae-udw0xNspE_Op-25" vertex="1">
          <mxGeometry y="70" width="200" height="8" as="geometry" />
        </mxCell>
        <mxCell id="1AL47Ae-udw0xNspE_Op-28" value="+ ping(): void&lt;br&gt;+ kill(): void&lt;br&gt;+ receive(Server): void&lt;br&gt;+ update(ResponseMessage): void" style="text;strokeColor=none;fillColor=none;align=left;verticalAlign=top;spacingLeft=4;spacingRight=4;overflow=hidden;rotatable=0;points=[[0,0.5],[1,0.5]];portConstraint=eastwest;whiteSpace=wrap;html=1;" parent="1AL47Ae-udw0xNspE_Op-25" vertex="1">
          <mxGeometry y="78" width="200" height="80" as="geometry" />
        </mxCell>
        <mxCell id="5FTyxGPGVCbrAZPdwMV5-4" style="edgeStyle=orthogonalEdgeStyle;rounded=0;orthogonalLoop=1;jettySize=auto;html=1;exitX=0;exitY=0.5;exitDx=0;exitDy=0;endArrow=block;endFill=0;" parent="1" source="1AL47Ae-udw0xNspE_Op-11" target="1AL47Ae-udw0xNspE_Op-5" edge="1">
          <mxGeometry relative="1" as="geometry">
            <Array as="points">
              <mxPoint x="740" y="-760" />
              <mxPoint x="480" y="-760" />
            </Array>
          </mxGeometry>
        </mxCell>
        <mxCell id="F7evz0KNMgZYf-CdFRLq-9" value="&lt;p style=&quot;margin:0px;margin-top:4px;text-align:center;&quot;&gt;&lt;i&gt;&amp;lt;&amp;lt;Enumeration&amp;gt;&amp;gt;&lt;/i&gt;&lt;/p&gt;&lt;p style=&quot;text-align: center; margin: 4px 0px 0px;&quot;&gt;&lt;span style=&quot;background-color: initial; text-align: left;&quot;&gt;&lt;b&gt;&lt;i&gt;GameStates&lt;/i&gt;&lt;/b&gt;&lt;/span&gt;&lt;/p&gt;&lt;p style=&quot;margin: 4px 0px 0px;&quot;&gt;&lt;span style=&quot;background-color: initial;&quot;&gt;&amp;nbsp; SILLY&lt;/span&gt;&lt;br&gt;&lt;/p&gt;&lt;p style=&quot;margin: 4px 0px 0px;&quot;&gt;&amp;nbsp; LOBBY&lt;/p&gt;&lt;p style=&quot;margin: 4px 0px 0px;&quot;&gt;&amp;nbsp; RUNNING&lt;/p&gt;&lt;p style=&quot;margin: 4px 0px 0px;&quot;&gt;&amp;nbsp; ENDING&lt;/p&gt;&lt;p style=&quot;margin: 4px 0px 0px;&quot;&gt;&lt;br&gt;&lt;/p&gt;" style="verticalAlign=top;align=left;overflow=fill;fontSize=12;fontFamily=Helvetica;html=1;whiteSpace=wrap;" parent="1" vertex="1">
          <mxGeometry x="50" y="-60" width="160" height="120" as="geometry" />
        </mxCell>
        <mxCell id="F7evz0KNMgZYf-CdFRLq-14" value="TextualUI" style="swimlane;fontStyle=1;align=center;verticalAlign=top;childLayout=stackLayout;horizontal=1;startSize=26;horizontalStack=0;resizeParent=1;resizeParentMax=0;resizeLast=0;collapsible=1;marginBottom=0;whiteSpace=wrap;html=1;" parent="1" vertex="1">
          <mxGeometry x="-320" y="-3170" width="290" height="1390" as="geometry" />
        </mxCell>
        <mxCell id="F7evz0KNMgZYf-CdFRLq-15" value="- lock: Object&lt;br&gt;- lock2: Object&lt;br&gt;- connectFlag: boolean&lt;br&gt;- flag: boolean&lt;br&gt;- nickFlag: boolean&lt;br&gt;- firstPlayerFlag: boolean&lt;br&gt;- previousGameExist: boolean&lt;br&gt;- waitResult: boolean&lt;br&gt;- endedTurn: boolean&lt;br&gt;- reconnection: boolean&lt;br&gt;- returnedFlag: boolean&lt;br&gt;- stillChoosing: boolean&lt;br&gt;- loadFromFile: boolean&lt;br&gt;- number: Integer&lt;br&gt;- point: Point&lt;br&gt;-&amp;nbsp;nickname: String&lt;br&gt;- string: String&lt;br&gt;- alphanumericalKey: String&lt;br&gt;- lastPlayerNick: String&lt;br&gt;- tileSelectionPossible: boolean&lt;br&gt;- temporaryTilesHold: boolean&lt;br&gt;- nameColors: HashMap&amp;lt;String, String&amp;gt;&lt;br&gt;~&amp;nbsp;masterScanner: Scanner&lt;br&gt;- chatBuffer: ArrayList&amp;lt;Message&amp;gt;" style="text;strokeColor=none;fillColor=none;align=left;verticalAlign=top;spacingLeft=4;spacingRight=4;overflow=hidden;rotatable=0;points=[[0,0.5],[1,0.5]];portConstraint=eastwest;whiteSpace=wrap;html=1;" parent="F7evz0KNMgZYf-CdFRLq-14" vertex="1">
          <mxGeometry y="26" width="290" height="354" as="geometry" />
        </mxCell>
        <mxCell id="F7evz0KNMgZYf-CdFRLq-16" value="" style="line;strokeWidth=1;fillColor=none;align=left;verticalAlign=middle;spacingTop=-1;spacingLeft=3;spacingRight=3;rotatable=0;labelPosition=right;points=[];portConstraint=eastwest;strokeColor=inherit;" parent="F7evz0KNMgZYf-CdFRLq-14" vertex="1">
          <mxGeometry y="380" width="290" height="8" as="geometry" />
        </mxCell>
        <mxCell id="F7evz0KNMgZYf-CdFRLq-17" value="+ setReturnedFlag(boolean): void&lt;br&gt;+ getTurnState(): UITurnState&lt;br&gt;+ getEndState(): UIEndState&lt;br&gt;+ setLoadFromFile(boolean): void&lt;br&gt;+ setStillChoosing(boolean): void&lt;br&gt;+ setFirstPlayerFlag(boolean): void&lt;br&gt;+ setNickFlag(boolean): void&lt;br&gt;+ setPreviousGameExists(boolean): void&lt;br&gt;+ getClient(): Client&lt;br&gt;+ getString(): String&lt;br&gt;+ getNumber(): Integer&lt;br&gt;+ getPoint(): Point&lt;br&gt;+ getNickname(): String&lt;br&gt;+ getNameColors(): HashMap&amp;lt;String, String&amp;gt;&lt;br&gt;+ getMasterScanner(): Scanner&lt;br&gt;+ setWaitResult(boolean): void&lt;br&gt;+ setNameColors(HashMap&amp;lt;String,String&amp;gt;): void&lt;br&gt;+ setFlag(boolean): void&lt;br&gt;+ setTurnState(UITurnState): void&lt;br&gt;+ setEndState(UIEndState): void&lt;br&gt;+ setConnectFlag(boolean): void&lt;br&gt;+ setLastPlayerName(String): void&lt;br&gt;+ setReconnection(boolean): void&lt;br&gt;+ setTemporaryTileHold(boolean): void&lt;br&gt;+ setTileSelectionPossible(boolean): void&lt;br&gt;- waitReturn(): void&lt;br&gt;+ run(): void&lt;br&gt;+ ending(): void&lt;br&gt;- printCommandMenu(): void&lt;br&gt;- connect(): void&lt;br&gt;+ exit(): void&lt;br&gt;- writeInChat(): void&lt;br&gt;+ update(ResponseMessage): void&lt;br&gt;+ chooseColumn(): boolean&lt;br&gt;+ selectTemporaryTileInput(): Integer&lt;br&gt;+ selectColumnInput(): Integer&lt;br&gt;- chooseTiles(): boolean&lt;br&gt;- selectTiles(): void&lt;br&gt;- selectColumn(): void&lt;br&gt;- selectTemporaryTiles(): void&lt;br&gt;- selectTilesInput(): Point&lt;br&gt;- askBoard(): void&lt;br&gt;- askShelf(): void&lt;br&gt;- askAllShelves(): void&lt;br&gt;- askPersonalGoal(): void&lt;br&gt;- askTemporaryTiles(): void&lt;br&gt;- askCommonGoals(): void&lt;br&gt;- askCurrentPlayer(): void&lt;br&gt;- askGlobalChat(): void&lt;br&gt;- askSpecificChat(): void&lt;br&gt;+ askNameAgainForReload(): void&lt;br&gt;+ askNickname(): void&lt;br&gt;+ askNumber(): void&lt;br&gt;+ askLoadGame(): void&lt;br&gt;+ showBoard(SerializableGame): void&lt;br&gt;+ showShelf(SerializableGame): void&lt;br&gt;+ showAllShelves(SerializableGame): void&lt;br&gt;+ showPersonalGoal(SerializableGame): void&lt;br&gt;+ showCommonGoals(SerializableGame): void&lt;br&gt;+ showCurrentPlayer(SerializableGame): void&lt;br&gt;- showChat(SerializableGame): void&lt;br&gt;- reconnectionJoin(): void&lt;br&gt;+ kill(int): void&lt;br&gt;- displayLogo(): void&lt;br&gt;- printImageKill(): void&lt;br&gt;+ printMedal(String, String): void&lt;br&gt;+ printNoMedal(): void&lt;br&gt;+ addBufferMessage(Message): void&lt;br&gt;+ writeBufferMessage(): void&lt;br&gt;" style="text;strokeColor=none;fillColor=none;align=left;verticalAlign=top;spacingLeft=4;spacingRight=4;overflow=hidden;rotatable=0;points=[[0,0.5],[1,0.5]];portConstraint=eastwest;whiteSpace=wrap;html=1;" parent="F7evz0KNMgZYf-CdFRLq-14" vertex="1">
          <mxGeometry y="388" width="290" height="1002" as="geometry" />
        </mxCell>
        <mxCell id="F7evz0KNMgZYf-CdFRLq-18" value="GraphicalUI" style="swimlane;fontStyle=1;align=center;verticalAlign=top;childLayout=stackLayout;horizontal=1;startSize=26;horizontalStack=0;resizeParent=1;resizeParentMax=0;resizeLast=0;collapsible=1;marginBottom=0;whiteSpace=wrap;html=1;" parent="1" vertex="1">
          <mxGeometry x="-2460" y="-3410" width="270" height="120" as="geometry" />
        </mxCell>
        <mxCell id="F7evz0KNMgZYf-CdFRLq-19" value="- state: UIState" style="text;strokeColor=none;fillColor=none;align=left;verticalAlign=top;spacingLeft=4;spacingRight=4;overflow=hidden;rotatable=0;points=[[0,0.5],[1,0.5]];portConstraint=eastwest;whiteSpace=wrap;html=1;" parent="F7evz0KNMgZYf-CdFRLq-18" vertex="1">
          <mxGeometry y="26" width="270" height="24" as="geometry" />
        </mxCell>
        <mxCell id="F7evz0KNMgZYf-CdFRLq-20" value="" style="line;strokeWidth=1;fillColor=none;align=left;verticalAlign=middle;spacingTop=-1;spacingLeft=3;spacingRight=3;rotatable=0;labelPosition=right;points=[];portConstraint=eastwest;strokeColor=inherit;" parent="F7evz0KNMgZYf-CdFRLq-18" vertex="1">
          <mxGeometry y="50" width="270" height="8" as="geometry" />
        </mxCell>
        <mxCell id="F7evz0KNMgZYf-CdFRLq-21" value="+ run(): void&lt;br&gt;+ update(GameView, Event): void&lt;br&gt;+ setState(UIState): void" style="text;strokeColor=none;fillColor=none;align=left;verticalAlign=top;spacingLeft=4;spacingRight=4;overflow=hidden;rotatable=0;points=[[0,0.5],[1,0.5]];portConstraint=eastwest;whiteSpace=wrap;html=1;" parent="F7evz0KNMgZYf-CdFRLq-18" vertex="1">
          <mxGeometry y="58" width="270" height="62" as="geometry" />
        </mxCell>
        <mxCell id="LTxgpxZo_bc8f6A4X1VT-36" style="edgeStyle=orthogonalEdgeStyle;rounded=0;orthogonalLoop=1;jettySize=auto;html=1;exitX=0;exitY=0.25;exitDx=0;exitDy=0;endArrow=diamondThin;endFill=1;entryX=0.999;entryY=0.621;entryDx=0;entryDy=0;entryPerimeter=0;" edge="1" parent="1" source="F7evz0KNMgZYf-CdFRLq-22" target="F7evz0KNMgZYf-CdFRLq-17">
          <mxGeometry relative="1" as="geometry">
            <mxPoint x="-30" y="-2110" as="targetPoint" />
            <Array as="points">
              <mxPoint x="-20" y="-1945" />
              <mxPoint x="-20" y="-2160" />
            </Array>
          </mxGeometry>
        </mxCell>
        <mxCell id="F7evz0KNMgZYf-CdFRLq-22" value="&lt;p style=&quot;margin:0px;margin-top:4px;text-align:center;&quot;&gt;&lt;i&gt;&amp;lt;&amp;lt;Enumeration&amp;gt;&amp;gt;&lt;/i&gt;&lt;/p&gt;&lt;p style=&quot;margin:0px;margin-top:4px;text-align:center;&quot;&gt;&lt;b&gt;&lt;i&gt;UITurnState&lt;/i&gt;&lt;/b&gt;&lt;/p&gt;&lt;p style=&quot;margin:0px;margin-left:4px;&quot;&gt;YOUR_TURN_SELECTION&amp;nbsp;&lt;/p&gt;&lt;p style=&quot;margin:0px;margin-left:4px;&quot;&gt;YOUR_TURN_COLUMN&lt;/p&gt;&lt;p style=&quot;margin:0px;margin-left:4px;&quot;&gt;YOUR_TURN_INSERTION&lt;/p&gt;&lt;p style=&quot;margin:0px;margin-left:4px;&quot;&gt;OPPONENT_TURN&lt;/p&gt;" style="verticalAlign=top;align=left;overflow=fill;fontSize=12;fontFamily=Helvetica;html=1;whiteSpace=wrap;fillColor=none;" parent="1" vertex="1">
          <mxGeometry x="23" y="-1970" width="170" height="100" as="geometry" />
        </mxCell>
        <mxCell id="LTxgpxZo_bc8f6A4X1VT-35" style="edgeStyle=orthogonalEdgeStyle;rounded=0;orthogonalLoop=1;jettySize=auto;html=1;exitX=0;exitY=0.25;exitDx=0;exitDy=0;entryX=1.006;entryY=0.515;entryDx=0;entryDy=0;entryPerimeter=0;endArrow=diamondThin;endFill=1;" edge="1" parent="1" source="F7evz0KNMgZYf-CdFRLq-23" target="F7evz0KNMgZYf-CdFRLq-15">
          <mxGeometry relative="1" as="geometry" />
        </mxCell>
        <mxCell id="F7evz0KNMgZYf-CdFRLq-23" value="&lt;p style=&quot;margin:0px;margin-top:4px;text-align:center;&quot;&gt;&lt;i&gt;&amp;lt;&amp;lt;Enumeration&amp;gt;&amp;gt;&lt;/i&gt;&lt;/p&gt;&lt;p style=&quot;margin:0px;margin-top:4px;text-align:center;&quot;&gt;&lt;b&gt;&lt;i&gt;UIEndState&lt;/i&gt;&lt;/b&gt;&lt;/p&gt;&lt;p style=&quot;margin:0px;margin-left:4px;&quot;&gt;&lt;br&gt;&lt;/p&gt;&lt;p style=&quot;margin:0px;margin-left:4px;&quot;&gt;&amp;nbsp;LOBBY&lt;/p&gt;&lt;p style=&quot;margin:0px;margin-left:4px;&quot;&gt;RUNNING&lt;/p&gt;&lt;p style=&quot;margin:0px;margin-left:4px;&quot;&gt;ENDING&lt;/p&gt;" style="verticalAlign=top;align=left;overflow=fill;fontSize=12;fontFamily=Helvetica;html=1;whiteSpace=wrap;fillColor=none;" parent="1" vertex="1">
          <mxGeometry x="22.99" y="-2080" width="170" height="100" as="geometry" />
        </mxCell>
        <mxCell id="F7evz0KNMgZYf-CdFRLq-27" value="GameView" style="swimlane;fontStyle=1;align=center;verticalAlign=top;childLayout=stackLayout;horizontal=1;startSize=26;horizontalStack=0;resizeParent=1;resizeParentMax=0;resizeLast=0;collapsible=1;marginBottom=0;whiteSpace=wrap;html=1;" parent="1" vertex="1">
          <mxGeometry x="700" y="700" width="200" height="190" as="geometry" />
        </mxCell>
        <mxCell id="F7evz0KNMgZYf-CdFRLq-28" value="- seriealVersionUID: long&lt;br&gt;- gameBoard: Board&lt;br&gt;- chat: Chat&lt;br&gt;- currentPlayerName: String&lt;br&gt;- currentPlayerShelf: Shelf" style="text;strokeColor=none;fillColor=none;align=left;verticalAlign=top;spacingLeft=4;spacingRight=4;overflow=hidden;rotatable=0;points=[[0,0.5],[1,0.5]];portConstraint=eastwest;whiteSpace=wrap;html=1;" parent="F7evz0KNMgZYf-CdFRLq-27" vertex="1">
          <mxGeometry y="26" width="200" height="84" as="geometry" />
        </mxCell>
        <mxCell id="F7evz0KNMgZYf-CdFRLq-29" value="" style="line;strokeWidth=1;fillColor=none;align=left;verticalAlign=middle;spacingTop=-1;spacingLeft=3;spacingRight=3;rotatable=0;labelPosition=right;points=[];portConstraint=eastwest;strokeColor=inherit;" parent="F7evz0KNMgZYf-CdFRLq-27" vertex="1">
          <mxGeometry y="110" width="200" height="8" as="geometry" />
        </mxCell>
        <mxCell id="F7evz0KNMgZYf-CdFRLq-30" value="+ getGameBoard(): Board&lt;br&gt;+ getCurrentPlayerShelf(): Shelf&lt;br&gt;+ getChat(): Chat&lt;br&gt;+ getCurrentPlayerName(): String" style="text;strokeColor=none;fillColor=none;align=left;verticalAlign=top;spacingLeft=4;spacingRight=4;overflow=hidden;rotatable=0;points=[[0,0.5],[1,0.5]];portConstraint=eastwest;whiteSpace=wrap;html=1;" parent="F7evz0KNMgZYf-CdFRLq-27" vertex="1">
          <mxGeometry y="118" width="200" height="72" as="geometry" />
        </mxCell>
        <mxCell id="F7evz0KNMgZYf-CdFRLq-31" value="InputController" style="swimlane;fontStyle=1;align=center;verticalAlign=top;childLayout=stackLayout;horizontal=1;startSize=26;horizontalStack=0;resizeParent=1;resizeParentMax=0;resizeLast=0;collapsible=1;marginBottom=0;whiteSpace=wrap;html=1;" parent="1" vertex="1">
          <mxGeometry x="940" y="700" width="160" height="150" as="geometry" />
        </mxCell>
        <mxCell id="F7evz0KNMgZYf-CdFRLq-32" value="- coordinate: Point&lt;br&gt;- string: String&lt;br&gt;- integer: Integer" style="text;strokeColor=none;fillColor=none;align=left;verticalAlign=top;spacingLeft=4;spacingRight=4;overflow=hidden;rotatable=0;points=[[0,0.5],[1,0.5]];portConstraint=eastwest;whiteSpace=wrap;html=1;" parent="F7evz0KNMgZYf-CdFRLq-31" vertex="1">
          <mxGeometry y="26" width="160" height="54" as="geometry" />
        </mxCell>
        <mxCell id="F7evz0KNMgZYf-CdFRLq-33" value="" style="line;strokeWidth=1;fillColor=none;align=left;verticalAlign=middle;spacingTop=-1;spacingLeft=3;spacingRight=3;rotatable=0;labelPosition=right;points=[];portConstraint=eastwest;strokeColor=inherit;" parent="F7evz0KNMgZYf-CdFRLq-31" vertex="1">
          <mxGeometry y="80" width="160" height="8" as="geometry" />
        </mxCell>
        <mxCell id="F7evz0KNMgZYf-CdFRLq-34" value="+ getCoordinate(): Point&lt;br&gt;+ getIndex(): Integer&lt;br&gt;getString(): String" style="text;strokeColor=none;fillColor=none;align=left;verticalAlign=top;spacingLeft=4;spacingRight=4;overflow=hidden;rotatable=0;points=[[0,0.5],[1,0.5]];portConstraint=eastwest;whiteSpace=wrap;html=1;" parent="F7evz0KNMgZYf-CdFRLq-31" vertex="1">
          <mxGeometry y="88" width="160" height="62" as="geometry" />
        </mxCell>
        <mxCell id="0j8p1se4WsX_w9YfrRnY-2" value="View" style="text;html=1;strokeColor=none;fillColor=none;align=center;verticalAlign=middle;whiteSpace=wrap;rounded=0;" parent="1" vertex="1">
          <mxGeometry x="-2440" y="-3470" width="60" height="30" as="geometry" />
        </mxCell>
        <mxCell id="7zn35PvWmJtqcguIeIPs-5" value="«interface»&lt;br&gt;&lt;b&gt;Serializable&lt;/b&gt;" style="html=1;whiteSpace=wrap;fillColor=none;" parent="1" vertex="1">
          <mxGeometry x="-790" y="-610" width="200" height="160" as="geometry" />
        </mxCell>
        <mxCell id="7zn35PvWmJtqcguIeIPs-10" style="edgeStyle=orthogonalEdgeStyle;rounded=0;orthogonalLoop=1;jettySize=auto;html=1;exitX=0.5;exitY=0;exitDx=0;exitDy=0;endArrow=block;endFill=0;" parent="1" source="7zn35PvWmJtqcguIeIPs-6" edge="1">
          <mxGeometry relative="1" as="geometry">
            <Array as="points">
              <mxPoint x="1344" y="-3200" />
              <mxPoint x="-650" y="-3200" />
            </Array>
            <mxPoint x="-650" y="-610" as="targetPoint" />
          </mxGeometry>
        </mxCell>
        <mxCell id="7zn35PvWmJtqcguIeIPs-1" value="" style="shape=folder;fontStyle=1;tabWidth=100;tabHeight=30;tabPosition=left;html=1;boundedLbl=1;labelInHeader=1;container=1;collapsible=0;whiteSpace=wrap;fillColor=none;" parent="1" vertex="1">
          <mxGeometry x="300" y="-2310" width="2310" height="550" as="geometry" />
        </mxCell>
        <mxCell id="7zn35PvWmJtqcguIeIPs-2" value="" style="html=1;strokeColor=none;resizeWidth=1;resizeHeight=1;fillColor=none;part=1;connectable=0;allowArrows=0;deletable=0;whiteSpace=wrap;" parent="7zn35PvWmJtqcguIeIPs-1" vertex="1">
          <mxGeometry width="2128.11" height="405" relative="1" as="geometry">
            <mxPoint y="10" as="offset" />
          </mxGeometry>
        </mxCell>
        <mxCell id="7zn35PvWmJtqcguIeIPs-3" value="InputMessages" style="text;html=1;strokeColor=none;fillColor=none;align=center;verticalAlign=middle;whiteSpace=wrap;rounded=0;" parent="7zn35PvWmJtqcguIeIPs-1" vertex="1">
          <mxGeometry x="-9.916946013101425" width="121.57894736842103" height="22.2972972972973" as="geometry" />
        </mxCell>
        <mxCell id="7zn35PvWmJtqcguIeIPs-6" value="&amp;lt;&amp;lt;Abstract Class&amp;gt;&amp;gt;&lt;br&gt;InputMessage" style="swimlane;fontStyle=1;align=center;verticalAlign=top;childLayout=stackLayout;horizontal=1;startSize=40;horizontalStack=0;resizeParent=1;resizeParentMax=0;resizeLast=0;collapsible=1;marginBottom=0;whiteSpace=wrap;html=1;" parent="7zn35PvWmJtqcguIeIPs-1" vertex="1">
          <mxGeometry x="851.05" y="40" width="385" height="162.83594594594595" as="geometry" />
        </mxCell>
        <mxCell id="7zn35PvWmJtqcguIeIPs-7" value="- serialVersionUID: long&lt;br&gt;# client: Client" style="text;strokeColor=none;fillColor=none;align=left;verticalAlign=top;spacingLeft=4;spacingRight=4;overflow=hidden;rotatable=0;points=[[0,0.5],[1,0.5]];portConstraint=eastwest;whiteSpace=wrap;html=1;" parent="7zn35PvWmJtqcguIeIPs-6" vertex="1">
          <mxGeometry y="40" width="385" height="50" as="geometry" />
        </mxCell>
        <mxCell id="7zn35PvWmJtqcguIeIPs-8" value="" style="line;strokeWidth=1;fillColor=none;align=left;verticalAlign=middle;spacingTop=-1;spacingLeft=3;spacingRight=3;rotatable=0;labelPosition=right;points=[];portConstraint=eastwest;strokeColor=inherit;" parent="7zn35PvWmJtqcguIeIPs-6" vertex="1">
          <mxGeometry y="90" width="385" height="5.945945945945945" as="geometry" />
        </mxCell>
        <mxCell id="7zn35PvWmJtqcguIeIPs-9" value="+ execute(Engine): void&lt;br&gt;+ getInput(): SerializableInput&lt;br&gt;+ getClient(): Client" style="text;strokeColor=none;fillColor=none;align=left;verticalAlign=top;spacingLeft=4;spacingRight=4;overflow=hidden;rotatable=0;points=[[0,0.5],[1,0.5]];portConstraint=eastwest;whiteSpace=wrap;html=1;" parent="7zn35PvWmJtqcguIeIPs-6" vertex="1">
          <mxGeometry y="95.94594594594595" width="385" height="66.89" as="geometry" />
        </mxCell>
        <mxCell id="7zn35PvWmJtqcguIeIPs-67" style="edgeStyle=orthogonalEdgeStyle;rounded=0;orthogonalLoop=1;jettySize=auto;html=1;exitX=0.5;exitY=0;exitDx=0;exitDy=0;entryX=0;entryY=0.25;entryDx=0;entryDy=0;endArrow=block;endFill=0;" parent="7zn35PvWmJtqcguIeIPs-1" source="7zn35PvWmJtqcguIeIPs-11" target="7zn35PvWmJtqcguIeIPs-6" edge="1">
          <mxGeometry relative="1" as="geometry" />
        </mxCell>
        <mxCell id="7zn35PvWmJtqcguIeIPs-11" value="&lt;p style=&quot;margin:0px;margin-top:4px;text-align:center;&quot;&gt;&lt;b&gt;AmIReconnecting&lt;/b&gt;&lt;/p&gt;&lt;hr size=&quot;1&quot;&gt;&lt;p style=&quot;margin:0px;margin-left:4px;&quot;&gt;- serialVersionUID: long&lt;/p&gt;&lt;hr size=&quot;1&quot;&gt;&lt;p style=&quot;margin:0px;margin-left:4px;&quot;&gt;+ execute(Engine): void&lt;/p&gt;" style="verticalAlign=top;align=left;overflow=fill;fontSize=12;fontFamily=Helvetica;html=1;whiteSpace=wrap;fillColor=none;" parent="7zn35PvWmJtqcguIeIPs-1" vertex="1">
          <mxGeometry x="99.99598425196851" y="239.99567567567564" width="150" height="80" as="geometry" />
        </mxCell>
        <mxCell id="7zn35PvWmJtqcguIeIPs-79" style="edgeStyle=orthogonalEdgeStyle;rounded=0;orthogonalLoop=1;jettySize=auto;html=1;exitX=0.5;exitY=0;exitDx=0;exitDy=0;entryX=0.09;entryY=1.005;entryDx=0;entryDy=0;entryPerimeter=0;endArrow=block;endFill=0;" parent="7zn35PvWmJtqcguIeIPs-1" source="7zn35PvWmJtqcguIeIPs-12" target="7zn35PvWmJtqcguIeIPs-9" edge="1">
          <mxGeometry relative="1" as="geometry">
            <Array as="points">
              <mxPoint x="265" y="340" />
              <mxPoint x="886" y="340" />
            </Array>
          </mxGeometry>
        </mxCell>
        <mxCell id="7zn35PvWmJtqcguIeIPs-12" value="&lt;p style=&quot;margin:0px;margin-top:4px;text-align:center;&quot;&gt;&lt;b&gt;ConfirmNumberOfPlayers&lt;/b&gt;&lt;/p&gt;&lt;hr size=&quot;1&quot;&gt;&lt;p style=&quot;margin:0px;margin-left:4px;&quot;&gt;- serialVersionUID: long&lt;/p&gt;&lt;hr size=&quot;1&quot;&gt;&lt;p style=&quot;margin:0px;margin-left:4px;&quot;&gt;+ execute(Engine): void&lt;/p&gt;" style="verticalAlign=top;align=left;overflow=fill;fontSize=12;fontFamily=Helvetica;html=1;whiteSpace=wrap;fillColor=none;" parent="7zn35PvWmJtqcguIeIPs-1" vertex="1">
          <mxGeometry x="189.9987401574803" y="399.5921621621621" width="150" height="80" as="geometry" />
        </mxCell>
        <mxCell id="7zn35PvWmJtqcguIeIPs-68" style="edgeStyle=orthogonalEdgeStyle;rounded=0;orthogonalLoop=1;jettySize=auto;html=1;exitX=0.5;exitY=0;exitDx=0;exitDy=0;entryX=0;entryY=0.5;entryDx=0;entryDy=0;endArrow=block;endFill=0;" parent="7zn35PvWmJtqcguIeIPs-1" source="7zn35PvWmJtqcguIeIPs-14" target="7zn35PvWmJtqcguIeIPs-7" edge="1">
          <mxGeometry relative="1" as="geometry" />
        </mxCell>
        <mxCell id="7zn35PvWmJtqcguIeIPs-14" value="&lt;p style=&quot;margin:0px;margin-top:4px;text-align:center;&quot;&gt;&lt;b&gt;AskForAllShelves&lt;/b&gt;&lt;/p&gt;&lt;hr size=&quot;1&quot;&gt;&lt;p style=&quot;margin:0px;margin-left:4px;&quot;&gt;- serialVersionUID: long&lt;/p&gt;&lt;hr size=&quot;1&quot;&gt;&lt;p style=&quot;margin:0px;margin-left:4px;&quot;&gt;+ execute(Engine): void&lt;/p&gt;" style="verticalAlign=top;align=left;overflow=fill;fontSize=12;fontFamily=Helvetica;html=1;whiteSpace=wrap;fillColor=none;" parent="7zn35PvWmJtqcguIeIPs-1" vertex="1">
          <mxGeometry x="309.9987401574803" y="234.99567567567564" width="150" height="80" as="geometry" />
        </mxCell>
        <mxCell id="7zn35PvWmJtqcguIeIPs-80" style="edgeStyle=orthogonalEdgeStyle;rounded=0;orthogonalLoop=1;jettySize=auto;html=1;exitX=0.5;exitY=0;exitDx=0;exitDy=0;entryX=0.121;entryY=0.992;entryDx=0;entryDy=0;entryPerimeter=0;endArrow=block;endFill=0;" parent="7zn35PvWmJtqcguIeIPs-1" source="7zn35PvWmJtqcguIeIPs-13" target="7zn35PvWmJtqcguIeIPs-9" edge="1">
          <mxGeometry relative="1" as="geometry">
            <Array as="points">
              <mxPoint x="435" y="350" />
              <mxPoint x="898" y="350" />
            </Array>
          </mxGeometry>
        </mxCell>
        <mxCell id="7zn35PvWmJtqcguIeIPs-13" value="&lt;p style=&quot;margin:0px;margin-top:4px;text-align:center;&quot;&gt;&lt;b&gt;ConfirmSelectedTiles&lt;/b&gt;&lt;/p&gt;&lt;hr size=&quot;1&quot;&gt;&lt;p style=&quot;margin:0px;margin-left:4px;&quot;&gt;- serialVersionUID: long&lt;/p&gt;&lt;hr size=&quot;1&quot;&gt;&lt;p style=&quot;margin:0px;margin-left:4px;&quot;&gt;+ execute(Engine): void&lt;/p&gt;" style="verticalAlign=top;align=left;overflow=fill;fontSize=12;fontFamily=Helvetica;html=1;whiteSpace=wrap;fillColor=none;" parent="7zn35PvWmJtqcguIeIPs-1" vertex="1">
          <mxGeometry x="360.0040157480315" y="399.5956756756757" width="150" height="80" as="geometry" />
        </mxCell>
        <mxCell id="7zn35PvWmJtqcguIeIPs-69" style="edgeStyle=orthogonalEdgeStyle;rounded=0;orthogonalLoop=1;jettySize=auto;html=1;exitX=0.5;exitY=0;exitDx=0;exitDy=0;entryX=0.001;entryY=0.873;entryDx=0;entryDy=0;entryPerimeter=0;endArrow=block;endFill=0;" parent="7zn35PvWmJtqcguIeIPs-1" source="7zn35PvWmJtqcguIeIPs-33" target="7zn35PvWmJtqcguIeIPs-7" edge="1">
          <mxGeometry relative="1" as="geometry" />
        </mxCell>
        <mxCell id="7zn35PvWmJtqcguIeIPs-33" value="&lt;p style=&quot;margin:0px;margin-top:4px;text-align:center;&quot;&gt;&lt;b&gt;AskForBoard&lt;/b&gt;&lt;/p&gt;&lt;hr size=&quot;1&quot;&gt;&lt;p style=&quot;margin:0px;margin-left:4px;&quot;&gt;- serialVersionUID: long&lt;/p&gt;&lt;hr size=&quot;1&quot;&gt;&lt;p style=&quot;margin:0px;margin-left:4px;&quot;&gt;+ execute(Engine): void&lt;/p&gt;" style="verticalAlign=top;align=left;overflow=fill;fontSize=12;fontFamily=Helvetica;html=1;whiteSpace=wrap;fillColor=none;" parent="7zn35PvWmJtqcguIeIPs-1" vertex="1">
          <mxGeometry x="510.00479436315106" y="234.99567567567564" width="150" height="80" as="geometry" />
        </mxCell>
        <mxCell id="7zn35PvWmJtqcguIeIPs-70" style="edgeStyle=orthogonalEdgeStyle;rounded=0;orthogonalLoop=1;jettySize=auto;html=1;exitX=0.5;exitY=0;exitDx=0;exitDy=0;entryX=-0.003;entryY=0.21;entryDx=0;entryDy=0;entryPerimeter=0;endArrow=block;endFill=0;" parent="7zn35PvWmJtqcguIeIPs-1" source="7zn35PvWmJtqcguIeIPs-32" target="7zn35PvWmJtqcguIeIPs-9" edge="1">
          <mxGeometry relative="1" as="geometry" />
        </mxCell>
        <mxCell id="7zn35PvWmJtqcguIeIPs-32" value="&lt;p style=&quot;margin:0px;margin-top:4px;text-align:center;&quot;&gt;&lt;b&gt;AskForChat&lt;/b&gt;&lt;/p&gt;&lt;hr size=&quot;1&quot;&gt;&lt;p style=&quot;margin:0px;margin-left:4px;&quot;&gt;- serialVersionUID: long&lt;/p&gt;&lt;hr size=&quot;1&quot;&gt;&lt;p style=&quot;margin:0px;margin-left:4px;&quot;&gt;+ execute(Engine): void&lt;/p&gt;" style="verticalAlign=top;align=left;overflow=fill;fontSize=12;fontFamily=Helvetica;html=1;whiteSpace=wrap;fillColor=none;" parent="7zn35PvWmJtqcguIeIPs-1" vertex="1">
          <mxGeometry x="710.01" y="230" width="150" height="85" as="geometry" />
        </mxCell>
        <mxCell id="7zn35PvWmJtqcguIeIPs-93" style="edgeStyle=orthogonalEdgeStyle;rounded=0;orthogonalLoop=1;jettySize=auto;html=1;exitX=0.5;exitY=0;exitDx=0;exitDy=0;entryX=0.369;entryY=1.03;entryDx=0;entryDy=0;entryPerimeter=0;endArrow=block;endFill=0;" parent="7zn35PvWmJtqcguIeIPs-1" source="7zn35PvWmJtqcguIeIPs-31" target="7zn35PvWmJtqcguIeIPs-9" edge="1">
          <mxGeometry relative="1" as="geometry" />
        </mxCell>
        <mxCell id="7zn35PvWmJtqcguIeIPs-31" value="&lt;p style=&quot;margin:0px;margin-top:4px;text-align:center;&quot;&gt;&lt;b&gt;AskForCommonGoals&lt;/b&gt;&lt;/p&gt;&lt;hr size=&quot;1&quot;&gt;&lt;p style=&quot;margin:0px;margin-left:4px;&quot;&gt;- serialVersionUID: long&lt;/p&gt;&lt;hr size=&quot;1&quot;&gt;&lt;p style=&quot;margin:0px;margin-left:4px;&quot;&gt;+ execute(Engine): void&lt;/p&gt;" style="verticalAlign=top;align=left;overflow=fill;fontSize=12;fontFamily=Helvetica;html=1;whiteSpace=wrap;fillColor=none;" parent="7zn35PvWmJtqcguIeIPs-1" vertex="1">
          <mxGeometry x="919.9967116690884" y="239.99567567567564" width="150" height="80" as="geometry" />
        </mxCell>
        <mxCell id="7zn35PvWmJtqcguIeIPs-89" style="edgeStyle=orthogonalEdgeStyle;rounded=0;orthogonalLoop=1;jettySize=auto;html=1;exitX=0.5;exitY=0;exitDx=0;exitDy=0;entryX=0.873;entryY=0.991;entryDx=0;entryDy=0;entryPerimeter=0;endArrow=block;endFill=0;" parent="7zn35PvWmJtqcguIeIPs-1" source="7zn35PvWmJtqcguIeIPs-30" target="7zn35PvWmJtqcguIeIPs-9" edge="1">
          <mxGeometry relative="1" as="geometry" />
        </mxCell>
        <mxCell id="7zn35PvWmJtqcguIeIPs-30" value="&lt;p style=&quot;text-align: center; margin: 4px 0px 0px;&quot;&gt;&lt;b&gt;AskForCurrentPlayer&lt;/b&gt;&lt;/p&gt;&lt;hr size=&quot;1&quot;&gt;&lt;p style=&quot;margin:0px;margin-left:4px;&quot;&gt;- serialVersionUID: long&lt;/p&gt;&lt;hr size=&quot;1&quot;&gt;&lt;p style=&quot;margin:0px;margin-left:4px;&quot;&gt;+ execute(Engine): void&lt;/p&gt;" style="verticalAlign=top;align=left;overflow=fill;fontSize=12;fontFamily=Helvetica;html=1;whiteSpace=wrap;fillColor=none;" parent="7zn35PvWmJtqcguIeIPs-1" vertex="1">
          <mxGeometry x="1159.9981230779629" y="234.99567567567564" width="150" height="80" as="geometry" />
        </mxCell>
        <mxCell id="7zn35PvWmJtqcguIeIPs-84" style="edgeStyle=orthogonalEdgeStyle;rounded=0;orthogonalLoop=1;jettySize=auto;html=1;exitX=0.5;exitY=0;exitDx=0;exitDy=0;entryX=1.004;entryY=0.952;entryDx=0;entryDy=0;entryPerimeter=0;endArrow=block;endFill=0;" parent="7zn35PvWmJtqcguIeIPs-1" source="7zn35PvWmJtqcguIeIPs-29" target="7zn35PvWmJtqcguIeIPs-9" edge="1">
          <mxGeometry relative="1" as="geometry" />
        </mxCell>
        <mxCell id="7zn35PvWmJtqcguIeIPs-29" value="&lt;p style=&quot;margin:0px;margin-top:4px;text-align:center;&quot;&gt;&lt;b&gt;AskForPersonalGoal&lt;/b&gt;&lt;/p&gt;&lt;hr size=&quot;1&quot;&gt;&lt;p style=&quot;margin:0px;margin-left:4px;&quot;&gt;- serialVersionUID: long&lt;/p&gt;&lt;hr size=&quot;1&quot;&gt;&lt;p style=&quot;margin:0px;margin-left:4px;&quot;&gt;+ execute(Engine): void&lt;/p&gt;" style="verticalAlign=top;align=left;overflow=fill;fontSize=12;fontFamily=Helvetica;html=1;whiteSpace=wrap;fillColor=none;" parent="7zn35PvWmJtqcguIeIPs-1" vertex="1">
          <mxGeometry x="1320.0031171640023" y="234.99567567567564" width="150" height="80" as="geometry" />
        </mxCell>
        <mxCell id="7zn35PvWmJtqcguIeIPs-85" style="edgeStyle=orthogonalEdgeStyle;rounded=0;orthogonalLoop=1;jettySize=auto;html=1;exitX=0.5;exitY=0;exitDx=0;exitDy=0;entryX=0.995;entryY=0.844;entryDx=0;entryDy=0;entryPerimeter=0;endArrow=block;endFill=0;" parent="7zn35PvWmJtqcguIeIPs-1" source="7zn35PvWmJtqcguIeIPs-28" target="7zn35PvWmJtqcguIeIPs-7" edge="1">
          <mxGeometry relative="1" as="geometry" />
        </mxCell>
        <mxCell id="7zn35PvWmJtqcguIeIPs-28" value="&lt;p style=&quot;margin:0px;margin-top:4px;text-align:center;&quot;&gt;&lt;b&gt;AskForResults&lt;/b&gt;&lt;/p&gt;&lt;hr size=&quot;1&quot;&gt;&lt;p style=&quot;margin:0px;margin-left:4px;&quot;&gt;- serialVersionUID: long&lt;/p&gt;&lt;hr size=&quot;1&quot;&gt;&lt;p style=&quot;margin:0px;margin-left:4px;&quot;&gt;+ execute(Engine): void&lt;/p&gt;" style="verticalAlign=top;align=left;overflow=fill;fontSize=12;fontFamily=Helvetica;html=1;whiteSpace=wrap;fillColor=none;" parent="7zn35PvWmJtqcguIeIPs-1" vertex="1">
          <mxGeometry x="1609.999016761853" y="234.99567567567564" width="150" height="80" as="geometry" />
        </mxCell>
        <mxCell id="7zn35PvWmJtqcguIeIPs-75" style="edgeStyle=orthogonalEdgeStyle;rounded=0;orthogonalLoop=1;jettySize=auto;html=1;exitX=0.5;exitY=0;exitDx=0;exitDy=0;endArrow=block;endFill=0;" parent="7zn35PvWmJtqcguIeIPs-1" source="7zn35PvWmJtqcguIeIPs-27" target="7zn35PvWmJtqcguIeIPs-7" edge="1">
          <mxGeometry relative="1" as="geometry" />
        </mxCell>
        <mxCell id="7zn35PvWmJtqcguIeIPs-27" value="&lt;p style=&quot;margin:0px;margin-top:4px;text-align:center;&quot;&gt;&lt;b&gt;AskForShelf&lt;/b&gt;&lt;/p&gt;&lt;hr size=&quot;1&quot;&gt;&lt;p style=&quot;margin:0px;margin-left:4px;&quot;&gt;- serialVersionUID: long&lt;/p&gt;&lt;hr size=&quot;1&quot;&gt;&lt;p style=&quot;margin:0px;margin-left:4px;&quot;&gt;+ execute(Engine): void&lt;/p&gt;" style="verticalAlign=top;align=left;overflow=fill;fontSize=12;fontFamily=Helvetica;html=1;whiteSpace=wrap;fillColor=none;" parent="7zn35PvWmJtqcguIeIPs-1" vertex="1">
          <mxGeometry x="1780.0028398837485" y="234.99567567567564" width="150" height="80" as="geometry" />
        </mxCell>
        <mxCell id="7zn35PvWmJtqcguIeIPs-76" style="edgeStyle=orthogonalEdgeStyle;rounded=0;orthogonalLoop=1;jettySize=auto;html=1;exitX=0.5;exitY=0;exitDx=0;exitDy=0;entryX=0.996;entryY=0.107;entryDx=0;entryDy=0;entryPerimeter=0;endArrow=block;endFill=0;" parent="7zn35PvWmJtqcguIeIPs-1" source="7zn35PvWmJtqcguIeIPs-26" target="7zn35PvWmJtqcguIeIPs-7" edge="1">
          <mxGeometry relative="1" as="geometry" />
        </mxCell>
        <mxCell id="7zn35PvWmJtqcguIeIPs-26" value="&lt;p style=&quot;margin:0px;margin-top:4px;text-align:center;&quot;&gt;&lt;b&gt;AskForTemporaryTiles&lt;/b&gt;&lt;/p&gt;&lt;hr size=&quot;1&quot;&gt;&lt;p style=&quot;margin:0px;margin-left:4px;&quot;&gt;- serialVersionUID: long&lt;/p&gt;&lt;hr size=&quot;1&quot;&gt;&lt;p style=&quot;margin:0px;margin-left:4px;&quot;&gt;+ execute(Engine): void&lt;/p&gt;" style="verticalAlign=top;align=left;overflow=fill;fontSize=12;fontFamily=Helvetica;html=1;whiteSpace=wrap;fillColor=none;" parent="7zn35PvWmJtqcguIeIPs-1" vertex="1">
          <mxGeometry x="1949.9987394815994" y="234.99567567567564" width="150" height="80" as="geometry" />
        </mxCell>
        <mxCell id="7zn35PvWmJtqcguIeIPs-77" style="edgeStyle=orthogonalEdgeStyle;rounded=0;orthogonalLoop=1;jettySize=auto;html=1;exitX=0.5;exitY=0;exitDx=0;exitDy=0;entryX=1;entryY=0.131;entryDx=0;entryDy=0;entryPerimeter=0;endArrow=block;endFill=0;" parent="7zn35PvWmJtqcguIeIPs-1" source="7zn35PvWmJtqcguIeIPs-25" target="7zn35PvWmJtqcguIeIPs-6" edge="1">
          <mxGeometry relative="1" as="geometry" />
        </mxCell>
        <mxCell id="7zn35PvWmJtqcguIeIPs-25" value="&lt;p style=&quot;margin:0px;margin-top:4px;text-align:center;&quot;&gt;&lt;b&gt;ChatMessage&lt;/b&gt;&lt;/p&gt;&lt;hr size=&quot;1&quot;&gt;&lt;p style=&quot;margin:0px;margin-left:4px;&quot;&gt;- serialVersionUID: long&lt;/p&gt;&lt;hr size=&quot;1&quot;&gt;&lt;p style=&quot;margin:0px;margin-left:4px;&quot;&gt;+ execute(Engine): void&lt;/p&gt;" style="verticalAlign=top;align=left;overflow=fill;fontSize=12;fontFamily=Helvetica;html=1;whiteSpace=wrap;fillColor=none;" parent="7zn35PvWmJtqcguIeIPs-1" vertex="1">
          <mxGeometry x="2129.995847982965" y="234.99567567567564" width="150" height="80" as="geometry" />
        </mxCell>
        <mxCell id="7zn35PvWmJtqcguIeIPs-94" style="edgeStyle=orthogonalEdgeStyle;rounded=0;orthogonalLoop=1;jettySize=auto;html=1;exitX=0.5;exitY=0;exitDx=0;exitDy=0;entryX=1.004;entryY=0.042;entryDx=0;entryDy=0;entryPerimeter=0;endArrow=block;endFill=0;" parent="7zn35PvWmJtqcguIeIPs-1" source="7zn35PvWmJtqcguIeIPs-24" target="7zn35PvWmJtqcguIeIPs-9" edge="1">
          <mxGeometry relative="1" as="geometry">
            <Array as="points">
              <mxPoint x="2175" y="330" />
              <mxPoint x="1550" y="330" />
              <mxPoint x="1550" y="139" />
            </Array>
          </mxGeometry>
        </mxCell>
        <mxCell id="7zn35PvWmJtqcguIeIPs-24" value="&lt;p style=&quot;margin:0px;margin-top:4px;text-align:center;&quot;&gt;&lt;b&gt;SendNickname&lt;/b&gt;&lt;/p&gt;&lt;hr size=&quot;1&quot;&gt;&lt;p style=&quot;margin:0px;margin-left:4px;&quot;&gt;- serialVersionUID: long&lt;/p&gt;&lt;hr size=&quot;1&quot;&gt;&lt;p style=&quot;margin:0px;margin-left:4px;&quot;&gt;+ execute(Engine): void&lt;/p&gt;" style="verticalAlign=top;align=left;overflow=fill;fontSize=12;fontFamily=Helvetica;html=1;whiteSpace=wrap;fillColor=none;" parent="7zn35PvWmJtqcguIeIPs-1" vertex="1">
          <mxGeometry x="2099.9987394815994" y="399.59351351351347" width="150" height="80" as="geometry" />
        </mxCell>
        <mxCell id="7zn35PvWmJtqcguIeIPs-91" style="edgeStyle=orthogonalEdgeStyle;rounded=0;orthogonalLoop=1;jettySize=auto;html=1;exitX=0.5;exitY=0;exitDx=0;exitDy=0;entryX=1.005;entryY=0.363;entryDx=0;entryDy=0;entryPerimeter=0;endArrow=block;endFill=0;" parent="7zn35PvWmJtqcguIeIPs-1" edge="1">
          <mxGeometry relative="1" as="geometry">
            <mxPoint x="1973.0828398837484" y="399.59351351351347" as="sourcePoint" />
            <mxPoint x="1236.0549999999998" y="160.22701594594605" as="targetPoint" />
            <Array as="points">
              <mxPoint x="1973.08" y="350" />
              <mxPoint x="1508.08" y="350" />
              <mxPoint x="1508.08" y="160" />
            </Array>
          </mxGeometry>
        </mxCell>
        <mxCell id="7zn35PvWmJtqcguIeIPs-23" value="&lt;p style=&quot;margin:0px;margin-top:4px;text-align:center;&quot;&gt;&lt;b&gt;NotActive&lt;/b&gt;&lt;/p&gt;&lt;hr size=&quot;1&quot;&gt;&lt;p style=&quot;margin:0px;margin-left:4px;&quot;&gt;- serialVersionUID: long&lt;/p&gt;&lt;hr size=&quot;1&quot;&gt;&lt;p style=&quot;margin:0px;margin-left:4px;&quot;&gt;+ execute(Engine): void&lt;/p&gt;" style="verticalAlign=top;align=left;overflow=fill;fontSize=12;fontFamily=Helvetica;html=1;whiteSpace=wrap;fillColor=none;" parent="7zn35PvWmJtqcguIeIPs-1" vertex="1">
          <mxGeometry x="1900.0028398837485" y="399.59351351351347" width="150" height="80" as="geometry" />
        </mxCell>
        <mxCell id="7zn35PvWmJtqcguIeIPs-90" style="edgeStyle=orthogonalEdgeStyle;rounded=0;orthogonalLoop=1;jettySize=auto;html=1;exitX=0.5;exitY=0;exitDx=0;exitDy=0;entryX=1.004;entryY=0.669;entryDx=0;entryDy=0;entryPerimeter=0;endArrow=block;endFill=0;" parent="7zn35PvWmJtqcguIeIPs-1" source="7zn35PvWmJtqcguIeIPs-22" target="7zn35PvWmJtqcguIeIPs-9" edge="1">
          <mxGeometry relative="1" as="geometry">
            <Array as="points">
              <mxPoint x="1765" y="360" />
              <mxPoint x="1490" y="360" />
              <mxPoint x="1490" y="181" />
            </Array>
          </mxGeometry>
        </mxCell>
        <mxCell id="7zn35PvWmJtqcguIeIPs-22" value="&lt;p style=&quot;margin:0px;margin-top:4px;text-align:center;&quot;&gt;&lt;b&gt;LoadGameSelection&lt;/b&gt;&lt;/p&gt;&lt;hr size=&quot;1&quot;&gt;&lt;p style=&quot;margin:0px;margin-left:4px;&quot;&gt;- serialVersionUID: long&lt;/p&gt;&lt;hr size=&quot;1&quot;&gt;&lt;p style=&quot;margin:0px;margin-left:4px;&quot;&gt;+ execute(Engine): void&lt;/p&gt;" style="verticalAlign=top;align=left;overflow=fill;fontSize=12;fontFamily=Helvetica;html=1;whiteSpace=wrap;fillColor=none;" parent="7zn35PvWmJtqcguIeIPs-1" vertex="1">
          <mxGeometry x="1689.999016761853" y="399.58972972972964" width="150" height="80" as="geometry" />
        </mxCell>
        <mxCell id="7zn35PvWmJtqcguIeIPs-88" style="edgeStyle=orthogonalEdgeStyle;rounded=0;orthogonalLoop=1;jettySize=auto;html=1;exitX=0.5;exitY=0;exitDx=0;exitDy=0;entryX=0.755;entryY=0.999;entryDx=0;entryDy=0;entryPerimeter=0;endArrow=block;endFill=0;" parent="7zn35PvWmJtqcguIeIPs-1" source="7zn35PvWmJtqcguIeIPs-21" target="7zn35PvWmJtqcguIeIPs-9" edge="1">
          <mxGeometry relative="1" as="geometry">
            <Array as="points">
              <mxPoint x="1555" y="370" />
              <mxPoint x="1142" y="370" />
            </Array>
          </mxGeometry>
        </mxCell>
        <mxCell id="7zn35PvWmJtqcguIeIPs-21" value="&lt;p style=&quot;margin:0px;margin-top:4px;text-align:center;&quot;&gt;&lt;b&gt;EndTurnExit&lt;/b&gt;&lt;/p&gt;&lt;hr size=&quot;1&quot;&gt;&lt;p style=&quot;margin:0px;margin-left:4px;&quot;&gt;- serialVersionUID: long&lt;/p&gt;&lt;hr size=&quot;1&quot;&gt;&lt;p style=&quot;margin:0px;margin-left:4px;&quot;&gt;+ execute(Engine): void&lt;/p&gt;" style="verticalAlign=top;align=left;overflow=fill;fontSize=12;fontFamily=Helvetica;html=1;whiteSpace=wrap;fillColor=none;" parent="7zn35PvWmJtqcguIeIPs-1" vertex="1">
          <mxGeometry x="1480.002414585516" y="399.5921621621621" width="150" height="80" as="geometry" />
        </mxCell>
        <mxCell id="7zn35PvWmJtqcguIeIPs-87" style="edgeStyle=orthogonalEdgeStyle;rounded=0;orthogonalLoop=1;jettySize=auto;html=1;exitX=0.5;exitY=0;exitDx=0;exitDy=0;entryX=0.713;entryY=0.999;entryDx=0;entryDy=0;entryPerimeter=0;endArrow=block;endFill=0;" parent="7zn35PvWmJtqcguIeIPs-1" source="7zn35PvWmJtqcguIeIPs-20" target="7zn35PvWmJtqcguIeIPs-9" edge="1">
          <mxGeometry relative="1" as="geometry">
            <Array as="points">
              <mxPoint x="1345" y="390" />
              <mxPoint x="1126" y="390" />
            </Array>
          </mxGeometry>
        </mxCell>
        <mxCell id="7zn35PvWmJtqcguIeIPs-20" value="&lt;p style=&quot;margin:0px;margin-top:4px;text-align:center;&quot;&gt;&lt;b&gt;EndTurn&lt;/b&gt;&lt;/p&gt;&lt;hr size=&quot;1&quot;&gt;&lt;p style=&quot;margin:0px;margin-left:4px;&quot;&gt;- serialVersionUID: long&lt;/p&gt;&lt;hr size=&quot;1&quot;&gt;&lt;p style=&quot;margin:0px;margin-left:4px;&quot;&gt;+ execute(Engine): void&lt;/p&gt;" style="verticalAlign=top;align=left;overflow=fill;fontSize=12;fontFamily=Helvetica;html=1;whiteSpace=wrap;fillColor=none;" parent="7zn35PvWmJtqcguIeIPs-1" vertex="1">
          <mxGeometry x="1269.9981230779629" y="399.5921621621621" width="150" height="80" as="geometry" />
        </mxCell>
        <mxCell id="7zn35PvWmJtqcguIeIPs-86" style="edgeStyle=orthogonalEdgeStyle;rounded=0;orthogonalLoop=1;jettySize=auto;html=1;exitX=0.5;exitY=0;exitDx=0;exitDy=0;entryX=0.684;entryY=0.999;entryDx=0;entryDy=0;entryPerimeter=0;endArrow=block;endFill=0;" parent="7zn35PvWmJtqcguIeIPs-1" source="7zn35PvWmJtqcguIeIPs-19" target="7zn35PvWmJtqcguIeIPs-9" edge="1">
          <mxGeometry relative="1" as="geometry">
            <Array as="points">
              <mxPoint x="1114" y="400" />
            </Array>
          </mxGeometry>
        </mxCell>
        <mxCell id="7zn35PvWmJtqcguIeIPs-19" value="&lt;p style=&quot;margin:0px;margin-top:4px;text-align:center;&quot;&gt;&lt;b&gt;DeleteModelObserver&lt;/b&gt;&lt;/p&gt;&lt;hr size=&quot;1&quot;&gt;&lt;p style=&quot;margin:0px;margin-left:4px;&quot;&gt;- serialVersionUID: long&lt;/p&gt;&lt;hr size=&quot;1&quot;&gt;&lt;p style=&quot;margin:0px;margin-left:4px;&quot;&gt;+ execute(Engine): void&lt;/p&gt;" style="verticalAlign=top;align=left;overflow=fill;fontSize=12;fontFamily=Helvetica;html=1;whiteSpace=wrap;fillColor=none;" parent="7zn35PvWmJtqcguIeIPs-1" vertex="1">
          <mxGeometry x="1079.9967116690884" y="399.5945945945945" width="150" height="80" as="geometry" />
        </mxCell>
        <mxCell id="7zn35PvWmJtqcguIeIPs-83" style="edgeStyle=orthogonalEdgeStyle;rounded=0;orthogonalLoop=1;jettySize=auto;html=1;exitX=0.5;exitY=0;exitDx=0;exitDy=0;entryX=0.638;entryY=0.992;entryDx=0;entryDy=0;entryPerimeter=0;endArrow=block;endFill=0;" parent="7zn35PvWmJtqcguIeIPs-1" source="7zn35PvWmJtqcguIeIPs-18" target="7zn35PvWmJtqcguIeIPs-9" edge="1">
          <mxGeometry relative="1" as="geometry">
            <Array as="points">
              <mxPoint x="965" y="380" />
              <mxPoint x="1097" y="380" />
            </Array>
          </mxGeometry>
        </mxCell>
        <mxCell id="7zn35PvWmJtqcguIeIPs-18" value="&lt;p style=&quot;margin:0px;margin-top:4px;text-align:center;&quot;&gt;&lt;b&gt;Connect&lt;/b&gt;&lt;/p&gt;&lt;hr size=&quot;1&quot;&gt;&lt;p style=&quot;margin:0px;margin-left:4px;&quot;&gt;- serialVersionUID: long&lt;/p&gt;&lt;hr size=&quot;1&quot;&gt;&lt;p style=&quot;margin:0px;margin-left:4px;&quot;&gt;+ execute(Engine): void&lt;/p&gt;" style="verticalAlign=top;align=left;overflow=fill;fontSize=12;fontFamily=Helvetica;html=1;whiteSpace=wrap;fillColor=none;" parent="7zn35PvWmJtqcguIeIPs-1" vertex="1">
          <mxGeometry x="889.9962057720254" y="399.5921621621621" width="150" height="80" as="geometry" />
        </mxCell>
        <mxCell id="7zn35PvWmJtqcguIeIPs-82" style="edgeStyle=orthogonalEdgeStyle;rounded=0;orthogonalLoop=1;jettySize=auto;html=1;exitX=0.5;exitY=0;exitDx=0;exitDy=0;entryX=0.6;entryY=1.005;entryDx=0;entryDy=0;entryPerimeter=0;endArrow=block;endFill=0;" parent="7zn35PvWmJtqcguIeIPs-1" source="7zn35PvWmJtqcguIeIPs-17" target="7zn35PvWmJtqcguIeIPs-9" edge="1">
          <mxGeometry relative="1" as="geometry">
            <Array as="points">
              <mxPoint x="785" y="370" />
              <mxPoint x="1082" y="370" />
            </Array>
          </mxGeometry>
        </mxCell>
        <mxCell id="7zn35PvWmJtqcguIeIPs-17" value="&lt;p style=&quot;margin:0px;margin-top:4px;text-align:center;&quot;&gt;&lt;b&gt;ConfirmTileSelection&lt;/b&gt;&lt;/p&gt;&lt;hr size=&quot;1&quot;&gt;&lt;p style=&quot;margin:0px;margin-left:4px;&quot;&gt;- serialVersionUID: long&lt;/p&gt;&lt;hr size=&quot;1&quot;&gt;&lt;p style=&quot;margin:0px;margin-left:4px;&quot;&gt;+ execute(Engine): void&lt;/p&gt;" style="verticalAlign=top;align=left;overflow=fill;fontSize=12;fontFamily=Helvetica;html=1;whiteSpace=wrap;fillColor=none;" parent="7zn35PvWmJtqcguIeIPs-1" vertex="1">
          <mxGeometry x="710.0047943631513" y="399.5921621621621" width="150" height="80" as="geometry" />
        </mxCell>
        <mxCell id="7zn35PvWmJtqcguIeIPs-81" style="edgeStyle=orthogonalEdgeStyle;rounded=0;orthogonalLoop=1;jettySize=auto;html=1;exitX=0.5;exitY=0;exitDx=0;exitDy=0;entryX=0.151;entryY=0.992;entryDx=0;entryDy=0;entryPerimeter=0;endArrow=block;endFill=0;" parent="7zn35PvWmJtqcguIeIPs-1" source="7zn35PvWmJtqcguIeIPs-16" target="7zn35PvWmJtqcguIeIPs-9" edge="1">
          <mxGeometry relative="1" as="geometry">
            <Array as="points">
              <mxPoint x="605" y="360" />
              <mxPoint x="909" y="360" />
            </Array>
          </mxGeometry>
        </mxCell>
        <mxCell id="7zn35PvWmJtqcguIeIPs-16" value="&lt;p style=&quot;margin:0px;margin-top:4px;text-align:center;&quot;&gt;&lt;b&gt;ConfirmTilePlacement&lt;/b&gt;&lt;/p&gt;&lt;hr size=&quot;1&quot;&gt;&lt;p style=&quot;margin:0px;margin-left:4px;&quot;&gt;- serialVersionUID: long&lt;/p&gt;&lt;hr size=&quot;1&quot;&gt;&lt;p style=&quot;margin:0px;margin-left:4px;&quot;&gt;+ execute(Engine): void&lt;/p&gt;" style="verticalAlign=top;align=left;overflow=fill;fontSize=12;fontFamily=Helvetica;html=1;whiteSpace=wrap;fillColor=none;" parent="7zn35PvWmJtqcguIeIPs-1" vertex="1">
          <mxGeometry x="530.0040157480315" y="399.5921621621621" width="150" height="80" as="geometry" />
        </mxCell>
        <mxCell id="7zn35PvWmJtqcguIeIPs-78" style="edgeStyle=orthogonalEdgeStyle;rounded=0;orthogonalLoop=1;jettySize=auto;html=1;exitX=0.5;exitY=0;exitDx=0;exitDy=0;entryX=0.059;entryY=1.005;entryDx=0;entryDy=0;entryPerimeter=0;endArrow=block;endFill=0;" parent="7zn35PvWmJtqcguIeIPs-1" source="7zn35PvWmJtqcguIeIPs-15" target="7zn35PvWmJtqcguIeIPs-9" edge="1">
          <mxGeometry relative="1" as="geometry">
            <Array as="points">
              <mxPoint x="85" y="330" />
              <mxPoint x="874" y="330" />
            </Array>
          </mxGeometry>
        </mxCell>
        <mxCell id="7zn35PvWmJtqcguIeIPs-15" value="&lt;p style=&quot;margin:0px;margin-top:4px;text-align:center;&quot;&gt;&lt;b&gt;ConfirmColumnSelection&lt;/b&gt;&lt;/p&gt;&lt;hr size=&quot;1&quot;&gt;&lt;p style=&quot;margin:0px;margin-left:4px;&quot;&gt;- serialVersionUID: long&lt;/p&gt;&lt;hr size=&quot;1&quot;&gt;&lt;p style=&quot;margin:0px;margin-left:4px;&quot;&gt;+ execute(Engine): void&lt;/p&gt;" style="verticalAlign=top;align=left;overflow=fill;fontSize=12;fontFamily=Helvetica;html=1;whiteSpace=wrap;fillColor=none;" parent="7zn35PvWmJtqcguIeIPs-1" vertex="1">
          <mxGeometry x="10" y="399.59" width="150" height="80" as="geometry" />
        </mxCell>
        <mxCell id="7zn35PvWmJtqcguIeIPs-96" value="" style="shape=folder;fontStyle=1;tabWidth=120;tabHeight=30;tabPosition=left;html=1;boundedLbl=1;labelInHeader=1;container=1;collapsible=0;whiteSpace=wrap;fillColor=none;" parent="1" vertex="1">
          <mxGeometry x="300" y="-1700" width="2310" height="770" as="geometry" />
        </mxCell>
        <mxCell id="7zn35PvWmJtqcguIeIPs-97" value="" style="html=1;strokeColor=none;resizeWidth=1;resizeHeight=1;fillColor=none;part=1;connectable=0;allowArrows=0;deletable=0;whiteSpace=wrap;" parent="7zn35PvWmJtqcguIeIPs-96" vertex="1">
          <mxGeometry width="2128.11" height="567" relative="1" as="geometry">
            <mxPoint y="10" as="offset" />
          </mxGeometry>
        </mxCell>
        <mxCell id="7zn35PvWmJtqcguIeIPs-98" value="ResponseMessage" style="text;html=1;strokeColor=none;fillColor=none;align=center;verticalAlign=middle;whiteSpace=wrap;rounded=0;" parent="7zn35PvWmJtqcguIeIPs-96" vertex="1">
          <mxGeometry x="0.003053986898574834" width="121.57894736842103" height="31.216216216216214" as="geometry" />
        </mxCell>
        <mxCell id="7zn35PvWmJtqcguIeIPs-99" value="&amp;lt;&amp;lt;Abstract Class&amp;gt;&amp;gt;&lt;br&gt;ResponseMessage" style="swimlane;fontStyle=1;align=center;verticalAlign=top;childLayout=stackLayout;horizontal=1;startSize=40;horizontalStack=0;resizeParent=1;resizeParentMax=0;resizeLast=0;collapsible=1;marginBottom=0;whiteSpace=wrap;html=1;" parent="7zn35PvWmJtqcguIeIPs-96" vertex="1">
          <mxGeometry x="851.05" y="220" width="385" height="211.97032432432434" as="geometry" />
        </mxCell>
        <mxCell id="7zn35PvWmJtqcguIeIPs-100" value="- serialVersionUID: long&lt;br&gt;" style="text;strokeColor=none;fillColor=none;align=left;verticalAlign=top;spacingLeft=4;spacingRight=4;overflow=hidden;rotatable=0;points=[[0,0.5],[1,0.5]];portConstraint=eastwest;whiteSpace=wrap;html=1;" parent="7zn35PvWmJtqcguIeIPs-99" vertex="1">
          <mxGeometry y="40" width="385" height="70" as="geometry" />
        </mxCell>
        <mxCell id="7zn35PvWmJtqcguIeIPs-101" value="" style="line;strokeWidth=1;fillColor=none;align=left;verticalAlign=middle;spacingTop=-1;spacingLeft=3;spacingRight=3;rotatable=0;labelPosition=right;points=[];portConstraint=eastwest;strokeColor=inherit;" parent="7zn35PvWmJtqcguIeIPs-99" vertex="1">
          <mxGeometry y="110" width="385" height="8.324324324324323" as="geometry" />
        </mxCell>
        <mxCell id="7zn35PvWmJtqcguIeIPs-102" value="+ execute(TextualUI): void&lt;br&gt;+ execute(GuiManager): void&lt;br&gt;+ getModel(): SerializableGame" style="text;strokeColor=none;fillColor=none;align=left;verticalAlign=top;spacingLeft=4;spacingRight=4;overflow=hidden;rotatable=0;points=[[0,0.5],[1,0.5]];portConstraint=eastwest;whiteSpace=wrap;html=1;" parent="7zn35PvWmJtqcguIeIPs-99" vertex="1">
          <mxGeometry y="118.32432432432432" width="385" height="93.646" as="geometry" />
        </mxCell>
        <mxCell id="7zn35PvWmJtqcguIeIPs-103" style="edgeStyle=orthogonalEdgeStyle;rounded=0;orthogonalLoop=1;jettySize=auto;html=1;exitX=0.5;exitY=0;exitDx=0;exitDy=0;entryX=0;entryY=0.25;entryDx=0;entryDy=0;endArrow=block;endFill=0;" parent="7zn35PvWmJtqcguIeIPs-96" source="7zn35PvWmJtqcguIeIPs-104" target="7zn35PvWmJtqcguIeIPs-99" edge="1">
          <mxGeometry relative="1" as="geometry" />
        </mxCell>
        <mxCell id="7zn35PvWmJtqcguIeIPs-104" value="&lt;p style=&quot;margin:0px;margin-top:4px;text-align:center;&quot;&gt;&lt;b&gt;AskLoadGame&lt;/b&gt;&lt;/p&gt;&lt;hr size=&quot;1&quot;&gt;&lt;p style=&quot;margin:0px;margin-left:4px;&quot;&gt;- serialVersionUID: long&lt;/p&gt;&lt;hr size=&quot;1&quot;&gt;&lt;p style=&quot;margin:0px;margin-left:4px;&quot;&gt;+ execute(TextualUI): void&lt;br style=&quot;border-color: var(--border-color);&quot;&gt;+ execute(GuiManager): void&lt;br&gt;&lt;/p&gt;" style="verticalAlign=top;align=left;overflow=fill;fontSize=12;fontFamily=Helvetica;html=1;whiteSpace=wrap;fillColor=none;" parent="7zn35PvWmJtqcguIeIPs-96" vertex="1">
          <mxGeometry x="10" y="444.49" width="160" height="112" as="geometry" />
        </mxCell>
        <mxCell id="7zn35PvWmJtqcguIeIPs-105" style="edgeStyle=orthogonalEdgeStyle;rounded=0;orthogonalLoop=1;jettySize=auto;html=1;exitX=0.5;exitY=0;exitDx=0;exitDy=0;entryX=0.09;entryY=1.005;entryDx=0;entryDy=0;entryPerimeter=0;endArrow=block;endFill=0;" parent="7zn35PvWmJtqcguIeIPs-96" source="7zn35PvWmJtqcguIeIPs-106" target="7zn35PvWmJtqcguIeIPs-102" edge="1">
          <mxGeometry relative="1" as="geometry">
            <Array as="points">
              <mxPoint x="265" y="580" />
              <mxPoint x="886" y="580" />
            </Array>
          </mxGeometry>
        </mxCell>
        <mxCell id="7zn35PvWmJtqcguIeIPs-106" value="&lt;p style=&quot;margin:0px;margin-top:4px;text-align:center;&quot;&gt;&lt;b&gt;FinishedInserting&lt;/b&gt;&lt;/p&gt;&lt;hr size=&quot;1&quot;&gt;&lt;p style=&quot;margin:0px;margin-left:4px;&quot;&gt;- serialVersionUID: long&lt;/p&gt;&lt;hr size=&quot;1&quot;&gt;&lt;p style=&quot;margin:0px;margin-left:4px;&quot;&gt;+ execute(TextualUI): void&lt;br style=&quot;border-color: var(--border-color);&quot;&gt;+ execute(GuiManager): void&lt;br&gt;&lt;/p&gt;" style="verticalAlign=top;align=left;overflow=fill;fontSize=12;fontFamily=Helvetica;html=1;whiteSpace=wrap;fillColor=none;" parent="7zn35PvWmJtqcguIeIPs-96" vertex="1">
          <mxGeometry x="180" y="640" width="160" height="112" as="geometry" />
        </mxCell>
        <mxCell id="7zn35PvWmJtqcguIeIPs-107" style="edgeStyle=orthogonalEdgeStyle;rounded=0;orthogonalLoop=1;jettySize=auto;html=1;exitX=0.5;exitY=0;exitDx=0;exitDy=0;entryX=0;entryY=0.5;entryDx=0;entryDy=0;endArrow=block;endFill=0;" parent="7zn35PvWmJtqcguIeIPs-96" source="7zn35PvWmJtqcguIeIPs-108" target="7zn35PvWmJtqcguIeIPs-100" edge="1">
          <mxGeometry relative="1" as="geometry" />
        </mxCell>
        <mxCell id="7zn35PvWmJtqcguIeIPs-108" value="&lt;p style=&quot;margin:0px;margin-top:4px;text-align:center;&quot;&gt;&lt;b&gt;AskNumberOfPlayer&lt;/b&gt;&lt;/p&gt;&lt;hr size=&quot;1&quot;&gt;&lt;p style=&quot;margin:0px;margin-left:4px;&quot;&gt;- serialVersionUID: long&lt;/p&gt;&lt;hr size=&quot;1&quot;&gt;&lt;p style=&quot;margin:0px;margin-left:4px;&quot;&gt;+ execute(TextualUI): void&lt;br style=&quot;border-color: var(--border-color);&quot;&gt;+ execute(GuiManager): void&lt;br&gt;&lt;/p&gt;" style="verticalAlign=top;align=left;overflow=fill;fontSize=12;fontFamily=Helvetica;html=1;whiteSpace=wrap;fillColor=none;" parent="7zn35PvWmJtqcguIeIPs-96" vertex="1">
          <mxGeometry x="180" y="447.99" width="160" height="112" as="geometry" />
        </mxCell>
        <mxCell id="7zn35PvWmJtqcguIeIPs-109" style="edgeStyle=orthogonalEdgeStyle;rounded=0;orthogonalLoop=1;jettySize=auto;html=1;exitX=0.5;exitY=0;exitDx=0;exitDy=0;entryX=0.121;entryY=0.992;entryDx=0;entryDy=0;entryPerimeter=0;endArrow=block;endFill=0;" parent="7zn35PvWmJtqcguIeIPs-96" source="7zn35PvWmJtqcguIeIPs-110" target="7zn35PvWmJtqcguIeIPs-102" edge="1">
          <mxGeometry relative="1" as="geometry">
            <Array as="points">
              <mxPoint x="435" y="590" />
              <mxPoint x="898" y="590" />
            </Array>
          </mxGeometry>
        </mxCell>
        <mxCell id="7zn35PvWmJtqcguIeIPs-110" value="&lt;p style=&quot;margin:0px;margin-top:4px;text-align:center;&quot;&gt;&lt;b&gt;ForceEnding&lt;/b&gt;&lt;/p&gt;&lt;hr size=&quot;1&quot;&gt;&lt;p style=&quot;margin:0px;margin-left:4px;&quot;&gt;- serialVersionUID: long&lt;/p&gt;&lt;hr size=&quot;1&quot;&gt;&lt;p style=&quot;margin:0px;margin-left:4px;&quot;&gt;+ execute(TextualUI): void&lt;br style=&quot;border-color: var(--border-color);&quot;&gt;+ execute(GuiManager): void&lt;br&gt;&lt;/p&gt;" style="verticalAlign=top;align=left;overflow=fill;fontSize=12;fontFamily=Helvetica;html=1;whiteSpace=wrap;fillColor=none;" parent="7zn35PvWmJtqcguIeIPs-96" vertex="1">
          <mxGeometry x="350" y="639.99" width="160" height="112" as="geometry" />
        </mxCell>
        <mxCell id="7zn35PvWmJtqcguIeIPs-111" style="edgeStyle=orthogonalEdgeStyle;rounded=0;orthogonalLoop=1;jettySize=auto;html=1;exitX=0.5;exitY=0;exitDx=0;exitDy=0;entryX=0.001;entryY=0.873;entryDx=0;entryDy=0;entryPerimeter=0;endArrow=block;endFill=0;" parent="7zn35PvWmJtqcguIeIPs-96" source="7zn35PvWmJtqcguIeIPs-112" target="7zn35PvWmJtqcguIeIPs-100" edge="1">
          <mxGeometry relative="1" as="geometry" />
        </mxCell>
        <mxCell id="7zn35PvWmJtqcguIeIPs-112" value="&lt;p style=&quot;margin:0px;margin-top:4px;text-align:center;&quot;&gt;&lt;b&gt;AskReconnectName&lt;/b&gt;&lt;/p&gt;&lt;hr size=&quot;1&quot;&gt;&lt;p style=&quot;margin:0px;margin-left:4px;&quot;&gt;- serialVersionUID: long&lt;/p&gt;&lt;hr size=&quot;1&quot;&gt;&lt;p style=&quot;margin:0px;margin-left:4px;&quot;&gt;+ execute(TextualUI): void&lt;br style=&quot;border-color: var(--border-color);&quot;&gt;+ execute(GuiManager): void&lt;br&gt;&lt;/p&gt;" style="verticalAlign=top;align=left;overflow=fill;fontSize=12;fontFamily=Helvetica;html=1;whiteSpace=wrap;fillColor=none;" parent="7zn35PvWmJtqcguIeIPs-96" vertex="1">
          <mxGeometry x="350" y="444.49" width="170" height="112" as="geometry" />
        </mxCell>
        <mxCell id="7zn35PvWmJtqcguIeIPs-113" style="edgeStyle=orthogonalEdgeStyle;rounded=0;orthogonalLoop=1;jettySize=auto;html=1;exitX=0.5;exitY=0;exitDx=0;exitDy=0;entryX=-0.003;entryY=0.21;entryDx=0;entryDy=0;entryPerimeter=0;endArrow=block;endFill=0;" parent="7zn35PvWmJtqcguIeIPs-96" source="7zn35PvWmJtqcguIeIPs-114" target="7zn35PvWmJtqcguIeIPs-102" edge="1">
          <mxGeometry relative="1" as="geometry" />
        </mxCell>
        <mxCell id="7zn35PvWmJtqcguIeIPs-114" value="&lt;p style=&quot;margin:0px;margin-top:4px;text-align:center;&quot;&gt;&lt;b&gt;ChatMessage&lt;/b&gt;&lt;/p&gt;&lt;hr size=&quot;1&quot;&gt;&lt;p style=&quot;margin:0px;margin-left:4px;&quot;&gt;- serialVersionUID: long&lt;/p&gt;&lt;hr size=&quot;1&quot;&gt;&lt;p style=&quot;margin:0px;margin-left:4px;&quot;&gt;+ execute(TextualUI): void&lt;br style=&quot;border-color: var(--border-color);&quot;&gt;+ execute(GuiManager): void&lt;br&gt;&lt;/p&gt;" style="verticalAlign=top;align=left;overflow=fill;fontSize=12;fontFamily=Helvetica;html=1;whiteSpace=wrap;fillColor=none;" parent="7zn35PvWmJtqcguIeIPs-96" vertex="1">
          <mxGeometry x="530" y="440.99" width="160" height="119" as="geometry" />
        </mxCell>
        <mxCell id="7zn35PvWmJtqcguIeIPs-149" style="edgeStyle=orthogonalEdgeStyle;rounded=0;orthogonalLoop=1;jettySize=auto;html=1;exitX=0.5;exitY=0;exitDx=0;exitDy=0;entryX=0.376;entryY=1.007;entryDx=0;entryDy=0;entryPerimeter=0;endArrow=block;endFill=0;" parent="7zn35PvWmJtqcguIeIPs-96" source="7zn35PvWmJtqcguIeIPs-116" target="7zn35PvWmJtqcguIeIPs-102" edge="1">
          <mxGeometry relative="1" as="geometry">
            <Array as="points">
              <mxPoint x="996" y="480" />
            </Array>
          </mxGeometry>
        </mxCell>
        <mxCell id="7zn35PvWmJtqcguIeIPs-116" value="&lt;p style=&quot;margin:0px;margin-top:4px;text-align:center;&quot;&gt;&lt;b&gt;EndGameNotify&lt;/b&gt;&lt;/p&gt;&lt;hr size=&quot;1&quot;&gt;&lt;p style=&quot;margin:0px;margin-left:4px;&quot;&gt;- serialVersionUID: long&lt;/p&gt;&lt;hr size=&quot;1&quot;&gt;&lt;p style=&quot;margin:0px;margin-left:4px;&quot;&gt;+ execute(TextualUI): void&lt;br style=&quot;border-color: var(--border-color);&quot;&gt;+ execute(GuiManager): void&lt;br&gt;&lt;/p&gt;" style="verticalAlign=top;align=left;overflow=fill;fontSize=12;fontFamily=Helvetica;html=1;whiteSpace=wrap;fillColor=none;" parent="7zn35PvWmJtqcguIeIPs-96" vertex="1">
          <mxGeometry x="920" y="480" width="160" height="112" as="geometry" />
        </mxCell>
        <mxCell id="7zn35PvWmJtqcguIeIPs-117" style="edgeStyle=orthogonalEdgeStyle;rounded=0;orthogonalLoop=1;jettySize=auto;html=1;exitX=0.5;exitY=0;exitDx=0;exitDy=0;entryX=0.873;entryY=0.991;entryDx=0;entryDy=0;entryPerimeter=0;endArrow=block;endFill=0;" parent="7zn35PvWmJtqcguIeIPs-96" source="7zn35PvWmJtqcguIeIPs-118" target="7zn35PvWmJtqcguIeIPs-102" edge="1">
          <mxGeometry relative="1" as="geometry" />
        </mxCell>
        <mxCell id="7zn35PvWmJtqcguIeIPs-118" value="&lt;p style=&quot;text-align: center; margin: 4px 0px 0px;&quot;&gt;&lt;b&gt;ErrorEmptyTemporaryTiles&lt;/b&gt;&lt;/p&gt;&lt;hr size=&quot;1&quot;&gt;&lt;p style=&quot;margin:0px;margin-left:4px;&quot;&gt;- serialVersionUID: long&lt;/p&gt;&lt;hr size=&quot;1&quot;&gt;&lt;p style=&quot;margin:0px;margin-left:4px;&quot;&gt;+ execute(TextualUI): void&lt;br style=&quot;border-color: var(--border-color);&quot;&gt;+ execute(GuiManager): void&lt;br&gt;&lt;/p&gt;" style="verticalAlign=top;align=left;overflow=fill;fontSize=12;fontFamily=Helvetica;html=1;whiteSpace=wrap;fillColor=none;" parent="7zn35PvWmJtqcguIeIPs-96" vertex="1">
          <mxGeometry x="1150" y="480" width="160" height="112" as="geometry" />
        </mxCell>
        <mxCell id="7zn35PvWmJtqcguIeIPs-119" style="edgeStyle=orthogonalEdgeStyle;rounded=0;orthogonalLoop=1;jettySize=auto;html=1;exitX=0.5;exitY=0;exitDx=0;exitDy=0;entryX=1.004;entryY=0.952;entryDx=0;entryDy=0;entryPerimeter=0;endArrow=block;endFill=0;" parent="7zn35PvWmJtqcguIeIPs-96" source="7zn35PvWmJtqcguIeIPs-120" target="7zn35PvWmJtqcguIeIPs-102" edge="1">
          <mxGeometry relative="1" as="geometry" />
        </mxCell>
        <mxCell id="7zn35PvWmJtqcguIeIPs-120" value="&lt;p style=&quot;margin:0px;margin-top:4px;text-align:center;&quot;&gt;&lt;b&gt;ErrorInvalidTemporaryTile&lt;/b&gt;&lt;/p&gt;&lt;hr size=&quot;1&quot;&gt;&lt;p style=&quot;margin:0px;margin-left:4px;&quot;&gt;- serialVersionUID: long&lt;/p&gt;&lt;hr size=&quot;1&quot;&gt;&lt;p style=&quot;margin:0px;margin-left:4px;&quot;&gt;+ execute(TextualUI): void&lt;br style=&quot;border-color: var(--border-color);&quot;&gt;+ execute(GuiManager): void&lt;br&gt;&lt;/p&gt;" style="verticalAlign=top;align=left;overflow=fill;fontSize=12;fontFamily=Helvetica;html=1;whiteSpace=wrap;fillColor=none;" parent="7zn35PvWmJtqcguIeIPs-96" vertex="1">
          <mxGeometry x="1320" y="480" width="160" height="112" as="geometry" />
        </mxCell>
        <mxCell id="7zn35PvWmJtqcguIeIPs-121" style="edgeStyle=orthogonalEdgeStyle;rounded=0;orthogonalLoop=1;jettySize=auto;html=1;exitX=0.5;exitY=0;exitDx=0;exitDy=0;endArrow=block;endFill=0;entryX=0.984;entryY=0.231;entryDx=0;entryDy=0;entryPerimeter=0;" parent="7zn35PvWmJtqcguIeIPs-96" edge="1">
          <mxGeometry relative="1" as="geometry">
            <mxPoint x="1641.1590167618526" y="470.0039459459458" as="sourcePoint" />
            <mxPoint x="1236.0500000000004" y="359.9565503243243" as="targetPoint" />
            <Array as="points">
              <mxPoint x="1641.16" y="360" />
            </Array>
          </mxGeometry>
        </mxCell>
        <mxCell id="7zn35PvWmJtqcguIeIPs-122" value="&lt;p style=&quot;margin:0px;margin-top:4px;text-align:center;&quot;&gt;&lt;b&gt;ErrorMessage&lt;/b&gt;&lt;/p&gt;&lt;hr size=&quot;1&quot;&gt;&lt;p style=&quot;margin:0px;margin-left:4px;&quot;&gt;- serialVersionUID: long&lt;/p&gt;&lt;hr size=&quot;1&quot;&gt;&lt;p style=&quot;margin:0px;margin-left:4px;&quot;&gt;+ execute(TextualUI): void&lt;br style=&quot;border-color: var(--border-color);&quot;&gt;+ execute(GuiManager): void&lt;br&gt;&lt;/p&gt;" style="verticalAlign=top;align=left;overflow=fill;fontSize=12;fontFamily=Helvetica;html=1;whiteSpace=wrap;fillColor=none;" parent="7zn35PvWmJtqcguIeIPs-96" vertex="1">
          <mxGeometry x="1540" y="470" width="160" height="112" as="geometry" />
        </mxCell>
        <mxCell id="7zn35PvWmJtqcguIeIPs-157" style="edgeStyle=orthogonalEdgeStyle;rounded=0;orthogonalLoop=1;jettySize=auto;html=1;exitX=0.5;exitY=0;exitDx=0;exitDy=0;entryX=1.001;entryY=-0.042;entryDx=0;entryDy=0;entryPerimeter=0;endArrow=block;endFill=0;" parent="7zn35PvWmJtqcguIeIPs-96" source="7zn35PvWmJtqcguIeIPs-124" target="7zn35PvWmJtqcguIeIPs-102" edge="1">
          <mxGeometry relative="1" as="geometry" />
        </mxCell>
        <mxCell id="7zn35PvWmJtqcguIeIPs-124" value="&lt;p style=&quot;margin:0px;margin-top:4px;text-align:center;&quot;&gt;&lt;b&gt;ErrorSelectionNotPossible&lt;/b&gt;&lt;/p&gt;&lt;hr size=&quot;1&quot;&gt;&lt;p style=&quot;margin:0px;margin-left:4px;&quot;&gt;- serialVersionUID: long&lt;/p&gt;&lt;hr size=&quot;1&quot;&gt;&lt;p style=&quot;margin:0px;margin-left:4px;&quot;&gt;+ execute(TextualUI): void&lt;br style=&quot;border-color: var(--border-color);&quot;&gt;+ execute(GuiManager): void&lt;br&gt;&lt;/p&gt;" style="verticalAlign=top;align=left;overflow=fill;fontSize=12;fontFamily=Helvetica;html=1;whiteSpace=wrap;fillColor=none;" parent="7zn35PvWmJtqcguIeIPs-96" vertex="1">
          <mxGeometry x="1710" y="470" width="160" height="112" as="geometry" />
        </mxCell>
        <mxCell id="7zn35PvWmJtqcguIeIPs-158" style="edgeStyle=orthogonalEdgeStyle;rounded=0;orthogonalLoop=1;jettySize=auto;html=1;exitX=0.5;exitY=0;exitDx=0;exitDy=0;entryX=1.004;entryY=0.757;entryDx=0;entryDy=0;entryPerimeter=0;endArrow=block;endFill=0;" parent="7zn35PvWmJtqcguIeIPs-96" source="7zn35PvWmJtqcguIeIPs-126" target="7zn35PvWmJtqcguIeIPs-100" edge="1">
          <mxGeometry relative="1" as="geometry" />
        </mxCell>
        <mxCell id="7zn35PvWmJtqcguIeIPs-126" value="&lt;p style=&quot;margin:0px;margin-top:4px;text-align:center;&quot;&gt;&lt;b&gt;ErrorSelectionNotPossible&lt;/b&gt;&lt;/p&gt;&lt;hr size=&quot;1&quot;&gt;&lt;p style=&quot;margin:0px;margin-left:4px;&quot;&gt;- serialVersionUID: long&lt;/p&gt;&lt;hr size=&quot;1&quot;&gt;&lt;p style=&quot;margin:0px;margin-left:4px;&quot;&gt;+ execute(TextualUI): void&lt;br style=&quot;border-color: var(--border-color);&quot;&gt;+ execute(GuiManager): void&lt;br&gt;&lt;/p&gt;" style="verticalAlign=top;align=left;overflow=fill;fontSize=12;fontFamily=Helvetica;html=1;whiteSpace=wrap;fillColor=none;" parent="7zn35PvWmJtqcguIeIPs-96" vertex="1">
          <mxGeometry x="1930" y="470" width="160" height="112" as="geometry" />
        </mxCell>
        <mxCell id="LTxgpxZo_bc8f6A4X1VT-28" style="edgeStyle=orthogonalEdgeStyle;rounded=0;orthogonalLoop=1;jettySize=auto;html=1;exitX=0.25;exitY=0;exitDx=0;exitDy=0;entryX=0.992;entryY=0.31;entryDx=0;entryDy=0;entryPerimeter=0;endArrow=block;endFill=0;" edge="1" parent="7zn35PvWmJtqcguIeIPs-96" source="7zn35PvWmJtqcguIeIPs-128" target="7zn35PvWmJtqcguIeIPs-100">
          <mxGeometry relative="1" as="geometry" />
        </mxCell>
        <mxCell id="7zn35PvWmJtqcguIeIPs-128" value="&lt;p style=&quot;margin:0px;margin-top:4px;text-align:center;&quot;&gt;&lt;b&gt;ErrorUnselectableColumn&lt;/b&gt;&lt;/p&gt;&lt;hr size=&quot;1&quot;&gt;&lt;p style=&quot;margin:0px;margin-left:4px;&quot;&gt;- serialVersionUID: long&lt;/p&gt;&lt;hr size=&quot;1&quot;&gt;&lt;p style=&quot;margin:0px;margin-left:4px;&quot;&gt;+ execute(TextualUI): void&lt;br style=&quot;border-color: var(--border-color);&quot;&gt;+ execute(GuiManager): void&lt;br&gt;&lt;/p&gt;" style="verticalAlign=top;align=left;overflow=fill;fontSize=12;fontFamily=Helvetica;html=1;whiteSpace=wrap;fillColor=none;" parent="7zn35PvWmJtqcguIeIPs-96" vertex="1">
          <mxGeometry x="2130" y="470" width="160" height="112" as="geometry" />
        </mxCell>
        <mxCell id="7zn35PvWmJtqcguIeIPs-156" style="edgeStyle=orthogonalEdgeStyle;rounded=0;orthogonalLoop=1;jettySize=auto;html=1;exitX=0.5;exitY=0;exitDx=0;exitDy=0;entryX=0.997;entryY=0.334;entryDx=0;entryDy=0;entryPerimeter=0;endArrow=block;endFill=0;" parent="7zn35PvWmJtqcguIeIPs-96" source="7zn35PvWmJtqcguIeIPs-130" target="7zn35PvWmJtqcguIeIPs-102" edge="1">
          <mxGeometry relative="1" as="geometry">
            <Array as="points">
              <mxPoint x="1975" y="600" />
              <mxPoint x="1530" y="600" />
              <mxPoint x="1530" y="370" />
            </Array>
          </mxGeometry>
        </mxCell>
        <mxCell id="7zn35PvWmJtqcguIeIPs-130" value="&lt;p style=&quot;margin:0px;margin-top:4px;text-align:center;&quot;&gt;&lt;b&gt;ReturnedFlag&lt;/b&gt;&lt;/p&gt;&lt;hr size=&quot;1&quot;&gt;&lt;p style=&quot;margin:0px;margin-left:4px;&quot;&gt;- serialVersionUID: long&lt;/p&gt;&lt;hr size=&quot;1&quot;&gt;&lt;p style=&quot;margin:0px;margin-left:4px;&quot;&gt;+ execute(TextualUI): void&lt;br style=&quot;border-color: var(--border-color);&quot;&gt;+ execute(GuiManager): void&lt;br&gt;&lt;/p&gt;" style="verticalAlign=top;align=left;overflow=fill;fontSize=12;fontFamily=Helvetica;html=1;whiteSpace=wrap;fillColor=none;" parent="7zn35PvWmJtqcguIeIPs-96" vertex="1">
          <mxGeometry x="1900" y="640" width="160" height="112" as="geometry" />
        </mxCell>
        <mxCell id="7zn35PvWmJtqcguIeIPs-131" style="edgeStyle=orthogonalEdgeStyle;rounded=0;orthogonalLoop=1;jettySize=auto;html=1;entryX=1.005;entryY=0.363;entryDx=0;entryDy=0;entryPerimeter=0;endArrow=block;endFill=0;exitX=0.5;exitY=0;exitDx=0;exitDy=0;" parent="7zn35PvWmJtqcguIeIPs-96" source="7zn35PvWmJtqcguIeIPs-132" edge="1">
          <mxGeometry relative="1" as="geometry">
            <mxPoint x="1790" y="795.530918918919" as="sourcePoint" />
            <mxPoint x="1236.0549999999998" y="379.99782232432443" as="targetPoint" />
            <Array as="points">
              <mxPoint x="1795" y="610" />
              <mxPoint x="1508" y="610" />
              <mxPoint x="1508" y="380" />
            </Array>
          </mxGeometry>
        </mxCell>
        <mxCell id="7zn35PvWmJtqcguIeIPs-132" value="&lt;p style=&quot;margin:0px;margin-top:4px;text-align:center;&quot;&gt;&lt;b&gt;ResultsNotify&lt;/b&gt;&lt;/p&gt;&lt;hr size=&quot;1&quot;&gt;&lt;p style=&quot;margin:0px;margin-left:4px;&quot;&gt;- serialVersionUID: long&lt;/p&gt;&lt;hr size=&quot;1&quot;&gt;&lt;p style=&quot;margin:0px;margin-left:4px;&quot;&gt;+ execute(TextualUI): void&lt;br style=&quot;border-color: var(--border-color);&quot;&gt;+ execute(GuiManager): void&lt;br&gt;&lt;/p&gt;" style="verticalAlign=top;align=left;overflow=fill;fontSize=12;fontFamily=Helvetica;html=1;whiteSpace=wrap;fillColor=none;" parent="7zn35PvWmJtqcguIeIPs-96" vertex="1">
          <mxGeometry x="1720" y="639.99" width="160" height="112" as="geometry" />
        </mxCell>
        <mxCell id="7zn35PvWmJtqcguIeIPs-133" style="edgeStyle=orthogonalEdgeStyle;rounded=0;orthogonalLoop=1;jettySize=auto;html=1;exitX=0.5;exitY=0;exitDx=0;exitDy=0;entryX=1.004;entryY=0.669;entryDx=0;entryDy=0;entryPerimeter=0;endArrow=block;endFill=0;" parent="7zn35PvWmJtqcguIeIPs-96" source="7zn35PvWmJtqcguIeIPs-134" target="7zn35PvWmJtqcguIeIPs-102" edge="1">
          <mxGeometry relative="1" as="geometry">
            <Array as="points">
              <mxPoint x="1625" y="620" />
              <mxPoint x="1490" y="620" />
              <mxPoint x="1490" y="400" />
              <mxPoint x="1238" y="400" />
            </Array>
          </mxGeometry>
        </mxCell>
        <mxCell id="7zn35PvWmJtqcguIeIPs-134" value="&lt;p style=&quot;margin:0px;margin-top:4px;text-align:center;&quot;&gt;&lt;b&gt;OptionChoosed&lt;/b&gt;&lt;/p&gt;&lt;hr size=&quot;1&quot;&gt;&lt;p style=&quot;margin:0px;margin-left:4px;&quot;&gt;- serialVersionUID: long&lt;/p&gt;&lt;hr size=&quot;1&quot;&gt;&lt;p style=&quot;margin:0px;margin-left:4px;&quot;&gt;+ execute(TextualUI): void&lt;br style=&quot;border-color: var(--border-color);&quot;&gt;+ execute(GuiManager): void&lt;br&gt;&lt;/p&gt;" style="verticalAlign=top;align=left;overflow=fill;fontSize=12;fontFamily=Helvetica;html=1;whiteSpace=wrap;fillColor=none;" parent="7zn35PvWmJtqcguIeIPs-96" vertex="1">
          <mxGeometry x="1550" y="640.01" width="160" height="112" as="geometry" />
        </mxCell>
        <mxCell id="7zn35PvWmJtqcguIeIPs-135" style="edgeStyle=orthogonalEdgeStyle;rounded=0;orthogonalLoop=1;jettySize=auto;html=1;exitX=0.5;exitY=0;exitDx=0;exitDy=0;entryX=0.755;entryY=0.999;entryDx=0;entryDy=0;entryPerimeter=0;endArrow=block;endFill=0;" parent="7zn35PvWmJtqcguIeIPs-96" source="7zn35PvWmJtqcguIeIPs-136" target="7zn35PvWmJtqcguIeIPs-102" edge="1">
          <mxGeometry relative="1" as="geometry">
            <Array as="points">
              <mxPoint x="1455" y="610" />
              <mxPoint x="1142" y="610" />
            </Array>
          </mxGeometry>
        </mxCell>
        <mxCell id="7zn35PvWmJtqcguIeIPs-136" value="&lt;p style=&quot;margin:0px;margin-top:4px;text-align:center;&quot;&gt;&lt;b&gt;OkNickname&lt;/b&gt;&lt;/p&gt;&lt;hr size=&quot;1&quot;&gt;&lt;p style=&quot;margin:0px;margin-left:4px;&quot;&gt;- serialVersionUID: long&lt;/p&gt;&lt;hr size=&quot;1&quot;&gt;&lt;p style=&quot;margin:0px;margin-left:4px;&quot;&gt;+ execute(TextualUI): void&lt;br style=&quot;border-color: var(--border-color);&quot;&gt;+ execute(GuiManager): void&lt;br&gt;&lt;/p&gt;" style="verticalAlign=top;align=left;overflow=fill;fontSize=12;fontFamily=Helvetica;html=1;whiteSpace=wrap;fillColor=none;" parent="7zn35PvWmJtqcguIeIPs-96" vertex="1">
          <mxGeometry x="1380" y="639.99" width="160" height="112" as="geometry" />
        </mxCell>
        <mxCell id="7zn35PvWmJtqcguIeIPs-137" style="edgeStyle=orthogonalEdgeStyle;rounded=0;orthogonalLoop=1;jettySize=auto;html=1;exitX=0.5;exitY=0;exitDx=0;exitDy=0;entryX=0.713;entryY=0.999;entryDx=0;entryDy=0;entryPerimeter=0;endArrow=block;endFill=0;" parent="7zn35PvWmJtqcguIeIPs-96" source="7zn35PvWmJtqcguIeIPs-138" target="7zn35PvWmJtqcguIeIPs-102" edge="1">
          <mxGeometry relative="1" as="geometry">
            <Array as="points">
              <mxPoint x="1295" y="620" />
              <mxPoint x="1126" y="620" />
            </Array>
          </mxGeometry>
        </mxCell>
        <mxCell id="7zn35PvWmJtqcguIeIPs-138" value="&lt;p style=&quot;margin:0px;margin-top:4px;text-align:center;&quot;&gt;&lt;b&gt;NextPlayerTurn&lt;/b&gt;&lt;/p&gt;&lt;hr size=&quot;1&quot;&gt;&lt;p style=&quot;margin:0px;margin-left:4px;&quot;&gt;- serialVersionUID: long&lt;/p&gt;&lt;hr size=&quot;1&quot;&gt;&lt;p style=&quot;margin:0px;margin-left:4px;&quot;&gt;+ execute(TextualUI): void&lt;br style=&quot;border-color: var(--border-color);&quot;&gt;+ execute(GuiManager): void&lt;br&gt;&lt;/p&gt;" style="verticalAlign=top;align=left;overflow=fill;fontSize=12;fontFamily=Helvetica;html=1;whiteSpace=wrap;fillColor=none;" parent="7zn35PvWmJtqcguIeIPs-96" vertex="1">
          <mxGeometry x="1210" y="640" width="160" height="112" as="geometry" />
        </mxCell>
        <mxCell id="7zn35PvWmJtqcguIeIPs-139" style="edgeStyle=orthogonalEdgeStyle;rounded=0;orthogonalLoop=1;jettySize=auto;html=1;exitX=0.5;exitY=0;exitDx=0;exitDy=0;entryX=0.684;entryY=0.999;entryDx=0;entryDy=0;entryPerimeter=0;endArrow=block;endFill=0;" parent="7zn35PvWmJtqcguIeIPs-96" source="7zn35PvWmJtqcguIeIPs-140" target="7zn35PvWmJtqcguIeIPs-102" edge="1">
          <mxGeometry relative="1" as="geometry">
            <Array as="points">
              <mxPoint x="1114" y="640" />
            </Array>
          </mxGeometry>
        </mxCell>
        <mxCell id="7zn35PvWmJtqcguIeIPs-140" value="&lt;p style=&quot;margin:0px;margin-top:4px;text-align:center;&quot;&gt;&lt;b&gt;LastPlayerNick&lt;/b&gt;&lt;/p&gt;&lt;hr size=&quot;1&quot;&gt;&lt;p style=&quot;margin:0px;margin-left:4px;&quot;&gt;- serialVersionUID: long&lt;/p&gt;&lt;hr size=&quot;1&quot;&gt;&lt;p style=&quot;margin:0px;margin-left:4px;&quot;&gt;+ execute(TextualUI): void&lt;br style=&quot;border-color: var(--border-color);&quot;&gt;+ execute(GuiManager): void&lt;br&gt;&lt;/p&gt;" style="verticalAlign=top;align=left;overflow=fill;fontSize=12;fontFamily=Helvetica;html=1;whiteSpace=wrap;fillColor=none;" parent="7zn35PvWmJtqcguIeIPs-96" vertex="1">
          <mxGeometry x="1030" y="640" width="160" height="112" as="geometry" />
        </mxCell>
        <mxCell id="7zn35PvWmJtqcguIeIPs-141" style="edgeStyle=orthogonalEdgeStyle;rounded=0;orthogonalLoop=1;jettySize=auto;html=1;exitX=0.5;exitY=0;exitDx=0;exitDy=0;entryX=0.638;entryY=0.992;entryDx=0;entryDy=0;entryPerimeter=0;endArrow=block;endFill=0;" parent="7zn35PvWmJtqcguIeIPs-96" source="7zn35PvWmJtqcguIeIPs-142" target="7zn35PvWmJtqcguIeIPs-102" edge="1">
          <mxGeometry relative="1" as="geometry">
            <Array as="points">
              <mxPoint x="965" y="640" />
              <mxPoint x="965" y="620" />
              <mxPoint x="1097" y="620" />
            </Array>
          </mxGeometry>
        </mxCell>
        <mxCell id="7zn35PvWmJtqcguIeIPs-142" value="&lt;p style=&quot;margin:0px;margin-top:4px;text-align:center;&quot;&gt;&lt;b&gt;Kill&lt;/b&gt;&lt;/p&gt;&lt;hr size=&quot;1&quot;&gt;&lt;p style=&quot;margin:0px;margin-left:4px;&quot;&gt;- serialVersionUID: long&lt;/p&gt;&lt;hr size=&quot;1&quot;&gt;&lt;p style=&quot;margin:0px;margin-left:4px;&quot;&gt;+ execute(TextualUI): void&lt;br style=&quot;border-color: var(--border-color);&quot;&gt;+ execute(GuiManager): void&lt;br&gt;&lt;/p&gt;" style="verticalAlign=top;align=left;overflow=fill;fontSize=12;fontFamily=Helvetica;html=1;whiteSpace=wrap;fillColor=none;" parent="7zn35PvWmJtqcguIeIPs-96" vertex="1">
          <mxGeometry x="860" y="640" width="160" height="112" as="geometry" />
        </mxCell>
        <mxCell id="7zn35PvWmJtqcguIeIPs-205" style="edgeStyle=orthogonalEdgeStyle;rounded=0;orthogonalLoop=1;jettySize=auto;html=1;exitX=0.5;exitY=0;exitDx=0;exitDy=0;entryX=0.611;entryY=1.002;entryDx=0;entryDy=0;entryPerimeter=0;endArrow=block;endFill=0;" parent="7zn35PvWmJtqcguIeIPs-96" source="7zn35PvWmJtqcguIeIPs-144" target="7zn35PvWmJtqcguIeIPs-102" edge="1">
          <mxGeometry relative="1" as="geometry">
            <Array as="points">
              <mxPoint x="776" y="610" />
              <mxPoint x="1086" y="610" />
            </Array>
          </mxGeometry>
        </mxCell>
        <mxCell id="7zn35PvWmJtqcguIeIPs-144" value="&lt;p style=&quot;margin:0px;margin-top:4px;text-align:center;&quot;&gt;&lt;b&gt;GuiUpdateBoards&lt;/b&gt;&lt;/p&gt;&lt;hr size=&quot;1&quot;&gt;&lt;p style=&quot;margin:0px;margin-left:4px;&quot;&gt;- serialVersionUID: long&lt;/p&gt;&lt;hr size=&quot;1&quot;&gt;&lt;p style=&quot;margin:0px;margin-left:4px;&quot;&gt;+ execute(GuiManager): void&lt;br&gt;&lt;/p&gt;" style="verticalAlign=top;align=left;overflow=fill;fontSize=12;fontFamily=Helvetica;html=1;whiteSpace=wrap;fillColor=none;" parent="7zn35PvWmJtqcguIeIPs-96" vertex="1">
          <mxGeometry x="690" y="640" width="161.05" height="112" as="geometry" />
        </mxCell>
        <mxCell id="7zn35PvWmJtqcguIeIPs-145" style="edgeStyle=orthogonalEdgeStyle;rounded=0;orthogonalLoop=1;jettySize=auto;html=1;exitX=0.5;exitY=0;exitDx=0;exitDy=0;entryX=0.151;entryY=0.992;entryDx=0;entryDy=0;entryPerimeter=0;endArrow=block;endFill=0;" parent="7zn35PvWmJtqcguIeIPs-96" source="7zn35PvWmJtqcguIeIPs-146" target="7zn35PvWmJtqcguIeIPs-102" edge="1">
          <mxGeometry relative="1" as="geometry">
            <Array as="points">
              <mxPoint x="605" y="600" />
              <mxPoint x="909" y="600" />
            </Array>
          </mxGeometry>
        </mxCell>
        <mxCell id="7zn35PvWmJtqcguIeIPs-146" value="&lt;p style=&quot;margin:0px;margin-top:4px;text-align:center;&quot;&gt;&lt;b&gt;GameFound&lt;/b&gt;&lt;/p&gt;&lt;hr size=&quot;1&quot;&gt;&lt;p style=&quot;margin:0px;margin-left:4px;&quot;&gt;- serialVersionUID: long&lt;/p&gt;&lt;hr size=&quot;1&quot;&gt;&lt;p style=&quot;margin:0px;margin-left:4px;&quot;&gt;+ execute(TextualUI): void&lt;br style=&quot;border-color: var(--border-color);&quot;&gt;+ execute(GuiManager): void&lt;br&gt;&lt;/p&gt;" style="verticalAlign=top;align=left;overflow=fill;fontSize=12;fontFamily=Helvetica;html=1;whiteSpace=wrap;fillColor=none;" parent="7zn35PvWmJtqcguIeIPs-96" vertex="1">
          <mxGeometry x="520" y="640" width="160" height="112" as="geometry" />
        </mxCell>
        <mxCell id="7zn35PvWmJtqcguIeIPs-244" style="edgeStyle=orthogonalEdgeStyle;rounded=0;orthogonalLoop=1;jettySize=auto;html=1;exitX=0.5;exitY=0;exitDx=0;exitDy=0;entryX=0.065;entryY=0.993;entryDx=0;entryDy=0;entryPerimeter=0;endArrow=block;endFill=0;" parent="7zn35PvWmJtqcguIeIPs-96" source="7zn35PvWmJtqcguIeIPs-148" target="7zn35PvWmJtqcguIeIPs-102" edge="1">
          <mxGeometry relative="1" as="geometry">
            <Array as="points">
              <mxPoint x="90" y="570" />
              <mxPoint x="876" y="570" />
            </Array>
          </mxGeometry>
        </mxCell>
        <mxCell id="7zn35PvWmJtqcguIeIPs-148" value="&lt;p style=&quot;margin:0px;margin-top:4px;text-align:center;&quot;&gt;&lt;b&gt;ErrorUnselectableTile&lt;/b&gt;&lt;/p&gt;&lt;hr size=&quot;1&quot;&gt;&lt;p style=&quot;margin:0px;margin-left:4px;&quot;&gt;- serialVersionUID: long&lt;/p&gt;&lt;hr size=&quot;1&quot;&gt;&lt;p style=&quot;margin:0px;margin-left:4px;&quot;&gt;+ execute(TextualUI): void&lt;br style=&quot;border-color: var(--border-color);&quot;&gt;+ execute(GuiManager): void&lt;br&gt;&lt;/p&gt;" style="verticalAlign=top;align=left;overflow=fill;fontSize=12;fontFamily=Helvetica;html=1;whiteSpace=wrap;fillColor=none;" parent="7zn35PvWmJtqcguIeIPs-96" vertex="1">
          <mxGeometry x="10" y="640" width="160" height="112" as="geometry" />
        </mxCell>
        <mxCell id="7zn35PvWmJtqcguIeIPs-200" value="AckConnection" style="swimlane;fontStyle=1;align=center;verticalAlign=top;childLayout=stackLayout;horizontal=1;startSize=26;horizontalStack=0;resizeParent=1;resizeParentMax=0;resizeLast=0;collapsible=1;marginBottom=0;whiteSpace=wrap;html=1;" parent="7zn35PvWmJtqcguIeIPs-96" vertex="1">
          <mxGeometry x="19.999999999999996" y="46" width="169.99" height="110" as="geometry" />
        </mxCell>
        <mxCell id="7zn35PvWmJtqcguIeIPs-201" value="- serialVersionUID: long" style="text;strokeColor=none;fillColor=none;align=left;verticalAlign=top;spacingLeft=4;spacingRight=4;overflow=hidden;rotatable=0;points=[[0,0.5],[1,0.5]];portConstraint=eastwest;whiteSpace=wrap;html=1;" parent="7zn35PvWmJtqcguIeIPs-200" vertex="1">
          <mxGeometry y="26" width="169.99" height="26" as="geometry" />
        </mxCell>
        <mxCell id="7zn35PvWmJtqcguIeIPs-202" value="" style="line;strokeWidth=1;fillColor=none;align=left;verticalAlign=middle;spacingTop=-1;spacingLeft=3;spacingRight=3;rotatable=0;labelPosition=right;points=[];portConstraint=eastwest;strokeColor=inherit;" parent="7zn35PvWmJtqcguIeIPs-200" vertex="1">
          <mxGeometry y="52" width="169.99" height="8" as="geometry" />
        </mxCell>
        <mxCell id="7zn35PvWmJtqcguIeIPs-203" value="+ execute(TextualUI): void&lt;br&gt;+ execute(GuiManager): void" style="text;strokeColor=none;fillColor=none;align=left;verticalAlign=top;spacingLeft=4;spacingRight=4;overflow=hidden;rotatable=0;points=[[0,0.5],[1,0.5]];portConstraint=eastwest;whiteSpace=wrap;html=1;" parent="7zn35PvWmJtqcguIeIPs-200" vertex="1">
          <mxGeometry y="60" width="169.99" height="50" as="geometry" />
        </mxCell>
        <mxCell id="7zn35PvWmJtqcguIeIPs-204" style="edgeStyle=orthogonalEdgeStyle;rounded=0;orthogonalLoop=1;jettySize=auto;html=1;exitX=1;exitY=0.5;exitDx=0;exitDy=0;entryX=0.058;entryY=0;entryDx=0;entryDy=0;entryPerimeter=0;endArrow=block;endFill=0;" parent="7zn35PvWmJtqcguIeIPs-96" source="7zn35PvWmJtqcguIeIPs-201" target="7zn35PvWmJtqcguIeIPs-99" edge="1">
          <mxGeometry relative="1" as="geometry" />
        </mxCell>
        <mxCell id="7zn35PvWmJtqcguIeIPs-253" style="edgeStyle=orthogonalEdgeStyle;rounded=0;orthogonalLoop=1;jettySize=auto;html=1;exitX=0.5;exitY=1;exitDx=0;exitDy=0;entryX=0.001;entryY=-0.028;entryDx=0;entryDy=0;entryPerimeter=0;endArrow=block;endFill=0;" parent="7zn35PvWmJtqcguIeIPs-96" source="7zn35PvWmJtqcguIeIPs-206" target="7zn35PvWmJtqcguIeIPs-100" edge="1">
          <mxGeometry relative="1" as="geometry" />
        </mxCell>
        <mxCell id="7zn35PvWmJtqcguIeIPs-206" value="SendChat" style="swimlane;fontStyle=1;align=center;verticalAlign=top;childLayout=stackLayout;horizontal=1;startSize=26;horizontalStack=0;resizeParent=1;resizeParentMax=0;resizeLast=0;collapsible=1;marginBottom=0;whiteSpace=wrap;html=1;" parent="7zn35PvWmJtqcguIeIPs-96" vertex="1">
          <mxGeometry x="220" y="110" width="169.99" height="110" as="geometry" />
        </mxCell>
        <mxCell id="7zn35PvWmJtqcguIeIPs-207" value="- serialVersionUID: long" style="text;strokeColor=none;fillColor=none;align=left;verticalAlign=top;spacingLeft=4;spacingRight=4;overflow=hidden;rotatable=0;points=[[0,0.5],[1,0.5]];portConstraint=eastwest;whiteSpace=wrap;html=1;" parent="7zn35PvWmJtqcguIeIPs-206" vertex="1">
          <mxGeometry y="26" width="169.99" height="26" as="geometry" />
        </mxCell>
        <mxCell id="7zn35PvWmJtqcguIeIPs-208" value="" style="line;strokeWidth=1;fillColor=none;align=left;verticalAlign=middle;spacingTop=-1;spacingLeft=3;spacingRight=3;rotatable=0;labelPosition=right;points=[];portConstraint=eastwest;strokeColor=inherit;" parent="7zn35PvWmJtqcguIeIPs-206" vertex="1">
          <mxGeometry y="52" width="169.99" height="8" as="geometry" />
        </mxCell>
        <mxCell id="7zn35PvWmJtqcguIeIPs-209" value="+ execute(TextualUI): void&lt;br&gt;+ execute(GuiManager): void" style="text;strokeColor=none;fillColor=none;align=left;verticalAlign=top;spacingLeft=4;spacingRight=4;overflow=hidden;rotatable=0;points=[[0,0.5],[1,0.5]];portConstraint=eastwest;whiteSpace=wrap;html=1;" parent="7zn35PvWmJtqcguIeIPs-206" vertex="1">
          <mxGeometry y="60" width="169.99" height="50" as="geometry" />
        </mxCell>
        <mxCell id="7zn35PvWmJtqcguIeIPs-254" style="edgeStyle=orthogonalEdgeStyle;rounded=0;orthogonalLoop=1;jettySize=auto;html=1;exitX=0.5;exitY=1;exitDx=0;exitDy=0;entryX=0.001;entryY=0.101;entryDx=0;entryDy=0;entryPerimeter=0;endArrow=block;endFill=0;" parent="7zn35PvWmJtqcguIeIPs-96" source="7zn35PvWmJtqcguIeIPs-238" target="7zn35PvWmJtqcguIeIPs-99" edge="1">
          <mxGeometry relative="1" as="geometry" />
        </mxCell>
        <mxCell id="7zn35PvWmJtqcguIeIPs-238" value="SendCommonGoals" style="swimlane;fontStyle=1;align=center;verticalAlign=top;childLayout=stackLayout;horizontal=1;startSize=26;horizontalStack=0;resizeParent=1;resizeParentMax=0;resizeLast=0;collapsible=1;marginBottom=0;whiteSpace=wrap;html=1;" parent="7zn35PvWmJtqcguIeIPs-96" vertex="1">
          <mxGeometry x="420" y="110" width="169.99" height="110" as="geometry" />
        </mxCell>
        <mxCell id="7zn35PvWmJtqcguIeIPs-239" value="- serialVersionUID: long" style="text;strokeColor=none;fillColor=none;align=left;verticalAlign=top;spacingLeft=4;spacingRight=4;overflow=hidden;rotatable=0;points=[[0,0.5],[1,0.5]];portConstraint=eastwest;whiteSpace=wrap;html=1;" parent="7zn35PvWmJtqcguIeIPs-238" vertex="1">
          <mxGeometry y="26" width="169.99" height="26" as="geometry" />
        </mxCell>
        <mxCell id="7zn35PvWmJtqcguIeIPs-240" value="" style="line;strokeWidth=1;fillColor=none;align=left;verticalAlign=middle;spacingTop=-1;spacingLeft=3;spacingRight=3;rotatable=0;labelPosition=right;points=[];portConstraint=eastwest;strokeColor=inherit;" parent="7zn35PvWmJtqcguIeIPs-238" vertex="1">
          <mxGeometry y="52" width="169.99" height="8" as="geometry" />
        </mxCell>
        <mxCell id="7zn35PvWmJtqcguIeIPs-241" value="+ execute(TextualUI): void&lt;br&gt;+ execute(GuiManager): void" style="text;strokeColor=none;fillColor=none;align=left;verticalAlign=top;spacingLeft=4;spacingRight=4;overflow=hidden;rotatable=0;points=[[0,0.5],[1,0.5]];portConstraint=eastwest;whiteSpace=wrap;html=1;" parent="7zn35PvWmJtqcguIeIPs-238" vertex="1">
          <mxGeometry y="60" width="169.99" height="50" as="geometry" />
        </mxCell>
        <mxCell id="7zn35PvWmJtqcguIeIPs-234" value="SendCurrentPlayer" style="swimlane;fontStyle=1;align=center;verticalAlign=top;childLayout=stackLayout;horizontal=1;startSize=26;horizontalStack=0;resizeParent=1;resizeParentMax=0;resizeLast=0;collapsible=1;marginBottom=0;whiteSpace=wrap;html=1;" parent="7zn35PvWmJtqcguIeIPs-96" vertex="1">
          <mxGeometry x="630" y="110" width="169.99" height="110" as="geometry" />
        </mxCell>
        <mxCell id="7zn35PvWmJtqcguIeIPs-235" value="- serialVersionUID: long" style="text;strokeColor=none;fillColor=none;align=left;verticalAlign=top;spacingLeft=4;spacingRight=4;overflow=hidden;rotatable=0;points=[[0,0.5],[1,0.5]];portConstraint=eastwest;whiteSpace=wrap;html=1;" parent="7zn35PvWmJtqcguIeIPs-234" vertex="1">
          <mxGeometry y="26" width="169.99" height="26" as="geometry" />
        </mxCell>
        <mxCell id="7zn35PvWmJtqcguIeIPs-236" value="" style="line;strokeWidth=1;fillColor=none;align=left;verticalAlign=middle;spacingTop=-1;spacingLeft=3;spacingRight=3;rotatable=0;labelPosition=right;points=[];portConstraint=eastwest;strokeColor=inherit;" parent="7zn35PvWmJtqcguIeIPs-234" vertex="1">
          <mxGeometry y="52" width="169.99" height="8" as="geometry" />
        </mxCell>
        <mxCell id="7zn35PvWmJtqcguIeIPs-237" value="+ execute(TextualUI): void&lt;br&gt;+ execute(GuiManager): void" style="text;strokeColor=none;fillColor=none;align=left;verticalAlign=top;spacingLeft=4;spacingRight=4;overflow=hidden;rotatable=0;points=[[0,0.5],[1,0.5]];portConstraint=eastwest;whiteSpace=wrap;html=1;" parent="7zn35PvWmJtqcguIeIPs-234" vertex="1">
          <mxGeometry y="60" width="169.99" height="50" as="geometry" />
        </mxCell>
        <mxCell id="7zn35PvWmJtqcguIeIPs-245" style="edgeStyle=orthogonalEdgeStyle;rounded=0;orthogonalLoop=1;jettySize=auto;html=1;exitX=0.5;exitY=0;exitDx=0;exitDy=0;entryX=-0.006;entryY=0.611;entryDx=0;entryDy=0;entryPerimeter=0;endArrow=block;endFill=0;" parent="7zn35PvWmJtqcguIeIPs-96" source="7zn35PvWmJtqcguIeIPs-230" target="7zn35PvWmJtqcguIeIPs-102" edge="1">
          <mxGeometry relative="1" as="geometry" />
        </mxCell>
        <mxCell id="7zn35PvWmJtqcguIeIPs-230" value="SendAllShelves" style="swimlane;fontStyle=1;align=center;verticalAlign=top;childLayout=stackLayout;horizontal=1;startSize=26;horizontalStack=0;resizeParent=1;resizeParentMax=0;resizeLast=0;collapsible=1;marginBottom=0;whiteSpace=wrap;html=1;" parent="7zn35PvWmJtqcguIeIPs-96" vertex="1">
          <mxGeometry x="699" y="440.99" width="169.99" height="110" as="geometry" />
        </mxCell>
        <mxCell id="7zn35PvWmJtqcguIeIPs-231" value="- serialVersionUID: long" style="text;strokeColor=none;fillColor=none;align=left;verticalAlign=top;spacingLeft=4;spacingRight=4;overflow=hidden;rotatable=0;points=[[0,0.5],[1,0.5]];portConstraint=eastwest;whiteSpace=wrap;html=1;" parent="7zn35PvWmJtqcguIeIPs-230" vertex="1">
          <mxGeometry y="26" width="169.99" height="26" as="geometry" />
        </mxCell>
        <mxCell id="7zn35PvWmJtqcguIeIPs-232" value="" style="line;strokeWidth=1;fillColor=none;align=left;verticalAlign=middle;spacingTop=-1;spacingLeft=3;spacingRight=3;rotatable=0;labelPosition=right;points=[];portConstraint=eastwest;strokeColor=inherit;" parent="7zn35PvWmJtqcguIeIPs-230" vertex="1">
          <mxGeometry y="52" width="169.99" height="8" as="geometry" />
        </mxCell>
        <mxCell id="7zn35PvWmJtqcguIeIPs-233" value="+ execute(TextualUI): void&lt;br&gt;+ execute(GuiManager): void" style="text;strokeColor=none;fillColor=none;align=left;verticalAlign=top;spacingLeft=4;spacingRight=4;overflow=hidden;rotatable=0;points=[[0,0.5],[1,0.5]];portConstraint=eastwest;whiteSpace=wrap;html=1;" parent="7zn35PvWmJtqcguIeIPs-230" vertex="1">
          <mxGeometry y="60" width="169.99" height="50" as="geometry" />
        </mxCell>
        <mxCell id="7zn35PvWmJtqcguIeIPs-247" style="edgeStyle=orthogonalEdgeStyle;rounded=0;orthogonalLoop=1;jettySize=auto;html=1;exitX=0.5;exitY=0;exitDx=0;exitDy=0;entryX=1;entryY=0.5;entryDx=0;entryDy=0;endArrow=block;endFill=0;" parent="7zn35PvWmJtqcguIeIPs-96" source="7zn35PvWmJtqcguIeIPs-226" target="7zn35PvWmJtqcguIeIPs-100" edge="1">
          <mxGeometry relative="1" as="geometry">
            <Array as="points">
              <mxPoint x="2185" y="610" />
              <mxPoint x="2110" y="610" />
              <mxPoint x="2110" y="295" />
            </Array>
          </mxGeometry>
        </mxCell>
        <mxCell id="7zn35PvWmJtqcguIeIPs-226" value="SendBoard" style="swimlane;fontStyle=1;align=center;verticalAlign=top;childLayout=stackLayout;horizontal=1;startSize=26;horizontalStack=0;resizeParent=1;resizeParentMax=0;resizeLast=0;collapsible=1;marginBottom=0;whiteSpace=wrap;html=1;" parent="7zn35PvWmJtqcguIeIPs-96" vertex="1">
          <mxGeometry x="2100" y="639.99" width="169.99" height="110" as="geometry" />
        </mxCell>
        <mxCell id="7zn35PvWmJtqcguIeIPs-227" value="- serialVersionUID: long" style="text;strokeColor=none;fillColor=none;align=left;verticalAlign=top;spacingLeft=4;spacingRight=4;overflow=hidden;rotatable=0;points=[[0,0.5],[1,0.5]];portConstraint=eastwest;whiteSpace=wrap;html=1;" parent="7zn35PvWmJtqcguIeIPs-226" vertex="1">
          <mxGeometry y="26" width="169.99" height="26" as="geometry" />
        </mxCell>
        <mxCell id="7zn35PvWmJtqcguIeIPs-228" value="" style="line;strokeWidth=1;fillColor=none;align=left;verticalAlign=middle;spacingTop=-1;spacingLeft=3;spacingRight=3;rotatable=0;labelPosition=right;points=[];portConstraint=eastwest;strokeColor=inherit;" parent="7zn35PvWmJtqcguIeIPs-226" vertex="1">
          <mxGeometry y="52" width="169.99" height="8" as="geometry" />
        </mxCell>
        <mxCell id="7zn35PvWmJtqcguIeIPs-229" value="+ execute(TextualUI): void&lt;br&gt;+ execute(GuiManager): void" style="text;strokeColor=none;fillColor=none;align=left;verticalAlign=top;spacingLeft=4;spacingRight=4;overflow=hidden;rotatable=0;points=[[0,0.5],[1,0.5]];portConstraint=eastwest;whiteSpace=wrap;html=1;" parent="7zn35PvWmJtqcguIeIPs-226" vertex="1">
          <mxGeometry y="60" width="169.99" height="50" as="geometry" />
        </mxCell>
        <mxCell id="7zn35PvWmJtqcguIeIPs-222" value="SendNameColors" style="swimlane;fontStyle=1;align=center;verticalAlign=top;childLayout=stackLayout;horizontal=1;startSize=26;horizontalStack=0;resizeParent=1;resizeParentMax=0;resizeLast=0;collapsible=1;marginBottom=0;whiteSpace=wrap;html=1;" parent="7zn35PvWmJtqcguIeIPs-96" vertex="1">
          <mxGeometry x="1100" y="80" width="169.99" height="110" as="geometry" />
        </mxCell>
        <mxCell id="7zn35PvWmJtqcguIeIPs-223" value="- serialVersionUID: long" style="text;strokeColor=none;fillColor=none;align=left;verticalAlign=top;spacingLeft=4;spacingRight=4;overflow=hidden;rotatable=0;points=[[0,0.5],[1,0.5]];portConstraint=eastwest;whiteSpace=wrap;html=1;" parent="7zn35PvWmJtqcguIeIPs-222" vertex="1">
          <mxGeometry y="26" width="169.99" height="26" as="geometry" />
        </mxCell>
        <mxCell id="7zn35PvWmJtqcguIeIPs-224" value="" style="line;strokeWidth=1;fillColor=none;align=left;verticalAlign=middle;spacingTop=-1;spacingLeft=3;spacingRight=3;rotatable=0;labelPosition=right;points=[];portConstraint=eastwest;strokeColor=inherit;" parent="7zn35PvWmJtqcguIeIPs-222" vertex="1">
          <mxGeometry y="52" width="169.99" height="8" as="geometry" />
        </mxCell>
        <mxCell id="7zn35PvWmJtqcguIeIPs-225" value="+ execute(TextualUI): void&lt;br&gt;+ execute(GuiManager): void" style="text;strokeColor=none;fillColor=none;align=left;verticalAlign=top;spacingLeft=4;spacingRight=4;overflow=hidden;rotatable=0;points=[[0,0.5],[1,0.5]];portConstraint=eastwest;whiteSpace=wrap;html=1;" parent="7zn35PvWmJtqcguIeIPs-222" vertex="1">
          <mxGeometry y="60" width="169.99" height="50" as="geometry" />
        </mxCell>
        <mxCell id="7zn35PvWmJtqcguIeIPs-257" style="edgeStyle=orthogonalEdgeStyle;rounded=0;orthogonalLoop=1;jettySize=auto;html=1;exitX=0.25;exitY=1;exitDx=0;exitDy=0;entryX=0.927;entryY=0;entryDx=0;entryDy=0;entryPerimeter=0;endArrow=block;endFill=0;" parent="7zn35PvWmJtqcguIeIPs-96" source="7zn35PvWmJtqcguIeIPs-218" target="7zn35PvWmJtqcguIeIPs-99" edge="1">
          <mxGeometry relative="1" as="geometry" />
        </mxCell>
        <mxCell id="7zn35PvWmJtqcguIeIPs-218" value="SendPersonalGoal" style="swimlane;fontStyle=1;align=center;verticalAlign=top;childLayout=stackLayout;horizontal=1;startSize=26;horizontalStack=0;resizeParent=1;resizeParentMax=0;resizeLast=0;collapsible=1;marginBottom=0;whiteSpace=wrap;html=1;" parent="7zn35PvWmJtqcguIeIPs-96" vertex="1">
          <mxGeometry x="1310" y="80" width="169.99" height="100" as="geometry" />
        </mxCell>
        <mxCell id="7zn35PvWmJtqcguIeIPs-219" value="- serialVersionUID: long" style="text;strokeColor=none;fillColor=none;align=left;verticalAlign=top;spacingLeft=4;spacingRight=4;overflow=hidden;rotatable=0;points=[[0,0.5],[1,0.5]];portConstraint=eastwest;whiteSpace=wrap;html=1;" parent="7zn35PvWmJtqcguIeIPs-218" vertex="1">
          <mxGeometry y="26" width="169.99" height="26" as="geometry" />
        </mxCell>
        <mxCell id="7zn35PvWmJtqcguIeIPs-220" value="" style="line;strokeWidth=1;fillColor=none;align=left;verticalAlign=middle;spacingTop=-1;spacingLeft=3;spacingRight=3;rotatable=0;labelPosition=right;points=[];portConstraint=eastwest;strokeColor=inherit;" parent="7zn35PvWmJtqcguIeIPs-218" vertex="1">
          <mxGeometry y="52" width="169.99" height="8" as="geometry" />
        </mxCell>
        <mxCell id="7zn35PvWmJtqcguIeIPs-221" value="+ execute(TextualUI): void&lt;br&gt;+ execute(GuiManager): void" style="text;strokeColor=none;fillColor=none;align=left;verticalAlign=top;spacingLeft=4;spacingRight=4;overflow=hidden;rotatable=0;points=[[0,0.5],[1,0.5]];portConstraint=eastwest;whiteSpace=wrap;html=1;" parent="7zn35PvWmJtqcguIeIPs-218" vertex="1">
          <mxGeometry y="60" width="169.99" height="40" as="geometry" />
        </mxCell>
        <mxCell id="7zn35PvWmJtqcguIeIPs-262" style="edgeStyle=orthogonalEdgeStyle;rounded=0;orthogonalLoop=1;jettySize=auto;html=1;exitX=0.25;exitY=1;exitDx=0;exitDy=0;entryX=0.999;entryY=0.033;entryDx=0;entryDy=0;entryPerimeter=0;endArrow=block;endFill=0;" parent="7zn35PvWmJtqcguIeIPs-96" source="7zn35PvWmJtqcguIeIPs-214" target="7zn35PvWmJtqcguIeIPs-99" edge="1">
          <mxGeometry relative="1" as="geometry" />
        </mxCell>
        <mxCell id="7zn35PvWmJtqcguIeIPs-214" value="SendShelf" style="swimlane;fontStyle=1;align=center;verticalAlign=top;childLayout=stackLayout;horizontal=1;startSize=26;horizontalStack=0;resizeParent=1;resizeParentMax=0;resizeLast=0;collapsible=1;marginBottom=0;whiteSpace=wrap;html=1;" parent="7zn35PvWmJtqcguIeIPs-96" vertex="1">
          <mxGeometry x="1520" y="80" width="169.99" height="100" as="geometry" />
        </mxCell>
        <mxCell id="7zn35PvWmJtqcguIeIPs-215" value="- serialVersionUID: long" style="text;strokeColor=none;fillColor=none;align=left;verticalAlign=top;spacingLeft=4;spacingRight=4;overflow=hidden;rotatable=0;points=[[0,0.5],[1,0.5]];portConstraint=eastwest;whiteSpace=wrap;html=1;" parent="7zn35PvWmJtqcguIeIPs-214" vertex="1">
          <mxGeometry y="26" width="169.99" height="26" as="geometry" />
        </mxCell>
        <mxCell id="7zn35PvWmJtqcguIeIPs-216" value="" style="line;strokeWidth=1;fillColor=none;align=left;verticalAlign=middle;spacingTop=-1;spacingLeft=3;spacingRight=3;rotatable=0;labelPosition=right;points=[];portConstraint=eastwest;strokeColor=inherit;" parent="7zn35PvWmJtqcguIeIPs-214" vertex="1">
          <mxGeometry y="52" width="169.99" height="8" as="geometry" />
        </mxCell>
        <mxCell id="7zn35PvWmJtqcguIeIPs-217" value="+ execute(TextualUI): void&lt;br&gt;+ execute(GuiManager): void" style="text;strokeColor=none;fillColor=none;align=left;verticalAlign=top;spacingLeft=4;spacingRight=4;overflow=hidden;rotatable=0;points=[[0,0.5],[1,0.5]];portConstraint=eastwest;whiteSpace=wrap;html=1;" parent="7zn35PvWmJtqcguIeIPs-214" vertex="1">
          <mxGeometry y="60" width="169.99" height="40" as="geometry" />
        </mxCell>
        <mxCell id="7zn35PvWmJtqcguIeIPs-255" style="edgeStyle=orthogonalEdgeStyle;rounded=0;orthogonalLoop=1;jettySize=auto;html=1;exitX=1;exitY=0.5;exitDx=0;exitDy=0;entryX=0;entryY=0;entryDx=0;entryDy=0;endArrow=block;endFill=0;" parent="7zn35PvWmJtqcguIeIPs-96" source="7zn35PvWmJtqcguIeIPs-237" target="7zn35PvWmJtqcguIeIPs-99" edge="1">
          <mxGeometry relative="1" as="geometry" />
        </mxCell>
        <mxCell id="7zn35PvWmJtqcguIeIPs-256" style="edgeStyle=orthogonalEdgeStyle;rounded=0;orthogonalLoop=1;jettySize=auto;html=1;exitX=0;exitY=0.5;exitDx=0;exitDy=0;entryX=0.595;entryY=0;entryDx=0;entryDy=0;entryPerimeter=0;endArrow=block;endFill=0;" parent="7zn35PvWmJtqcguIeIPs-96" source="7zn35PvWmJtqcguIeIPs-225" target="7zn35PvWmJtqcguIeIPs-99" edge="1">
          <mxGeometry relative="1" as="geometry" />
        </mxCell>
        <mxCell id="7zn35PvWmJtqcguIeIPs-249" value="WrongNickname" style="swimlane;fontStyle=1;align=center;verticalAlign=top;childLayout=stackLayout;horizontal=1;startSize=26;horizontalStack=0;resizeParent=1;resizeParentMax=0;resizeLast=0;collapsible=1;marginBottom=0;whiteSpace=wrap;html=1;" parent="7zn35PvWmJtqcguIeIPs-96" vertex="1">
          <mxGeometry x="1940" y="75" width="169.99" height="100" as="geometry" />
        </mxCell>
        <mxCell id="7zn35PvWmJtqcguIeIPs-250" value="- serialVersionUID: long" style="text;strokeColor=none;fillColor=none;align=left;verticalAlign=top;spacingLeft=4;spacingRight=4;overflow=hidden;rotatable=0;points=[[0,0.5],[1,0.5]];portConstraint=eastwest;whiteSpace=wrap;html=1;" parent="7zn35PvWmJtqcguIeIPs-249" vertex="1">
          <mxGeometry y="26" width="169.99" height="26" as="geometry" />
        </mxCell>
        <mxCell id="7zn35PvWmJtqcguIeIPs-251" value="" style="line;strokeWidth=1;fillColor=none;align=left;verticalAlign=middle;spacingTop=-1;spacingLeft=3;spacingRight=3;rotatable=0;labelPosition=right;points=[];portConstraint=eastwest;strokeColor=inherit;" parent="7zn35PvWmJtqcguIeIPs-249" vertex="1">
          <mxGeometry y="52" width="169.99" height="8" as="geometry" />
        </mxCell>
        <mxCell id="7zn35PvWmJtqcguIeIPs-252" value="+ execute(TextualUI): void&lt;br&gt;+ execute(GuiManager): void" style="text;strokeColor=none;fillColor=none;align=left;verticalAlign=top;spacingLeft=4;spacingRight=4;overflow=hidden;rotatable=0;points=[[0,0.5],[1,0.5]];portConstraint=eastwest;whiteSpace=wrap;html=1;" parent="7zn35PvWmJtqcguIeIPs-249" vertex="1">
          <mxGeometry y="60" width="169.99" height="40" as="geometry" />
        </mxCell>
        <mxCell id="7zn35PvWmJtqcguIeIPs-210" value="SendTemporaryTiles" style="swimlane;fontStyle=1;align=center;verticalAlign=top;childLayout=stackLayout;horizontal=1;startSize=26;horizontalStack=0;resizeParent=1;resizeParentMax=0;resizeLast=0;collapsible=1;marginBottom=0;whiteSpace=wrap;html=1;" parent="7zn35PvWmJtqcguIeIPs-96" vertex="1">
          <mxGeometry x="1730.01" y="75" width="169.99" height="100" as="geometry" />
        </mxCell>
        <mxCell id="7zn35PvWmJtqcguIeIPs-211" value="- serialVersionUID: long" style="text;strokeColor=none;fillColor=none;align=left;verticalAlign=top;spacingLeft=4;spacingRight=4;overflow=hidden;rotatable=0;points=[[0,0.5],[1,0.5]];portConstraint=eastwest;whiteSpace=wrap;html=1;" parent="7zn35PvWmJtqcguIeIPs-210" vertex="1">
          <mxGeometry y="26" width="169.99" height="26" as="geometry" />
        </mxCell>
        <mxCell id="7zn35PvWmJtqcguIeIPs-212" value="" style="line;strokeWidth=1;fillColor=none;align=left;verticalAlign=middle;spacingTop=-1;spacingLeft=3;spacingRight=3;rotatable=0;labelPosition=right;points=[];portConstraint=eastwest;strokeColor=inherit;" parent="7zn35PvWmJtqcguIeIPs-210" vertex="1">
          <mxGeometry y="52" width="169.99" height="8" as="geometry" />
        </mxCell>
        <mxCell id="7zn35PvWmJtqcguIeIPs-213" value="+ execute(TextualUI): void&lt;br&gt;+ execute(GuiManager): void" style="text;strokeColor=none;fillColor=none;align=left;verticalAlign=top;spacingLeft=4;spacingRight=4;overflow=hidden;rotatable=0;points=[[0,0.5],[1,0.5]];portConstraint=eastwest;whiteSpace=wrap;html=1;" parent="7zn35PvWmJtqcguIeIPs-210" vertex="1">
          <mxGeometry y="60" width="169.99" height="40" as="geometry" />
        </mxCell>
        <mxCell id="7zn35PvWmJtqcguIeIPs-263" style="edgeStyle=orthogonalEdgeStyle;rounded=0;orthogonalLoop=1;jettySize=auto;html=1;entryX=1.002;entryY=0.098;entryDx=0;entryDy=0;entryPerimeter=0;endArrow=block;endFill=0;" parent="7zn35PvWmJtqcguIeIPs-96" edge="1">
          <mxGeometry relative="1" as="geometry">
            <mxPoint x="1759.23" y="175" as="sourcePoint" />
            <mxPoint x="1236.0500000000002" y="235.77309178378368" as="targetPoint" />
            <Array as="points">
              <mxPoint x="1759.23" y="235" />
              <mxPoint x="1729.23" y="235" />
            </Array>
          </mxGeometry>
        </mxCell>
        <mxCell id="LTxgpxZo_bc8f6A4X1VT-30" style="edgeStyle=orthogonalEdgeStyle;rounded=0;orthogonalLoop=1;jettySize=auto;html=1;entryX=1;entryY=0.144;entryDx=0;entryDy=0;entryPerimeter=0;endArrow=block;endFill=0;" edge="1" parent="7zn35PvWmJtqcguIeIPs-96" source="7zn35PvWmJtqcguIeIPs-252" target="7zn35PvWmJtqcguIeIPs-99">
          <mxGeometry relative="1" as="geometry">
            <Array as="points">
              <mxPoint x="1968" y="250" />
              <mxPoint x="1940" y="250" />
            </Array>
          </mxGeometry>
        </mxCell>
        <mxCell id="7zn35PvWmJtqcguIeIPs-154" style="edgeStyle=orthogonalEdgeStyle;rounded=0;orthogonalLoop=1;jettySize=auto;html=1;exitX=0.5;exitY=0;exitDx=0;exitDy=0;endArrow=block;endFill=0;" parent="1" source="7zn35PvWmJtqcguIeIPs-99" edge="1">
          <mxGeometry relative="1" as="geometry">
            <Array as="points">
              <mxPoint x="1344" y="-1750" />
              <mxPoint x="-610" y="-1750" />
              <mxPoint x="-610" y="-610" />
            </Array>
            <mxPoint x="-610" y="-610" as="targetPoint" />
          </mxGeometry>
        </mxCell>
        <mxCell id="7zn35PvWmJtqcguIeIPs-267" value="«interface»&lt;br&gt;&lt;b&gt;Remote&lt;/b&gt;" style="html=1;whiteSpace=wrap;fillColor=none;" parent="1" vertex="1">
          <mxGeometry x="-784" y="-420" width="200" height="160" as="geometry" />
        </mxCell>
        <mxCell id="7zn35PvWmJtqcguIeIPs-270" style="edgeStyle=orthogonalEdgeStyle;rounded=0;orthogonalLoop=1;jettySize=auto;html=1;exitX=0;exitY=0.5;exitDx=0;exitDy=0;entryX=1.005;entryY=0.912;entryDx=0;entryDy=0;entryPerimeter=0;endArrow=block;endFill=0;" parent="1" source="1AL47Ae-udw0xNspE_Op-22" target="1AL47Ae-udw0xNspE_Op-5" edge="1">
          <mxGeometry relative="1" as="geometry">
            <Array as="points">
              <mxPoint x="1090" y="-620" />
            </Array>
          </mxGeometry>
        </mxCell>
        <mxCell id="7zn35PvWmJtqcguIeIPs-271" style="edgeStyle=orthogonalEdgeStyle;rounded=0;orthogonalLoop=1;jettySize=auto;html=1;exitX=0;exitY=0.5;exitDx=0;exitDy=0;entryX=1.006;entryY=0.081;entryDx=0;entryDy=0;entryPerimeter=0;endArrow=block;endFill=0;" parent="1" source="1AL47Ae-udw0xNspE_Op-26" target="1AL47Ae-udw0xNspE_Op-3" edge="1">
          <mxGeometry relative="1" as="geometry">
            <Array as="points">
              <mxPoint x="1040" y="-444" />
              <mxPoint x="1040" y="-525" />
            </Array>
          </mxGeometry>
        </mxCell>
        <mxCell id="7zn35PvWmJtqcguIeIPs-272" style="edgeStyle=orthogonalEdgeStyle;rounded=0;orthogonalLoop=1;jettySize=auto;html=1;exitX=0;exitY=0.5;exitDx=0;exitDy=0;entryX=1;entryY=0.75;entryDx=0;entryDy=0;endArrow=block;endFill=0;" parent="1" source="1AL47Ae-udw0xNspE_Op-9" target="1AL47Ae-udw0xNspE_Op-3" edge="1">
          <mxGeometry relative="1" as="geometry" />
        </mxCell>
        <mxCell id="7zn35PvWmJtqcguIeIPs-273" value="MessageQueueHandler" style="swimlane;fontStyle=1;align=center;verticalAlign=top;childLayout=stackLayout;horizontal=1;startSize=26;horizontalStack=0;resizeParent=1;resizeParentMax=0;resizeLast=0;collapsible=1;marginBottom=0;whiteSpace=wrap;html=1;" parent="1" vertex="1">
          <mxGeometry x="1210" y="-900" width="350" height="120" as="geometry" />
        </mxCell>
        <mxCell id="7zn35PvWmJtqcguIeIPs-274" value="- messages: ConcurrentLinkedQueue&amp;lt;InputMessage&amp;gt;&lt;br&gt;- engine: Engine" style="text;strokeColor=none;fillColor=none;align=left;verticalAlign=top;spacingLeft=4;spacingRight=4;overflow=hidden;rotatable=0;points=[[0,0.5],[1,0.5]];portConstraint=eastwest;whiteSpace=wrap;html=1;" parent="7zn35PvWmJtqcguIeIPs-273" vertex="1">
          <mxGeometry y="26" width="350" height="44" as="geometry" />
        </mxCell>
        <mxCell id="7zn35PvWmJtqcguIeIPs-275" value="" style="line;strokeWidth=1;fillColor=none;align=left;verticalAlign=middle;spacingTop=-1;spacingLeft=3;spacingRight=3;rotatable=0;labelPosition=right;points=[];portConstraint=eastwest;strokeColor=inherit;" parent="7zn35PvWmJtqcguIeIPs-273" vertex="1">
          <mxGeometry y="70" width="350" height="8" as="geometry" />
        </mxCell>
        <mxCell id="7zn35PvWmJtqcguIeIPs-276" value="+ run(): void&lt;br&gt;+ add(InputMessage): void" style="text;strokeColor=none;fillColor=none;align=left;verticalAlign=top;spacingLeft=4;spacingRight=4;overflow=hidden;rotatable=0;points=[[0,0.5],[1,0.5]];portConstraint=eastwest;whiteSpace=wrap;html=1;" parent="7zn35PvWmJtqcguIeIPs-273" vertex="1">
          <mxGeometry y="78" width="350" height="42" as="geometry" />
        </mxCell>
        <mxCell id="7zn35PvWmJtqcguIeIPs-278" style="edgeStyle=orthogonalEdgeStyle;rounded=0;orthogonalLoop=1;jettySize=auto;html=1;exitX=0;exitY=0.5;exitDx=0;exitDy=0;endArrow=diamondThin;endFill=1;" parent="1" source="7zn35PvWmJtqcguIeIPs-274" target="1AL47Ae-udw0xNspE_Op-11" edge="1">
          <mxGeometry relative="1" as="geometry">
            <Array as="points">
              <mxPoint x="1210" y="-842" />
            </Array>
          </mxGeometry>
        </mxCell>
        <mxCell id="LTxgpxZo_bc8f6A4X1VT-1" value="Exceptions" style="shape=folder;fontStyle=1;tabWidth=110;tabHeight=30;tabPosition=left;html=1;boundedLbl=1;labelInHeader=1;container=1;collapsible=0;whiteSpace=wrap;fillColor=none;" vertex="1" parent="1">
          <mxGeometry x="2720" y="-2400" width="270" height="220" as="geometry" />
        </mxCell>
        <mxCell id="LTxgpxZo_bc8f6A4X1VT-2" value="" style="html=1;strokeColor=none;resizeWidth=1;resizeHeight=1;fillColor=none;part=1;connectable=0;allowArrows=0;deletable=0;whiteSpace=wrap;" vertex="1" parent="LTxgpxZo_bc8f6A4X1VT-1">
          <mxGeometry width="250" height="204.2857142857143" relative="1" as="geometry">
            <mxPoint y="30" as="offset" />
          </mxGeometry>
        </mxCell>
        <mxCell id="LTxgpxZo_bc8f6A4X1VT-7" value="MinimumRedeemedPointsException" style="swimlane;fontStyle=1;align=center;verticalAlign=middle;childLayout=stackLayout;horizontal=1;startSize=29;horizontalStack=0;resizeParent=1;resizeParentMax=0;resizeLast=0;collapsible=0;marginBottom=0;html=1;whiteSpace=wrap;" vertex="1" parent="LTxgpxZo_bc8f6A4X1VT-1">
          <mxGeometry x="16.62" y="40.95" width="236.75" height="50" as="geometry" />
        </mxCell>
        <mxCell id="LTxgpxZo_bc8f6A4X1VT-10" value="UnselectableColumnException" style="swimlane;fontStyle=1;align=center;verticalAlign=middle;childLayout=stackLayout;horizontal=1;startSize=29;horizontalStack=0;resizeParent=1;resizeParentMax=0;resizeLast=0;collapsible=0;marginBottom=0;html=1;whiteSpace=wrap;" vertex="1" parent="LTxgpxZo_bc8f6A4X1VT-1">
          <mxGeometry x="44.99" y="160" width="180" height="50" as="geometry" />
        </mxCell>
        <mxCell id="LTxgpxZo_bc8f6A4X1VT-13" value="UnselectableTilesException" style="swimlane;fontStyle=1;align=center;verticalAlign=middle;childLayout=stackLayout;horizontal=1;startSize=29;horizontalStack=0;resizeParent=1;resizeParentMax=0;resizeLast=0;collapsible=0;marginBottom=0;html=1;whiteSpace=wrap;" vertex="1" parent="LTxgpxZo_bc8f6A4X1VT-1">
          <mxGeometry x="39.989999999999995" y="100" width="190" height="50" as="geometry" />
        </mxCell>
        <mxCell id="LTxgpxZo_bc8f6A4X1VT-20" style="edgeStyle=orthogonalEdgeStyle;rounded=0;orthogonalLoop=1;jettySize=auto;html=1;exitX=0.5;exitY=0;exitDx=0;exitDy=0;entryX=0.8;entryY=0;entryDx=0;entryDy=0;entryPerimeter=0;endArrow=block;endFill=0;" edge="1" parent="1" source="LTxgpxZo_bc8f6A4X1VT-16" target="7zn35PvWmJtqcguIeIPs-5">
          <mxGeometry relative="1" as="geometry">
            <Array as="points">
              <mxPoint x="108" y="-3180" />
              <mxPoint x="-630" y="-3180" />
            </Array>
          </mxGeometry>
        </mxCell>
        <mxCell id="LTxgpxZo_bc8f6A4X1VT-16" value="SerializableInput" style="swimlane;fontStyle=1;align=center;verticalAlign=top;childLayout=stackLayout;horizontal=1;startSize=26;horizontalStack=0;resizeParent=1;resizeParentMax=0;resizeLast=0;collapsible=1;marginBottom=0;whiteSpace=wrap;html=1;" vertex="1" parent="1">
          <mxGeometry x="16" y="-2390" width="183.99" height="210" as="geometry" />
        </mxCell>
        <mxCell id="LTxgpxZo_bc8f6A4X1VT-17" value="- serialVersionUID: long&lt;br&gt;- clientNickname: String&lt;br&gt;- coordinate: Point&lt;br&gt;- integer: Integer&lt;br&gt;- string: String&lt;br&gt;- alphanumericalID: String" style="text;strokeColor=none;fillColor=none;align=left;verticalAlign=top;spacingLeft=4;spacingRight=4;overflow=hidden;rotatable=0;points=[[0,0.5],[1,0.5]];portConstraint=eastwest;whiteSpace=wrap;html=1;" vertex="1" parent="LTxgpxZo_bc8f6A4X1VT-16">
          <mxGeometry y="26" width="183.99" height="94" as="geometry" />
        </mxCell>
        <mxCell id="LTxgpxZo_bc8f6A4X1VT-18" value="" style="line;strokeWidth=1;fillColor=none;align=left;verticalAlign=middle;spacingTop=-1;spacingLeft=3;spacingRight=3;rotatable=0;labelPosition=right;points=[];portConstraint=eastwest;strokeColor=inherit;" vertex="1" parent="LTxgpxZo_bc8f6A4X1VT-16">
          <mxGeometry y="120" width="183.99" height="8" as="geometry" />
        </mxCell>
        <mxCell id="LTxgpxZo_bc8f6A4X1VT-19" value="+ getClientNickname(): String&lt;br style=&quot;border-color: var(--border-color);&quot;&gt;+ getCoordinate(): Point&lt;br style=&quot;border-color: var(--border-color);&quot;&gt;+ getInteger(): Integer&lt;br style=&quot;border-color: var(--border-color);&quot;&gt;+ getString(): String&lt;br style=&quot;border-color: var(--border-color);&quot;&gt;+ getAlphanumericalID(): String" style="text;strokeColor=none;fillColor=none;align=left;verticalAlign=top;spacingLeft=4;spacingRight=4;overflow=hidden;rotatable=0;points=[[0,0.5],[1,0.5]];portConstraint=eastwest;whiteSpace=wrap;html=1;" vertex="1" parent="LTxgpxZo_bc8f6A4X1VT-16">
          <mxGeometry y="128" width="183.99" height="82" as="geometry" />
        </mxCell>
        <mxCell id="LTxgpxZo_bc8f6A4X1VT-31" style="edgeStyle=orthogonalEdgeStyle;rounded=0;orthogonalLoop=1;jettySize=auto;html=1;exitX=0.5;exitY=0;exitDx=0;exitDy=0;entryX=1.002;entryY=0.067;entryDx=0;entryDy=0;entryPerimeter=0;endArrow=diamondThin;endFill=1;" edge="1" parent="1" source="LTxgpxZo_bc8f6A4X1VT-24" target="7zn35PvWmJtqcguIeIPs-100">
          <mxGeometry relative="1" as="geometry">
            <Array as="points">
              <mxPoint x="2370" y="-320" />
              <mxPoint x="2650" y="-320" />
              <mxPoint x="2650" y="-1435" />
            </Array>
          </mxGeometry>
        </mxCell>
        <mxCell id="LTxgpxZo_bc8f6A4X1VT-24" value="SerializableGame" style="swimlane;fontStyle=1;align=center;verticalAlign=top;childLayout=stackLayout;horizontal=1;startSize=26;horizontalStack=0;resizeParent=1;resizeParentMax=0;resizeLast=0;collapsible=1;marginBottom=0;whiteSpace=wrap;html=1;" vertex="1" parent="1">
          <mxGeometry x="2180" y="-160" width="379.99" height="580" as="geometry" />
        </mxCell>
        <mxCell id="LTxgpxZo_bc8f6A4X1VT-25" value="- serialVersionUID: long&lt;br&gt;- alphanumericalID: String&lt;br&gt;- gameBoard: Tile[][]&lt;br&gt;- playerShelf: Tile[][]&lt;br&gt;- playerName: String&lt;br&gt;- message: Message&lt;br&gt;- chat: ArrayList&amp;lt;Message&amp;gt;&lt;br&gt;- clientNickname: String&lt;br&gt;- integer: Integer&lt;br&gt;- bool: Boolean&lt;br&gt;- selectablePoints: ArrayList&amp;lt;Point&amp;gt;&lt;br&gt;- temporaryPoints: ArrayList&amp;lt;Point&amp;gt;&lt;br&gt;- temporaryTiles: ArrayList&amp;lt;Tiles&amp;gt;&lt;br&gt;- playerPersonalGoal: Tile[][]&lt;br&gt;- results: HashMap&amp;lt;String, Integer&amp;gt;&lt;br&gt;- nameColors: HashMap&amp;lt;String. String&amp;gt;&lt;br&gt;- allShelves: HashMap&amp;lt;String, Tile[][]&amp;gt;&lt;br&gt;- commonGoalDesc: ArrayList&amp;lt;String&amp;gt;" style="text;strokeColor=none;fillColor=none;align=left;verticalAlign=top;spacingLeft=4;spacingRight=4;overflow=hidden;rotatable=0;points=[[0,0.5],[1,0.5]];portConstraint=eastwest;whiteSpace=wrap;html=1;" vertex="1" parent="LTxgpxZo_bc8f6A4X1VT-24">
          <mxGeometry y="26" width="379.99" height="274" as="geometry" />
        </mxCell>
        <mxCell id="LTxgpxZo_bc8f6A4X1VT-26" value="" style="line;strokeWidth=1;fillColor=none;align=left;verticalAlign=middle;spacingTop=-1;spacingLeft=3;spacingRight=3;rotatable=0;labelPosition=right;points=[];portConstraint=eastwest;strokeColor=inherit;" vertex="1" parent="LTxgpxZo_bc8f6A4X1VT-24">
          <mxGeometry y="300" width="379.99" height="8" as="geometry" />
        </mxCell>
        <mxCell id="LTxgpxZo_bc8f6A4X1VT-27" value="- personalGoalToTile(TilesEnum[][]): Tile[][]&lt;br&gt;+ getAlphanumericalID(): String&lt;br style=&quot;border-color: var(--border-color);&quot;&gt;+ getGameBoard(): Tile[][]&lt;br style=&quot;border-color: var(--border-color);&quot;&gt;+ getPlayerShelf(): Tile[][]&lt;br style=&quot;border-color: var(--border-color);&quot;&gt;+ getPlayerName(): String&lt;br style=&quot;border-color: var(--border-color);&quot;&gt;+ getMessage(): Message&lt;br style=&quot;border-color: var(--border-color);&quot;&gt;+ getChat(): ArrayList&amp;lt;Message&amp;gt;&lt;br style=&quot;border-color: var(--border-color);&quot;&gt;+ getClientNickname(): String&lt;br style=&quot;border-color: var(--border-color);&quot;&gt;+ getInteger(): Integer&lt;br style=&quot;border-color: var(--border-color);&quot;&gt;+ getBool(): Boolean&lt;br style=&quot;border-color: var(--border-color);&quot;&gt;+ getSelectablePoints(): ArrayList&amp;lt;Point&amp;gt;&lt;br style=&quot;border-color: var(--border-color);&quot;&gt;+ getTemporaryPoints(): ArrayList&amp;lt;Point&amp;gt;&lt;br style=&quot;border-color: var(--border-color);&quot;&gt;+ getTemporaryTiles(): ArrayList&amp;lt;Tiles&amp;gt;&lt;br style=&quot;border-color: var(--border-color);&quot;&gt;+ getPlayerPersonalGoal(): Tile[][]&lt;br style=&quot;border-color: var(--border-color);&quot;&gt;+ getResults(): HashMap&amp;lt;String, Integer&amp;gt;&lt;br style=&quot;border-color: var(--border-color);&quot;&gt;+ getNameColors(): HashMap&amp;lt;String. String&amp;gt;&lt;br style=&quot;border-color: var(--border-color);&quot;&gt;+ getAllShelves(): HashMap&amp;lt;String, Tile[][]&amp;gt;&lt;br style=&quot;border-color: var(--border-color);&quot;&gt;+ getCommonGoalDesc(): ArrayList&amp;lt;String&amp;gt;" style="text;strokeColor=none;fillColor=none;align=left;verticalAlign=top;spacingLeft=4;spacingRight=4;overflow=hidden;rotatable=0;points=[[0,0.5],[1,0.5]];portConstraint=eastwest;whiteSpace=wrap;html=1;" vertex="1" parent="LTxgpxZo_bc8f6A4X1VT-24">
          <mxGeometry y="308" width="379.99" height="272" as="geometry" />
        </mxCell>
        <mxCell id="LTxgpxZo_bc8f6A4X1VT-32" style="edgeStyle=orthogonalEdgeStyle;rounded=0;orthogonalLoop=1;jettySize=auto;html=1;exitX=1;exitY=0.5;exitDx=0;exitDy=0;entryX=-0.003;entryY=0.123;entryDx=0;entryDy=0;entryPerimeter=0;endArrow=diamondThin;endFill=1;" edge="1" parent="1" source="LTxgpxZo_bc8f6A4X1VT-19" target="7zn35PvWmJtqcguIeIPs-6">
          <mxGeometry relative="1" as="geometry">
            <Array as="points">
              <mxPoint x="200" y="-2250" />
            </Array>
          </mxGeometry>
        </mxCell>
        <mxCell id="LTxgpxZo_bc8f6A4X1VT-37" value="ConsoleColors" style="swimlane;fontStyle=1;align=center;verticalAlign=top;childLayout=stackLayout;horizontal=1;startSize=26;horizontalStack=0;resizeParent=1;resizeParentMax=0;resizeLast=0;collapsible=1;marginBottom=0;whiteSpace=wrap;html=1;" vertex="1" parent="1">
          <mxGeometry x="-610" y="-2150" width="270" height="370" as="geometry" />
        </mxCell>
        <mxCell id="LTxgpxZo_bc8f6A4X1VT-38" value="+ RESET: String&lt;br&gt;+ RED: String&lt;br&gt;+ GREEN: String&lt;br&gt;+ YELLOW: String&lt;br&gt;+ BLUE: String&lt;br&gt;+ PURPLE: String&lt;br&gt;+ CYAN: String&lt;br&gt;+ ORANGE: String&lt;br&gt;+ MAGENTA: String&lt;br&gt;+ GREY: String&lt;br&gt;+ GOLD: String&lt;br&gt;+ SILVER: String&lt;br&gt;+ BRONZE: String&lt;br&gt;+ RED_BOLD: String&lt;br&gt;+ BLUE_BOLD: String&lt;br&gt;+ PURPLE_BOLD: String&lt;br&gt;+ TROPHIES: String&lt;br&gt;+ GAMES: String&lt;br&gt;+ PLANTS: String&lt;br&gt;+ CATS: String&lt;br&gt;+ BOOKS: String&lt;br&gt;+ FRAMES: String&lt;br&gt;+ EMPTY: String" style="text;strokeColor=none;fillColor=none;align=left;verticalAlign=top;spacingLeft=4;spacingRight=4;overflow=hidden;rotatable=0;points=[[0,0.5],[1,0.5]];portConstraint=eastwest;whiteSpace=wrap;html=1;" vertex="1" parent="LTxgpxZo_bc8f6A4X1VT-37">
          <mxGeometry y="26" width="270" height="344" as="geometry" />
        </mxCell>
        <mxCell id="LTxgpxZo_bc8f6A4X1VT-42" value="«interface»&lt;br&gt;&lt;b&gt;Runnable&lt;/b&gt;" style="html=1;whiteSpace=wrap;fillColor=none;" vertex="1" parent="1">
          <mxGeometry x="1790" y="-2974" width="200" height="160" as="geometry" />
        </mxCell>
        <mxCell id="LTxgpxZo_bc8f6A4X1VT-43" style="edgeStyle=orthogonalEdgeStyle;rounded=0;orthogonalLoop=1;jettySize=auto;html=1;exitX=1;exitY=0.5;exitDx=0;exitDy=0;entryX=0.75;entryY=1;entryDx=0;entryDy=0;endArrow=block;endFill=0;" edge="1" parent="1" source="7zn35PvWmJtqcguIeIPs-274" target="LTxgpxZo_bc8f6A4X1VT-42">
          <mxGeometry relative="1" as="geometry">
            <Array as="points">
              <mxPoint x="2700" y="-852" />
              <mxPoint x="2700" y="-2740" />
              <mxPoint x="1940" y="-2740" />
            </Array>
          </mxGeometry>
        </mxCell>
        <mxCell id="LTxgpxZo_bc8f6A4X1VT-44" style="edgeStyle=orthogonalEdgeStyle;rounded=0;orthogonalLoop=1;jettySize=auto;html=1;entryX=0.25;entryY=1;entryDx=0;entryDy=0;endArrow=block;endFill=0;" edge="1" parent="1" target="LTxgpxZo_bc8f6A4X1VT-42">
          <mxGeometry relative="1" as="geometry">
            <mxPoint x="-30" y="-2740" as="sourcePoint" />
            <Array as="points">
              <mxPoint x="-30" y="-2740" />
              <mxPoint x="1840" y="-2740" />
            </Array>
          </mxGeometry>
        </mxCell>
      </root>
    </mxGraphModel>
  </diagram>
</mxfile>
